{
.appVersion = "3177";
.formatVersion = 3;
DisplayStrings = (
"ڰگ",
"ٔ ",
"ڧ",
"؁ࢉࢍࢌڟ࣐ࣇࢵࣅࣄࣃࣂࣁࣀࢿࢾࢽࢼࢻࢴﻲ",
"؁ع",
"/zero-ar.ccmp/one-ar.ccmp/two-ar.ccmp/three-ar.ccmp/four-ar.ccmp ﺎ/alef-ar.fina.small/alefTwoabove-ar.fina/six-ar.ccmp/seven-ar.ccmp/eight-ar.ccmp/nine-ar.ccmp/four-persian.ccmp/five-persian.ccmp/six-persian.ccmp/six-persian.locl.ccmp/seven-persian.locl.ccmp/zero.ccmp/one.ccmp/two.ccmp/three.ccmp/four.ccmp/five.ccmp/six.ccmp/seven.ccmp/eight.ccmp/nine.ccmp"
);
axes = (
{
name = Weight;
tag = wght;
}
);
classes = (
{
code = "year-ar endofayah-ar number-ar footnotemarker-ar pagenumber-ar samvat-ar";
name = ccmp;
},
{
code = "zero-ar
one-ar
two-ar
three-ar
four-ar
five-ar
six-ar
seven-ar
eight-ar
nine-ar
# Persian
zero-persian
one-persian
two-persian
three-persian
four-persian
five-persian
six-persian
seven-persian
eight-persian
nine-persian
# sindi/urdu
four-persian.locl
seven-persian.locl
# Latin
zero
one
two
three
four
five
six
seven
eight
nine
";
name = numbers;
},
{
code = "zero-ar.ccmp
one-ar.ccmp
two-ar.ccmp
three-ar.ccmp
four-ar.ccmp
five-ar.ccmp
six-ar.ccmp
seven-ar.ccmp
eight-ar.ccmp
nine-ar.ccmp
#
zero-ar.ccmp
one-ar.ccmp
two-ar.ccmp
three-ar.ccmp
four-persian.ccmp
five-persian.ccmp
six-persian.ccmp
seven-ar.ccmp
eight-ar.ccmp
nine-ar.ccmp
#
six-persian.locl.ccmp
seven-persian.locl.ccmp
# Latin
zero.ccmp
one.ccmp
two.ccmp
three.ccmp
four.ccmp
five.ccmp
six.ccmp
seven.ccmp
eight.ccmp
nine.ccmp
";
name = numbers_small;
},
{
code = "zero-ar.ccmp
one-ar.ccmp
two-ar.ccmp
three-ar.ccmp
four-ar.ccmp
five-ar.ccmp
six-ar.ccmp
seven-ar.ccmp
eight-ar.ccmp
nine-ar.ccmp
#
four-persian.ccmp
five-persian.ccmp
six-persian.ccmp
six-persian.locl.ccmp
seven-persian.locl.ccmp
# Latin
zero.ccmp
one.ccmp
two.ccmp
three.ccmp
four.ccmp
five.ccmp
six.ccmp
seven.ccmp
eight.ccmp
nine.ccmp
";
name = numbers_small_uniq;
},
{
code = "alef-ar.fina
alefTwoabove-ar.fina
alefThreeabove-ar.fina
lam-ar.init
";
name = rlig;
},
{
code = "alef-ar.fina.rlig
alefTwoabove-ar.fina.rlig

glyphs = (
{
glyphname = "hamza-ar";
layers = (
{
anchors = (
{
name = bottom;
pos = (237,-86);
},
{
name = top.far;
pos = (209,321);
},
{
name = top.near;
pos = (206,326);
}
);
layerId = master01;
shapes = (
{
closed = 1;
nodes = (
(159,-16,o),
(195,-9,o),
(231,-3,cs),
(267,3,o),
(324,9,o),
(372,14,cs),
(397,16,o),
(419,33,o),
(419,62,cs),
(419,74,o),
(414,86,o),
(404,97,c),
(394,96,o),
(382,94,o),
(366,92,cs),
(336,87,o),
(301,81,o),
(269,72,cs),
(259,70,o),
(250,68,o),
(242,65,c),
(223,70,o),
(199,79,o),
(184,87,cs),
(161,100,o),
(146,118,o),
(135,143,c),
(163,180,o),
(209,207,o),
(248,207,cs),
(260,207,o),
(281,203,o),
(289,195,c),
(288,185,o),
(286,178,o),
(281,170,c),
(292,165,o),
(298,162,o),
(311,158,c),
(318,170,o),
(323,188,o),
(323,203,cs),
(323,252,o),
(291,277,o),
(244,277,cs),
(228,277,o),
(213,273,o),
(199,267,cs),
(141,242,o),
(97,172,o),
(97,116,cs),
(97,93,o),
(109,71,o),
(127,53,cs),
(131,49,o),
(138,44,o),
(146,39,c),
(106,25,o),
(79,15,o),
(54,5,c),
(68,-37,l)
);
}
);
width = 437;
},
{
anchors = (
{
name = bottom;
pos = (256,-81);
},
{
name = top.far;
pos = (233,390);
},
{
name = top.near;
pos = (236,385);
}
);
layerId = "26E2967D-790C-4793-AF2A-2D0AD74EDC69";
shapes = (
{
closed = 1;
nodes = (
(156,-21,o),
(207,-14,o),
(255,-10,cs),
(305,-4,o),
(349,-2,o),
(379,1,cs),
(411,4,o),
(431,33,o),
(431,64,cs),
(431,86,o),
(419,109,o),
(408,121,c),
(398,120,o),
(386,118,o),
(374,116,cs),
(350,112,o),
(325,107,o),
(301,102,cs),
(292,100,o),
(282,97,o),
(273,95,c),
(260,95,o),
(233,100,o),
(221,104,cs),
(195,111,o),
(178,121,o),
(159,145,c),
(192,191,o),
(224,205,o),
(255,205,cs),
(265,205,o),
(277,203,o),
(290,198,c),
(288,189,o),
(287,182,o),
(285,174,c),
(295,168,o),
(312,161,o),
(330,156,c),
(347,174,o),
(354,201,o),
(354,221,cs),
(354,276,o),
(312,312,o),
(260,312,cs),
(246,312,o),
(233,309,o),
(220,303,cs),
(156,272,o),
(108,186,o),
(108,118,cs),
(108,99,o),
(114,82,o),
(125,66,cs),
(130,60,o),
(135,54,o),
(141,49,c),
(131,45,o),
(85,25,o),
(68,17,c),
(85,-32,l)
);
}
);
width = 452;
}
);
unicode = (1569,65152);
},
{
glyphname = "alef-ar";
layers = (
{
anchors = (
{
name = bottom;
pos = (127,-70);
},
{
name = bottom.dot;
pos = (127,-75);
},
{
name = top.far;
pos = (120,711);
},
{
name = top.near;
pos = (120,691);
}
);
layerId = master01;
shapes = (
{
closed = 1;
nodes = (
(150,8,l),
(159,230,o),
(159,380,o),
(151,529,c),
(178,552,l),
(162,599,o),
(148,645,o),
(143,671,c),
(91,661,o),
(72,636,o),
(77,582,cs),
(92,428,o),
(100,234,o),
(104,0,c)
);
}
);
width = 238;
},
{
anchors = (
{
name = bottom;
pos = (151,-90);
},
{
name = bottom.dot;
pos = (151,-81);
},
{
name = top.far;
pos = (140,720);
},
{
name = top.near;
pos = (141,699);
}
);
background = {
anchors = (
{
name = bottom.dot;
pos = (151,-58);
}
);
};
layerId = "26E2967D-790C-4793-AF2A-2D0AD74EDC69";
shapes = (
{
closed = 1;
nodes = (
(185,17,l),
(192,245,o),
(193,420,o),
(190,531,c),
(225,557,l),
(209,597,o),
(195,638,o),
(184,680,c),
(124,680,o),
(71,645,o),
(77,595,cs),
(96,404,o),
(107,284,o),
(121,9,c)
);
}
);
width = 284;
}
);
unicode = (1575,65165);
},
{
glyphname = "alef-ar.small";
layers = (
{
layerId = master01;
shapes = (
{
closed = 1;
nodes = (
(147,8,l),
(152,127,o),
(153,203,o),
(153,237,c),
(152,285,o),
(152,333,o),
(151,382,c),
(178,405,l),
(163,443,o),
(150,483,o),
(142,523,c),
(97,514,o),
(77,488,o),
(77,447,cs),
(77,417,o),
(94,176,o),
(101,0,c)
);
}
);
width = 238;
},
{
layerId = "26E2967D-790C-4793-AF2A-2D0AD74EDC69";
shapes = (
{
closed = 1;
nodes = (
(165,17,l),
(166,106,o),
(168,213,o),
(169,284,cs),
(170,317,o),
(170,343,o),
(170,438,c),
(204,465,l),
(190,502,o),
(176,543,o),
(164,588,c),
(107,588,o),
(62,555,o),
(62,504,cs),
(62,437,o),
(86,224,o),
(101,9,c)
);
}
);
width = 242;
}
);
},
{
glyphname = "alef-ar.fina";
layers = (
{
anchors = (
{
name = bottom;
pos = (166,-100);
},
{
name = bottom.dot;
pos = (166,-48);
},
{
name = top.far;
pos = (118,693);
},
{
name = top.near;
pos = (118,693);
}
);
layerId = master01;
shapes = (
{
closed = 1;
nodes = (
(267,0,o),
(270,3,o),
(270,8,cs),
(270,68,ls),
(270,73,o),
(267,76,o),
(262,76,cs),
(224,76,o),
(189,85,o),
(158,102,c),
(155,169,ls),
(146,375,o),
(150,515,o),
(144,671,c),
(117,653,o),
(95,634,o),
(76,615,c),
(98,312,o),
(109,182,o),
(120,87,cs),
(126,33,o),
(183,0,o),
(262,0,cs)
);
}
);
width = 253;
},
{
anchors = (
{
name = bottom;
pos = (174,-110);
},
{
name = bottom.dot;
pos = (174,-48);
},
{
name = top.far;
pos = (138,684);
},
{
name = top.near;
pos = (138,684);
}
);
layerId = "26E2967D-790C-4793-AF2A-2D0AD74EDC69";
shapes = (
{
closed = 1;
nodes = (
(302,9,o),
(305,12,o),
(305,17,cs),
(305,119,ls),
(305,124,o),
(303,127,o),
(299,127,cs),
(262,127,o),
(237,133,o),
(213,153,c),
(209,231,ls),
(201,381,o),
(200,530,o),
(195,680,c),
(154,661,o),
(114,639,o),
(76,614,c),
(86,537,o),
(116,222,o),
(124,159,cs),
(133,74,o),
(176,9,o),
(297,9,cs)
);
}
);
width = 288;
}
);
unicode = 65166;
},
{
glyphname = "alef-ar.fina.rlig";
layers = (
{
anchors = (
{
name = bottom;
pos = (152,-100);
},
{
name = top.far;
pos = (64,572);
},
{
name = top.near;
pos = (64,572);
}
);
layerId = master01;
shapes = (
{
closed = 1;
nodes = (
(157,0,o),
(246,1,o),
(270,2,cs),
(316,3,o),
(405,12,o),
(436,17,cs),
(447,19,o),
(466,69,o),
(466,84,cs),
(466,113,o),
(385,247,o),
(349,290,cs),
(304,344,o),
(237,407,o),
(177,458,cs),
(136,493,o),
(98,523,o),
(69,543,c),
(40,528,o),
(34,507,o),
(34,485,cs),
(34,455,o),
(59,424,o),
(83,402,c),
(120,404,l),
(183,368,o),
(247,316,o),
(301,260,cs),
(355,205,o),
(400,146,o),
(427,96,c),
(379,88,o),
(328,83,o),
(280,80,cs),
(232,77,o),
(187,76,o),
(149,76,cs),
(144,76,o),
(134,30,o),
(134,11,cs),
(134,6,o),
(135,2,o),
(137,0,c)
);
}
);
width = 0;
},
{
anchors = (
{
name = bottom;
pos = (152,-110);
},
{
name = top.far;
pos = (64,602);
},
{
name = top.near;
pos = (64,602);
}
);
layerId = "26E2967D-790C-4793-AF2A-2D0AD74EDC69";
shapes = (
{
closed = 1;
nodes = (
(166,0,o),
(257,2,o),
(282,3,cs),
(337,5,o),
(417,10,o),
(456,17,cs),
(465,20,o),
(496,100,o),
(496,119,cs),
(496,140,o),
(431,229,o),
(391,280,cs),
(344,340,o),
(258,426,o),
(191,486,cs),
(154,520,o),
(119,549,o),
(89,569,c),
(56,550,o),
(34,521,o),
(34,484,cs),
(34,441,o),
(58,412,o),
(93,395,c),
(130,397,l),
(200,354,o),
(251,316,o),
(296,275,cs),
(342,234,o),
(382,188,o),
(430,130,c),
(383,122,o),
(332,117,o),
(284,114,cs),
(236,111,o),
(190,110,o),
(153,110,cs),
(146,110,o),
(137,40,o),
(137,12,cs),
(137,5,o),
(138,0,o),
(140,0,cs)
);
}
);
width = 0;
}
);
},
{
glyphname = "alef-ar.fina.rlig.2";
layers = (
{
anchors = (
{
name = bottom;
pos = (166,-100);
},
{
name = top.far;
pos = (89,563);
},
{
name = top.near;
pos = (89,563);
}
);
layerId = master01;
shapes = (
{
closed = 1;
nodes = (
(333,116,l),
(323,145,o),
(294,225,o),
(284,252,cs),
(263,304,o),
(230,361,o),
(193,412,cs),
(156,463,o),
(114,507,o),
(72,534,c),
(52,525,o),
(34,508,o),
(34,480,cs),
(34,447,o),
(47,424,o),
(78,393,c),
(115,393,l),
(150,359,o),
(182,322,o),
(210,280,cs),
(247,228,o),
(278,168,o),
(308,100,c)
);
}
);
width = 0;
},
{
anchors = (
{
name = bottom;
pos = (166,-110);
},
{
name = top.far;
pos = (89,565);
},
{
name = top.near;
pos = (89,565);
}
);
layerId = "26E2967D-790C-4793-AF2A-2D0AD74EDC69";
shapes = (
{
closed = 1;
nodes = (
(354,125,l),
(337,179,o),
(315,237,o),
(297,279,cs),
(275,327,o),
(246,383,o),
(212,433,cs),
(179,484,o),
(140,529,o),
(99,556,c),
(56,543,o),
(34,523,o),
(34,480,cs),
(34,441,o),
(53,416,o),
(79,389,c),
(116,389,l),
(156,351,o),
(193,309,o),
(226,262,cs),
(259,215,o),
(288,163,o),
(314,102,c)
);
}
);
width = 0;
}
);
},
{
glyphname = "alef-ar.fina.small";
layers = (
{
layerId = master01;
shapes = (
{
closed = 1;
nodes = (
(267,0,o),
(270,3,o),
(270,8,cs),
(270,68,ls),
(270,73,o),
(267,76,o),
(261,76,cs),
(223,76,o),
(188,85,o),
(157,103,c),
(155,184,ls),
(153,351,o),
(150,465,o),
(147,526,c),
(117,519,o),
(94,510,o),
(78,498,c),
(96,301,ls),
(103,222,o),
(111,151,o),
(120,87,cs),
(127,33,o),
(183,0,o),
(261,0,cs)
);
}
);
width = 253;
},
{
layerId = "26E2967D-790C-4793-AF2A-2D0AD74EDC69";
shapes = (
{
closed = 1;
nodes = (
(259,9,o),
(262,12,o),
(262,17,cs),
(262,119,ls),
(262,125,o),
(259,127,o),
(253,127,cs),
(207,127,o),
(200,133,o),
(170,153,c),
(165,249,ls),
(160,349,o),
(157,486,o),
(155,588,c),
(115,569,o),
(78,551,o),
(43,528,c),
(60,369,l),
(67,274,o),
(76,185,o),
(87,125,cs),
(98,65,o),
(149,9,o),
(253,9,cs)
);
}
);
width = 245;
}
);
},
{
glyphname = "highhamzaAlef-ar.fina";
layers = (
{
anchors = (
{
name = bottom;
pos = (166,-100);
},
{
name = bottom.dot;
pos = (166,-48);
},
{
name = top.far;
pos = (123,750);
},
{
name = top.near;
pos = (123,750);
}
);
layerId = master01;
shapes = (
{
closed = 1;
nodes = (
(307,0,o),
(310,3,o),
(310,8,cs),
(310,68,ls),
(310,73,o),
(307,76,o),
(302,76,cs),
(264,76,o),
(189,85,o),
(158,102,c),
(156,169,ls),
(150,375,o),
(150,515,o),
(144,671,c),
(117,653,o),
(95,634,o),
(76,615,c),
(98,312,o),
(109,182,o),
(120,87,cs),
(126,33,o),
(223,0,o),
(302,0,cs)
);
},
{
alignment = -1;
pos = (190,34);
ref = "hamzaabove-ar";
}
);
width = 293;
},
{
anchors = (
{
name = bottom;
pos = (174,-110);
},
{
name = bottom.dot;
pos = (174,-48);
},
{
name = top.far;
pos = (146,750);
},
{
name = top.near;
pos = (146,750);
}
);
layerId = "26E2967D-790C-4793-AF2A-2D0AD74EDC69";
shapes = (
{
closed = 1;
nodes = (
(332,9,o),
(335,12,o),
(335,17,cs),
(335,119,ls),
(335,124,o),
(333,127,o),
(329,127,cs),
(292,127,o),
(237,133,o),
(213,153,c),
(210,231,ls),
(204,381,o),
(200,530,o),
(195,680,c),
(154,661,o),
(114,639,o),
(76,614,c),
(86,537,o),
(116,222,o),
(124,159,cs),
(133,74,o),
(206,9,o),
(327,9,cs)
);
},
{
alignment = -1;
pos = (237,57);
ref = "hamzaabove-ar";
}
);
width = 318;
}
);
},
{
glyphname = "behDotless-ar";
layers = (
{
anchors = (
{
name = bottom;
pos = (378,-100);
},
{
name = bottom.dot;
pos = (378,-31);
},
{
name = top.far;
pos = (365,468);
},
{
name = top.near;
pos = (365,277);
}
);
layerId = master01;
shapes = (
{
closed = 1;
nodes = (
(472,0,o),
(600,33,o),
(688,89,c),
(711,134,o),
(723,168,o),
(723,191,cs),
(723,239,o),
(707,309,o),
(686,408,c),
(643,384,o),
(620,352,o),
(620,324,cs),
(620,313,o),
(626,291,o),
(639,257,cs),
(656,211,o),
(668,175,o),
(675,147,c),
(583,103,o),
(459,76,o),
(335,76,cs),
(282,76,o),
(240,82,o),
(208,93,cs),
(144,115,o),
(116,153,o),
(116,231,cs),
(116,247,o),
(118,275,o),
(119,280,c),
(83,280,l),
(74,248,o),
(70,212,o),
(70,170,cs),
(70,56,o),
(157,0,o),
(314,0,cs)
);
}
);
width = 772;
},
{
anchors = (
{
name = bottom;
pos = (378,-110);
},
{
name = bottom.dot;
pos = (378,-38);
},
{
name = top.far;
pos = (365,498);
},
{
name = top.near;
pos = (365,307);
}
);
layerId = "26E2967D-790C-4793-AF2A-2D0AD74EDC69";
shapes = (
{
closed = 1;
nodes = (
(458,0,o),
(606,37,o),
(694,90,c),
(715,128,o),
(733,180,o),
(733,211,cs),
(733,234,o),
(723,293,o),
(692,443,c),
(642,418,o),
(601,374,o),
(601,342,cs),
(601,324,o),
(611,304,o),
(625,278,cs),
(637,256,o),
(661,212,o),
(675,182,c),
(583,141,o),
(467,119,o),
(351,119,cs),
(299,119,o),
(256,125,o),
(224,135,cs),
(160,157,o),
(131,195,o),
(131,273,cs),
(131,286,o),
(133,317,o),
(134,323,c),
(89,323,l),
(76,277,o),
(70,241,o),
(70,213,cs),
(70,75,o),
(153,0,o),
(314,0,cs)
);
}
);
width = 806;
}
);
unicode = 1646;
},
{
glyphname = "behDotless-ar.wide";
layers = (
{
anchors = (
{
name = bottom;
pos = (190,-100);
},
{
name = bottom.dot;
pos = (190,-31);
},
{
name = top.far;
pos = (199,398);
},
{
name = top.near;
pos = (199,267);
}
);
layerId = master01;
shapes = (
{
closed = 1;
nodes = (
(80,0,o),
(181,22,o),
(195,37,c),
(211,58,l),
(255,19,o),
(308,0,o),
(369,0,cs),
(375,0,o),
(377,3,o),
(377,8,cs),
(377,68,ls),
(377,73,o),
(375,76,o),
(369,76,cs),
(324,76,o),
(288,86,o),
(243,114,c),
(250,122,o),
(279,190,o),
(292,220,c),
(284,225,o),
(276,228,o),
(267,228,cs),
(252,228,o),
(242,222,o),
(236,211,cs),
(197,138,o),
(180,109,o),
(166,100,cs),
(142,83,o),
(83,76,o),
(0,76,cs),
(-6,76,o),
(-8,73,o),
(-8,68,cs),
(-8,8,ls),
(-8,3,o),
(-6,0,o),
(0,0,cs)
);
}
);
width = 360;
},
{
anchors = (
{
name = bottom;
pos = (200,-110);
},
{
name = bottom.dot;
pos = (198,-38);
},
{
name = top.far;
pos = (194,464);
},
{
name = top.near;
pos = (195,303);
}
);
background = {
anchors = (
{
name = bottom;
pos = (239,-110);
},
{
name = bottom.dot;
pos = (237,-38);
},
{
name = top;
pos = (222,464);
},
{
name = top.dot;
pos = (222,303);
}
);
shapes = (
{
closed = 1;
nodes = (
(137,9,o),
(184,26,o),
(203,45,cs),
(211,53,o),
(217,64,o),
(225,78,c),
(271,32,o),
(319,9,o),
(370,9,cs),
(375,9,o),
(378,12,o),
(378,17,cs),
(378,119,ls),
(378,125,o),
(375,127,o),
(370,127,cs),
(331,127,o),
(296,136,o),
(264,153,c),
(279,187,o),
(294,222,o),
(309,256,c),
(298,265,o),
(285,270,o),
(269,270,cs),
(247,270,o),
(234,266,o),
(213,223,cs),
(196,189,o),
(184,163,o),
(167,151,cs),
(145,135,o),
(112,127,o),
(69,127,cs),
(63,127,o),
(61,125,o),
(61,119,cs),
(61,17,ls),
(61,12,o),
(63,9,o),
(69,9,cs)
);
}
);
};
layerId = "26E2967D-790C-4793-AF2A-2D0AD74EDC69";
shapes = (
{
closed = 1;
nodes = (
(117,9,o),
(178,16,o),
(216,65,c),
(224,78,l),
(270,32,o),
(318,9,o),
(369,9,cs),
(375,9,o),
(377,12,o),
(377,17,cs),
(377,119,ls),
(377,125,o),
(375,127,o),
(369,127,cs),
(331,127,o),
(296,136,o),
(264,153,c),
(275,178,o),
(290,212,o),
(308,256,c),
(298,265,o),
(284,270,o),
(268,270,cs),
(246,270,o),
(233,266,o),
(212,222,cs),
(191,179,o),
(182,158,o),
(155,145,cs),
(120,127,o),
(64,127,o),
(0,127,cs),
(-6,127,o),
(-8,125,o),
(-8,119,cs),
(-8,17,ls),
(-8,12,o),
(-6,9,o),
(0,9,cs)
);
}
);
width = 360;
}
);
},
{
glyphname = "behDotless-ar.fina";
layers = (
{
anchors = (
{
name = bottom;
pos = (408,-100);
},
{
name = bottom.dot;
pos = (408,-31);
},
{
name = top.far;
pos = (375,468);
},
{
name = top.near;
pos = (375,277);
}
);
layerId = master01;
shapes = (
{
closed = 1;
nodes = (
(453,0,o),
(575,27,o),
(656,71,c),
(703,24,o),
(760,0,o),
(827,0,cs),
(833,0,o),
(835,3,o),
(835,8,cs),
(835,68,ls),
(835,73,o),
(833,76,o),
(827,76,cs),
(777,76,o),
(741,88,o),
(696,118,c),
(707,134,o),
(720,165,o),
(738,209,c),
(732,214,o),
(724,216,o),
(714,216,cs),
(699,216,o),
(689,211,o),
(683,201,cs),
(662,164,o),
(656,148,o),
(633,131,cs),
(599,107,o),
(447,76,o),
(335,76,cs),
(282,76,o),
(240,82,o),
(208,93,cs),
(144,115,o),
(116,153,o),
(116,231,cs),
(116,247,o),
(118,275,o),
(119,280,c),
(83,280,l),
(74,248,o),
(70,212,o),
(70,170,cs),
(70,56,o),
(157,0,o),
(314,0,cs)
);
}
);
width = 817;
},
{
anchors = (
{
name = bottom;
pos = (408,-110);
},
{
name = bottom.dot;
pos = (408,-38);
},
{
name = top.far;
pos = (375,498);
},
{
name = top.near;
pos = (385,307);
}
);
layerId = "26E2967D-790C-4793-AF2A-2D0AD74EDC69";
shapes = (
{
closed = 1;
nodes = (
(470,0,o),
(607,31,o),
(674,85,c),
(730,29,o),
(776,9,o),
(827,9,cs),
(833,9,o),
(835,12,o),
(835,17,cs),
(835,119,ls),
(835,125,o),
(833,127,o),
(827,127,cs),
(783,127,o),
(754,137,o),
(720,154,c),
(738,186,o),
(753,220,o),
(766,256,c),
(755,265,o),
(742,270,o),
(726,270,cs),
(705,270,o),
(691,264,o),
(672,224,cs),
(657,190,o),
(649,179,o),
(636,167,cs),
(599,138,o),
(491,119,o),
(351,119,cs),
(299,119,o),
(256,125,o),
(224,135,cs),
(160,157,o),
(131,195,o),
(131,273,cs),
(131,286,o),
(133,317,o),
(134,323,c),
(89,323,l),
(76,277,o),
(70,241,o),
(70,213,cs),
(70,71,o),
(151,0,o),
(314,0,cs)
);
}
);
width = 817;
}
);
},
{
glyphname = "behDotless-ar.medi";
layers = (
{
anchors = (
{
name = bottom;
pos = (160,-100);
},
{
name = bottom.dot;
pos = (160,-31);
},
{
name = top.far;
pos = (159,458);
},
{
name = top.near;
pos = (159,267);
}
);
layerId = master01;
shapes = (
{
closed = 1;
nodes = (
(55,0,o),
(113,20,o),
(126,37,cs),
(132,44,o),
(138,51,o),
(143,59,c),
(186,20,o),
(239,0,o),
(301,0,cs),
(306,0,o),
(309,3,o),
(309,8,cs),
(309,68,ls),
(309,73,o),
(306,76,o),
(301,76,cs),
(255,76,o),
(222,86,o),
(175,114,c),
(193,149,o),
(209,185,o),
(224,220,c),
(216,225,o),
(208,228,o),
(199,228,cs),
(185,228,o),
(174,222,o),
(168,211,cs),
(132,143,o),
(116,115,o),
(104,104,cs),
(84,86,o),
(49,76,o),
(0,76,cs),
(-6,76,o),
(-8,73,o),
(-8,68,cs),
(-8,8,ls),
(-8,3,o),
(-6,0,o),
(0,0,cs)
);
}
);
width = 292;
},
{
anchors = (
{
name = bottom;
pos = (170,-110);
},
{
name = bottom.dot;
pos = (168,-38);
},
{
name = top.far;
pos = (153,514);
},
{
name = top.near;
pos = (153,303);
}
);
background = {
anchors = (
{
name = bottom;
pos = (170,-110);
},
{
name = bottom.dot;
pos = (168,-58);
},
{
name = top;
pos = (143,471);
},
{
name = top.dot;
pos = (143,343);
}
);
};
layerId = "26E2967D-790C-4793-AF2A-2D0AD74EDC69";
shapes = (
{
closed = 1;
nodes = (
(68,9,o),
(116,25,o),
(134,45,cs),
(141,54,o),
(148,64,o),
(156,78,c),
(202,32,o),
(250,9,o),
(301,9,cs),
(306,9,o),
(309,12,o),
(309,17,cs),
(309,119,ls),
(309,125,o),
(306,127,o),
(301,127,cs),
(262,127,o),
(227,136,o),
(195,153,c),
(210,187,o),
(225,222,o),
(240,256,c),
(229,265,o),
(216,270,o),
(200,270,cs),
(178,270,o),
(165,266,o),
(144,223,cs),
(127,189,o),
(115,163,o),
(98,151,cs),
(76,135,o),
(43,127,o),
(0,127,cs),
(-6,127,o),
(-8,125,o),
(-8,119,cs),
(-8,17,ls),
(-8,12,o),
(-6,9,o),
(0,9,cs)
);
}
);
width = 292;
}
);
},
{
glyphname = "behDotless-ar.init";
layers = (
{
anchors = (
{
name = bottom;
pos = (140,-100);
},
{
name = bottom.dot;
pos = (140,-31);
},
{
name = top.far;
pos = (149,568);
},
{
name = top.near;
pos = (139,387);
}
);
layerId = master01;
shapes = (
{
closed = 1;
nodes = (
(65,0,o),
(128,18,o),
(189,55,c),
(212,97,o),
(225,137,o),
(225,157,cs),
(225,181,o),
(220,215,o),
(210,259,cs),
(198,317,o),
(190,355,o),
(187,374,c),
(147,352,o),
(122,319,o),
(122,290,cs),
(122,279,o),
(128,257,o),
(141,223,cs),
(156,180,o),
(168,144,o),
(177,113,c),
(129,91,o),
(61,76,o),
(0,76,cs),
(-6,76,o),
(-8,73,o),
(-8,68,cs),
(-8,8,ls),
(-8,3,o),
(-6,0,o),
(0,0,cs)
);
}
);
width = 275;
},
{
anchors = (
{
name = bottom;
pos = (143,-110);
},
{
name = bottom.dot;
pos = (141,-38);
},
{
name = top.far;
pos = (153,616);
},
{
name = top.near;
pos = (143,423);
}
);
layerId = "26E2967D-790C-4793-AF2A-2D0AD74EDC69";
shapes = (
{
closed = 1;
nodes = (
(71,9,o),
(137,27,o),
(198,64,c),
(219,105,o),
(237,154,o),
(237,185,cs),
(237,198,o),
(234,225,o),
(226,266,cs),
(216,320,o),
(204,375,o),
(195,417,c),
(146,392,o),
(104,348,o),
(104,315,cs),
(104,298,o),
(114,277,o),
(128,252,cs),
(140,230,o),
(165,187,o),
(178,156,c),
(141,140,o),
(66,127,o),
(0,127,cs),
(-6,127,o),
(-8,125,o),
(-8,119,cs),
(-8,17,ls),
(-8,12,o),
(-6,9,o),
(0,9,cs)
);
}
);
width = 275;
}
);
},
{
glyphname = "behDotless-ar.init.wide";
layers = (
{
anchors = (
{
name = bottom;
pos = (167,-100);
},
{
name = bottom.dot;
pos = (167,-31);
},
{
name = top.far;
pos = (195,518);
},
{
name = top.near;
pos = (195,387);
}
);
layerId = master01;
shapes = (
{
closed = 1;
nodes = (
(96,0,o),
(203,22,o),
(258,55,c),
(281,100,o),
(292,134,o),
(292,157,cs),
(292,216,o),
(281,257,o),
(255,374,c),
(215,352,o),
(189,319,o),
(189,290,cs),
(189,279,o),
(196,257,o),
(208,223,cs),
(226,176,o),
(238,139,o),
(245,113,c),
(198,91,o),
(98,76,o),
(0,76,cs),
(-6,76,o),
(-8,73,o),
(-8,68,cs),
(-8,8,ls),
(-8,3,o),
(-6,0,o),
(0,0,cs)
);
}
);
width = 343;
},
{
anchors = (
{
name = bottom;
pos = (173,-110);
},
{
name = bottom.dot;
pos = (171,-38);
},
{
name = top.far;
pos = (213,564);
},
{
name = top.near;
pos = (213,423);
}
);
layerId = "26E2967D-790C-4793-AF2A-2D0AD74EDC69";
shapes = (
{
closed = 1;
nodes = (
(100,9,o),
(211,31,o),
(266,64,c),
(288,106,o),
(305,154,o),
(305,185,cs),
(305,215,o),
(293,267,o),
(264,417,c),
(214,392,o),
(173,347,o),
(173,315,cs),
(173,298,o),
(183,277,o),
(197,252,cs),
(208,230,o),
(233,187,o),
(247,156,c),
(209,139,o),
(105,127,o),
(0,127,cs),
(-6,127,o),
(-8,125,o),
(-8,119,cs),
(-8,17,ls),
(-8,12,o),
(-6,9,o),
(0,9,cs)
);
}
);
width = 343;
}
);
},
{
glyphname = "hah-ar";
layers = (
{
anchors = (
{
name = bottom;
pos = (346,-336);
},
{
name = center;
pos = (375,-6);
},
{
name = top.far;
pos = (342,591);
},
{
name = top.near;
pos = (342,390);
}
);
background = {
anchors = (
{
name = top;
pos = (342,480);
}
);
};
layerId = master01;
shapes = (
{
closed = 1;
nodes = (
(438,-287,o),
(521,-264,o),
(619,-210,c),
(607,-177,l),
(527,-195,o),
(445,-205,o),
(363,-205,cs),
(210,-205,o),
(136,-147,o),
(136,-42,cs),
(136,24,o),
(178,87,o),
(251,138,cs),
(324,189,o),
(429,226,o),
(512,232,c),
(530,232,o),
(549,233,o),
(568,236,c),
(597,313,l),
(531,311,ls),
(469,311,o),
(413,329,o),
(357,346,cs),
(301,363,o),
(246,381,o),
(189,381,cs),
(117,381,o),
(68,347,o),
(68,297,cs),
(68,281,o),
(75,266,o),
(83,259,c),
(131,289,o),
(152,297,o),
(192,297,cs),
(235,297,o),
(309,270,o),
(333,261,c),
(291,245,o),
(252,221,o),
(216,190,cs),
(144,127,o),
(101,41,o),
(101,-42,cs),
(101,-201,o),
(195,-287,o),
(360,-287,cs)
);
}
);
width = 636;
},
{
anchors = (
{
name = bottom;
pos = (373,-337);
},
{
name = center;
pos = (385,-1);
},
{
name = top.far;
pos = (342,596);
},
{
name = top.near;
pos = (342,413);
}
);
layerId = "26E2967D-790C-4793-AF2A-2D0AD74EDC69";
shapes = (
{
closed = 1;
nodes = (
(415,-288,o),
(520,-247,o),
(630,-184,c),
(616,-142,l),
(523,-163,o),
(443,-173,o),
(375,-173,cs),
(247,-173,o),
(156,-119,o),
(156,-29,cs),
(156,27,o),
(190,81,o),
(249,128,cs),
(308,175,o),
(397,213,o),
(464,224,c),
(497,221,o),
(559,222,o),
(585,226,c),
(626,338,l),
(535,336,ls),
(484,336,o),
(433,347,o),
(361,374,cs),
(287,400,o),
(245,410,o),
(201,410,cs),
(119,410,o),
(68,372,o),
(68,312,cs),
(68,290,o),
(79,264,o),
(91,252,c),
(138,281,o),
(160,291,o),
(199,291,cs),
(236,291,o),
(272,277,o),
(318,260,c),
(277,240,o),
(242,215,o),
(212,187,cs),
(143,124,o),
(105,42,o),
(105,-44,cs),
(105,-197,o),
(204,-288,o),
(373,-288,cs)
);
}
);
width = 655;
}
);
unicode = (1581,65185);
},
{
glyphname = "hah-ar.fina";
layers = (
{
anchors = (
{
name = bottom;
pos = (321,-334);
},
{
name = center;
pos = (335,-36);
},
{
name = top.far;
pos = (342,561);
},
{
name = top.near;
pos = (342,360);
}
);
layerId = master01;
shapes = (
{
closed = 1;
nodes = (
(399,-286,o),
(483,-258,o),
(572,-203,c),
(558,-170,l),
(474,-194,o),
(403,-206,o),
(346,-206,cs),
(212,-206,o),
(136,-153,o),
(136,-60,cs),
(136,-29,o),
(146,0,o),
(163,27,cs),
(206,93,o),
(296,146,o),
(417,174,c),
(429,130,o),
(445,95,o),
(465,70,cs),
(503,21,o),
(556,0,o),
(675,0,cs),
(680,0,o),
(683,3,o),
(683,8,cs),
(683,68,ls),
(683,73,o),
(680,76,o),
(675,76,cs),
(620,76,o),
(581,78,o),
(552,84,cs),
(499,96,o),
(488,111,o),
(457,181,c),
(475,184,o),
(491,185,o),
(509,185,cs),
(529,186,o),
(549,187,o),
(568,189,c),
(597,266,l),
(531,264,ls),
(477,264,o),
(414,280,o),
(345,312,cs),
(266,347,o),
(227,359,o),
(189,359,cs),
(117,359,o),
(68,326,o),
(68,276,cs),
(68,260,o),
(73,247,o),
(83,237,c),
(131,268,o),
(151,276,o),
(192,276,cs),
(207,276,o),
(224,273,o),
(243,266,cs),
(266,258,o),
(297,245,o),
(353,220,c),
(291,199,o),
(238,167,o),
(197,130,cs),
(135,74,o),
(100,3,o),
(100,-71,cs),
(100,-200,o),
(187,-286,o),
(321,-286,cs)
);
}
);
width = 666;
},
{
anchors = (
{
name = bottom;
pos = (340,-340);
},
{
name = center;
pos = (365,-20);
},
{
name = top.far;
pos = (342,596);
},
{
name = top.near;
pos = (342,373);
}
);
layerId = "26E2967D-790C-4793-AF2A-2D0AD74EDC69";
shapes = (
{
closed = 1;
nodes = (
(405,-291,o),
(453,-266,o),
(581,-192,c),
(567,-149,l),
(487,-167,o),
(424,-176,o),
(375,-176,cs),
(234,-176,o),
(156,-130,o),
(156,-39,cs),
(156,-5,o),
(169,27,o),
(194,58,cs),
(245,119,o),
(346,167,o),
(451,187,c),
(468,134,o),
(486,97,o),
(506,73,cs),
(546,26,o),
(604,9,o),
(732,9,cs),
(738,9,o),
(741,12,o),
(741,17,cs),
(741,119,ls),
(741,125,o),
(738,127,o),
(732,127,cs),
(660,127,o),
(613,128,o),
(592,131,cs),
(542,136,o),
(528,146,o),
(505,184,c),
(515,184,o),
(525,184,o),
(535,184,cs),
(545,184,o),
(569,185,o),
(585,187,c),
(626,299,l),
(535,298,ls),
(484,298,o),
(433,308,o),
(361,335,cs),
(287,362,o),
(245,372,o),
(201,372,cs),
(118,372,o),
(68,333,o),
(68,273,cs),
(68,252,o),
(79,225,o),
(91,213,c),
(146,247,o),
(169,252,o),
(205,252,cs),
(223,252,o),
(242,249,o),
(262,242,cs),
(281,235,o),
(299,229,o),
(318,222,c),
(278,206,o),
(242,184,o),
(209,157,cs),
(144,102,o),
(105,32,o),
(105,-49,cs),
(105,-206,o),
(194,-291,o),
(370,-291,cs)
);
}
);
width = 724;
}
);
unicode = 65186;
},
{
glyphname = "hah-ar.medi";
layers = (
{
anchors = (
{
name = bottom;
pos = (313,-100);
},
{
name = bottom.dot;
pos = (353,-8);
},
{
name = top.far;
pos = (299,576);
},
{
name = top.near;
pos = (298,365);
}
);
layerId = master01;
shapes = (
{
closed = 1;
nodes = (
(165,0,o),
(220,13,o),
(319,64,cs),
(355,83,o),
(391,106,o),
(427,119,c),
(443,85,o),
(461,61,o),
(480,45,cs),
(518,14,o),
(575,1,o),
(674,0,cs),
(680,0,o),
(683,3,o),
(683,8,cs),
(683,68,ls),
(683,73,o),
(680,76,o),
(674,76,cs),
(600,76,o),
(552,79,o),
(528,85,cs),
(501,92,o),
(486,106,o),
(472,130,c),
(495,127,o),
(547,123,o),
(563,122,c),
(602,196,l),
(553,196,o),
(516,199,o),
(491,205,cs),
(442,216,o),
(398,238,o),
(329,285,cs),
(271,325,o),
(232,340,o),
(189,340,cs),
(117,340,o),
(69,306,o),
(69,256,cs),
(69,240,o),
(74,227,o),
(83,217,c),
(132,248,o),
(152,256,o),
(193,256,cs),
(227,256,o),
(258,242,o),
(310,204,cs),
(335,185,o),
(361,170,o),
(387,158,c),
(363,153,o),
(330,141,o),
(287,122,cs),
(213,89,o),
(125,76,o),
(0,76,cs),
(-6,76,o),
(-8,73,o),
(-8,68,cs),
(-8,8,ls),
(-8,3,o),
(-6,0,o),
(0,0,cs)
);
}
);
width = 666;
},
{
anchors = (
{
name = bottom;
pos = (313,-110);
},
{
name = bottom.dot;
pos = (343,12);
},
{
name = top.far;
pos = (299,596);
},
{
name = top.near;
pos = (298,395);
}
);
background = {
anchors = (
{
name = bottom;
pos = (313,-111);
},
{
name = bottom.dot;
pos = (313,42);
},
{
name = top;
pos = (299,541);
},
{
name = top.dot;
pos = (298,435);
}
);
};
layerId = "26E2967D-790C-4793-AF2A-2D0AD74EDC69";
shapes = (
{
closed = 1;
nodes = (
(137,9,o),
(215,9,o),
(311,73,cs),
(371,113,o),
(391,129,o),
(429,137,c),
(437,104,o),
(445,61,o),
(472,41,cs),
(502,20,o),
(594,9,o),
(666,9,cs),
(671,9,o),
(674,12,o),
(674,17,cs),
(674,119,ls),
(674,125,o),
(671,127,o),
(666,127,cs),
(636,128,o),
(602,129,o),
(572,130,cs),
(552,132,o),
(536,136,o),
(523,148,c),
(539,147,o),
(555,147,o),
(571,146,c),
(615,230,l),
(566,230,o),
(524,235,o),
(490,243,cs),
(421,261,o),
(377,284,o),
(317,325,cs),
(268,358,o),
(232,372,o),
(189,372,cs),
(110,372,o),
(52,331,o),
(52,273,cs),
(52,252,o),
(63,225,o),
(75,213,c),
(120,242,o),
(153,252,o),
(193,252,cs),
(222,252,o),
(247,241,o),
(290,213,cs),
(308,201,o),
(326,189,o),
(344,179,c),
(321,174,o),
(280,163,o),
(223,146,cs),
(159,127,o),
(97,127,o),
(0,127,cs),
(-6,127,o),
(-8,125,o),
(-8,119,cs),
(-8,17,ls),
(-8,12,o),
(-6,9,o),
(0,9,cs)
);
}
);
width = 657;
}
);
unicode = 65188;
},
{
glyphname = "hah-ar.init";
layers = (
{
anchors = (
{
name = bottom;
pos = (313,-100);
},
{
name = bottom.dot;
pos = (353,-8);
},
{
name = top.far;
pos = (299,576);
},
{
name = top.near;
pos = (298,365);
}
);
layerId = master01;
shapes = (
{
closed = 1;
nodes = (
(165,0,o),
(220,13,o),
(319,64,cs),
(408,110,o),
(437,119,o),
(483,119,cs),
(514,119,o),
(541,116,o),
(563,114,c),
(602,187,l),
(554,187,o),
(517,190,o),
(492,196,cs),
(442,207,o),
(399,230,o),
(329,281,cs),
(272,323,o),
(232,340,o),
(189,340,cs),
(117,340,o),
(69,306,o),
(69,256,cs),
(69,240,o),
(74,227,o),
(83,217,c),
(132,248,o),
(152,256,o),
(193,256,cs),
(228,256,o),
(256,242,o),
(310,200,cs),
(335,180,o),
(361,163,o),
(387,150,c),
(355,144,o),
(320,133,o),
(231,102,cs),
(175,84,o),
(98,76,o),
(0,76,cs),
(-6,76,o),
(-8,73,o),
(-8,68,cs),
(-8,8,ls),
(-8,3,o),
(-6,0,o),
(0,0,cs)
);
}
);
width = 636;
},
{
anchors = (
{
name = bottom;
pos = (313,-110);
},
{
name = bottom.dot;
pos = (353,12);
},
{
name = top.far;
pos = (299,596);
},
{
name = top.near;
pos = (298,395);
}
);
layerId = "26E2967D-790C-4793-AF2A-2D0AD74EDC69";
shapes = (
{
closed = 1;
nodes = (
(149,9,o),
(208,11,o),
(311,73,cs),
(360,101,o),
(416,125,o),
(463,129,cs),
(500,132,o),
(522,128,o),
(563,124,c),
(615,230,l),
(566,230,o),
(524,235,o),
(490,243,cs),
(421,261,o),
(377,284,o),
(317,325,cs),
(268,358,o),
(232,372,o),
(189,372,cs),
(110,372,o),
(52,331,o),
(52,273,cs),
(52,252,o),
(63,225,o),
(75,213,c),
(120,242,o),
(153,252,o),
(193,252,cs),
(222,252,o),
(247,242,o),
(290,213,cs),
(307,201,o),
(325,190,o),
(344,179,c),
(321,174,o),
(280,163,o),
(223,146,cs),
(159,127,o),
(97,127,o),
(0,127,cs),
(-6,127,o),
(-8,125,o),
(-8,119,cs),
(-8,17,ls),
(-8,12,o),
(-6,9,o),
(0,9,cs)
);
}
);
width = 649;
}
);
unicode = 65187;
},
{
glyphname = "dal-ar";
layers = (
{
anchors = (
{
name = bottom;
pos = (208,-100);
},
{
name = bottom.dot;
pos = (209,-21);
},
{
name = top.far;
pos = (219,587);
},
{
name = top.near;
pos = (220,406);
}
);
layerId = master01;
shapes = (
{
closed = 1;
nodes = (
(228,0,o),
(288,13,o),
(336,39,c),
(359,81,o),
(372,121,o),
(372,141,cs),
(372,171,o),
(357,208,o),
(337,251,cs),
(321,288,o),
(290,354,o),
(273,398,c),
(238,387,o),
(221,365,o),
(221,332,cs),
(221,299,o),
(229,284,o),
(282,188,cs),
(299,157,o),
(313,126,o),
(324,97,c),
(278,83,o),
(232,76,o),
(188,76,cs),
(125,76,o),
(85,89,o),
(52,116,c),
(40,103,o),
(34,85,o),
(34,63,cs),
(34,23,o),
(75,0,o),
(156,0,cs)
);
}
);
width = 414;
},
{
anchors = (
{
name = bottom;
pos = (214,-100);
},
{
name = bottom.dot;
pos = (215,-18);
},
{
name = top.far;
pos = (229,637);
},
{
name = top.near;
pos = (229,456);
}
);
layerId = "26E2967D-790C-4793-AF2A-2D0AD74EDC69";
shapes = (
{
closed = 1;
nodes = (
(238,0,o),
(309,15,o),
(357,39,c),
(373,70,o),
(392,131,o),
(392,149,cs),
(392,185,o),
(377,229,o),
(358,280,cs),
(341,324,o),
(312,398,o),
(297,450,c),
(253,437,o),
(213,393,o),
(213,350,cs),
(213,324,o),
(239,283,o),
(277,229,cs),
(292,208,o),
(309,178,o),
(331,140,c),
(287,126,o),
(243,119,o),
(200,119,cs),
(137,119,o),
(97,132,o),
(64,159,c),
(47,141,o),
(34,106,o),
(34,78,cs),
(34,26,o),
(79,0,o),
(168,0,cs)
);
}
);
width = 435;
}
);
unicode = (1583,65193);
},
{
glyphname = "dal-ar.fina";
layers = (
{
anchors = (
{
name = bottom;
pos = (214,-100);
},
{
name = bottom.dot;
pos = (215,-21);
},
{
name = top.far;
pos = (226,587);
},
{
name = top.near;
pos = (227,406);
}
);
layerId = master01;
shapes = (
{
closed = 1;
nodes = (
(229,0,o),
(297,17,o),
(358,52,c),
(389,19,o),
(428,0,o),
(482,0,cs),
(488,0,o),
(491,3,o),
(491,8,cs),
(491,68,ls),
(491,73,o),
(488,76,o),
(482,76,cs),
(445,76,o),
(419,89,o),
(392,128,cs),
(346,192,o),
(320,284,o),
(289,398,c),
(253,387,o),
(236,365,o),
(236,332,cs),
(236,295,o),
(275,186,o),
(326,97,c),
(276,83,o),
(230,76,o),
(188,76,cs),
(125,76,o),
(85,89,o),
(52,116,c),
(40,103,o),
(34,85,o),
(34,63,cs),
(34,23,o),
(75,0,o),
(156,0,cs)
);
}
);
width = 474;
},
{
anchors = (
{
name = bottom;
pos = (236,-100);
},
{
name = bottom.dot;
pos = (237,-18);
},
{
name = top.far;
pos = (229,637);
},
{
name = top.near;
pos = (226,456);
}
);
layerId = "26E2967D-790C-4793-AF2A-2D0AD74EDC69";
shapes = (
{
closed = 1;
nodes = (
(234,0,o),
(303,18,o),
(377,55,c),
(408,24,o),
(447,9,o),
(494,9,cs),
(499,9,o),
(502,12,o),
(502,17,cs),
(502,119,ls),
(502,125,o),
(499,127,o),
(494,127,cs),
(440,127,o),
(414,144,o),
(389,195,cs),
(358,257,o),
(330,342,o),
(304,450,c),
(258,436,o),
(234,399,o),
(234,351,cs),
(234,312,o),
(268,223,o),
(320,133,c),
(279,124,o),
(239,119,o),
(200,119,cs),
(137,119,o),
(97,132,o),
(64,159,c),
(47,141,o),
(34,106,o),
(34,78,cs),
(34,26,o),
(79,0,o),
(168,0,cs)
);
}
);
width = 485;
}
);
unicode = 65194;
},
{
glyphname = "reh-ar";
layers = (
{
anchors = (
{
name = bottom;
pos = (116,-258);
},
{
name = bottom.dot;
pos = (116,-212);
},
{
name = center;
pos = (185,81);
},
{
name = top.far;
pos = (201,538);
},
{
name = top.near;
pos = (205,345);
}
);
layerId = master01;
shapes = (
{
closed = 1;
nodes = (
(152,-204,o),
(190,-192,o),
(225,-167,cs),
(293,-118,o),
(335,-23,o),
(335,81,cs),
(335,118,o),
(321,165,o),
(304,212,cs),
(290,251,o),
(267,309,o),
(259,341,c),
(222,323,o),
(201,305,o),
(201,271,cs),
(201,238,o),
(221,193,o),
(267,112,cs),
(279,91,o),
(289,70,o),
(298,49,c),
(260,-65,o),
(188,-126,o),
(88,-126,cs),
(61,-126,o),
(30,-122,o),
(-7,-115,c),
(-20,-148,l),
(12,-173,o),
(79,-204,o),
(111,-204,cs)
);
}
);
width = 386;
},
{
anchors = (
{
name = bottom;
pos = (102,-258);
},
{
name = bottom.dot;
pos = (102,-208);
},
{
name = center;
pos = (171,81);
},
{
name = top.far;
pos = (199,592);
},
{
name = top.near;
pos = (203,389);
}
);
layerId = "26E2967D-790C-4793-AF2A-2D0AD74EDC69";
shapes = (
{
closed = 1;
nodes = (
(146,-195,o),
(186,-183,o),
(222,-158,cs),
(293,-108,o),
(335,-15,o),
(335,89,cs),
(335,132,o),
(322,180,o),
(305,230,cs),
(291,271,o),
(267,341,o),
(256,383,c),
(207,358,o),
(173,317,o),
(173,278,cs),
(173,235,o),
(209,179,o),
(248,119,cs),
(261,99,o),
(272,78,o),
(282,58,c),
(251,-35,o),
(182,-86,o),
(83,-86,cs),
(52,-86,o),
(18,-81,o),
(-18,-72,c),
(-34,-114,l),
(24,-163,o),
(79,-195,o),
(102,-195,cs)
);
}
);
width = 377;
}
);
unicode = (1585,65197);
},
{
glyphname = "reh-ar.fina";
layers = (
{
anchors = (
{
name = bottom;
pos = (116,-258);
},
{
name = bottom.dot;
pos = (116,-212);
},
{
name = center;
pos = (185,81);
},
{
name = top.far;
pos = (201,538);
},
{
name = top.near;
pos = (205,345);
}
);
layerId = master01;
shapes = (
{
closed = 1;
nodes = (
(221,-204,o),
(309,-115,o),
(331,24,c),
(354,8,o),
(382,0,o),
(413,0,cs),
(418,0,o),
(421,3,o),
(421,8,cs),
(421,68,ls),
(421,73,o),
(418,76,o),
(413,76,cs),
(383,76,o),
(357,83,o),
(335,96,c),
(333,113,o),
(329,134,o),
(321,159,cs),
(314,184,o),
(300,225,o),
(279,280,cs),
(270,302,o),
(264,323,o),
(259,341,c),
(222,323,o),
(201,305,o),
(201,271,cs),
(201,238,o),
(221,193,o),
(267,112,cs),
(279,91,o),
(289,70,o),
(298,49,c),
(260,-65,o),
(188,-126,o),
(88,-126,cs),
(61,-126,o),
(30,-122,o),
(-7,-115,c),
(-20,-148,l),
(12,-173,o),
(79,-204,o),
(111,-204,cs)
);
}
);
width = 404;
},
{
anchors = (
{
name = bottom;
pos = (102,-258);
},
{
name = bottom.dot;
pos = (102,-208);
},
{
name = center;
pos = (171,81);
},
{
name = top.far;
pos = (199,592);
},
{
name = top.near;
pos = (203,389);
}
);
layerId = "26E2967D-790C-4793-AF2A-2D0AD74EDC69";
shapes = (
{
closed = 1;
nodes = (
(217,-195,o),
(308,-105,o),
(330,28,c),
(355,15,o),
(380,9,o),
(404,9,cs),
(409,9,o),
(412,12,o),
(412,17,cs),
(412,119,ls),
(412,125,o),
(409,127,o),
(404,127,cs),
(377,127,o),
(352,133,o),
(329,146,c),
(325,169,o),
(308,222,o),
(279,306,cs),
(270,332,o),
(263,357,o),
(256,383,c),
(207,358,o),
(173,317,o),
(173,278,cs),
(173,262,o),
(178,243,o),
(188,221,cs),
(198,199,o),
(218,165,o),
(248,119,cs),
(261,99,o),
(272,78,o),
(282,58,c),
(251,-35,o),
(182,-86,o),
(83,-86,cs),
(52,-86,o),
(18,-81,o),
(-18,-72,c),
(-34,-114,l),
(24,-163,o),
(79,-195,o),
(102,-195,cs)
);
}
);
width = 395;
}
);
unicode = 65198;
},
{
glyphname = "rehStroke-ar.fina";
layers = (
{
anchors = (
{
name = bottom;
pos = (116,-258);
},
{
name = top.far;
pos = (201,538);
},
{
name = top.near;
pos = (201,538);
}
);
layerId = master01;
shapes = (
{
closed = 1;
nodes = (
(221,-204,o),
(309,-115,o),
(331,24,c),
(354,8,o),
(382,0,o),
(413,0,cs),
(418,0,o),
(421,3,o),
(421,8,cs),
(421,68,ls),
(421,73,o),
(418,76,o),
(413,76,cs),
(383,76,o),
(357,83,o),
(335,96,c),
(330,142,o),
(306,210,o),
(279,280,cs),
(270,302,o),
(264,323,o),
(259,341,c),
(222,323,o),
(201,305,o),
(201,271,cs),
(201,238,o),
(221,193,o),
(267,112,cs),
(279,91,o),
(289,70,o),
(298,49,c),
(292,31,o),
(285,15,o),
(277,-1,c),
(102,-1,l),
(102,-49,l),
(247,-49,l),
(210,-98,o),
(154,-126,o),
(88,-126,cs),
(61,-126,o),
(30,-122,o),
(-7,-115,c),
(-20,-148,l),
(12,-173,o),
(79,-204,o),
(111,-204,cs)
);
}
);
width = 404;
},
{
anchors = (
{
name = bottom;
pos = (104,-258);
},
{
name = top.far;
pos = (199,592);
},
{
name = top.near;
pos = (199,592);
}
);
layerId = "26E2967D-790C-4793-AF2A-2D0AD74EDC69";
shapes = (
{
closed = 1;
nodes = (
(217,-195,o),
(308,-105,o),
(330,28,c),
(355,15,o),
(380,9,o),
(404,9,cs),
(409,9,o),
(412,12,o),
(412,17,cs),
(412,119,ls),
(412,125,o),
(409,127,o),
(404,127,cs),
(377,127,o),
(352,133,o),
(329,146,c),
(325,169,o),
(308,222,o),
(279,306,cs),
(270,332,o),
(263,357,o),
(256,383,c),
(207,358,o),
(173,317,o),
(173,278,cs),
(173,236,o),
(208,180,o),
(248,119,cs),
(261,99,o),
(272,78,o),
(282,58,c),
(277,43,o),
(271,29,o),
(265,17,c),
(71,17,l),
(71,-31,l),
(229,-31,l),
(190,-68,o),
(142,-86,o),
(83,-86,cs),
(52,-86,o),
(18,-81,o),
(-18,-72,c),
(-34,-114,l),
(24,-163,o),
(79,-195,o),
(102,-195,cs)
);
}
);
width = 395;
}
);
},
{
glyphname = "rehLoop-ar";
layers = (
{
anchors = (
{
name = bottom;
pos = (182,-258);
},
{
name = top.far;
pos = (267,538);
},
{
name = top.near;
pos = (267,538);
}
);
layerId = master01;
shapes = (
{
closed = 1;
nodes = (
(427,-215,l),
(397,-175,o),
(366,-131,o),
(330,-91,c),
(358,-42,o),
(373,17,o),
(373,81,cs),
(373,118,o),
(359,165,o),
(342,212,cs),
(328,250,o),
(305,309,o),
(296,341,c),
(259,323,o),
(238,305,o),
(238,271,cs),
(238,241,o),
(253,210,o),
(266,184,cs),
(279,159,o),
(298,125,o),
(305,112,cs),
(315,94,o),
(324,78,o),
(335,49,c),
(323,12,o),
(307,-21,o),
(286,-48,c),
(239,-8,o),
(187,20,o),
(127,20,cs),
(68,20,o),
(5,-20,o),
(5,-84,cs),
(5,-152,o),
(79,-204,o),
(148,-204,cs),
(208,-204,o),
(257,-179,o),
(296,-137,c),
(314,-154,o),
(333,-171,o),
(350,-189,cs),
(368,-207,o),
(385,-224,o),
(402,-240,c)
);
},
{
closed = 1;
nodes = (
(98,-126,o),
(62,-110,o),
(41,-87,c),
(67,-67,o),
(96,-55,o),
(131,-55,cs),
(168,-55,o),
(204,-70,o),
(239,-93,c),
(208,-114,o),
(170,-126,o),
(125,-126,cs)
);
}
);
width = 424;
},
{
anchors = (
{
name = bottom;
pos = (202,-258);
},
{
name = top.far;
pos = (299,592);
},
{
name = top.near;
pos = (299,592);
}
);
layerId = "26E2967D-790C-4793-AF2A-2D0AD74EDC69";
shapes = (
{
closed = 1;
nodes = (
(468,-200,l),
(442,-161,o),
(413,-117,o),
(379,-76,c),
(403,-26,o),
(416,31,o),
(416,89,cs),
(416,132,o),
(403,180,o),
(386,230,cs),
(372,271,o),
(348,341,o),
(337,383,c),
(299,364,o),
(254,323,o),
(254,278,cs),
(254,247,o),
(270,216,o),
(284,190,cs),
(314,138,o),
(343,99,o),
(363,58,c),
(354,28,o),
(341,3,o),
(326,-20,c),
(279,23,o),
(225,54,o),
(162,54,cs),
(85,54,o),
(20,1,o),
(20,-71,cs),
(20,-112,o),
(40,-148,o),
(70,-174,cs),
(100,-199,o),
(141,-215,o),
(183,-215,cs),
(247,-215,o),
(300,-184,o),
(339,-137,c),
(357,-152,o),
(373,-168,o),
(389,-185,cs),
(406,-201,o),
(421,-216,o),
(437,-231,c)
);
},
{
closed = 1;
nodes = (
(137,-105,o),
(106,-97,o),
(76,-78,c),
(102,-58,o),
(128,-46,o),
(166,-46,cs),
(199,-46,o),
(232,-59,o),
(264,-78,c),
(234,-96,o),
(200,-105,o),
(165,-105,cs)
);
}
);
width = 458;
}
);
unicode = 2218;
},
{
glyphname = "rehLoop-ar.fina";
layers = (
{
anchors = (
{
name = bottom;
pos = (182,-258);
},
{
name = top.far;
pos = (267,538);
},
{
name = top.near;
pos = (267,538);
}
);
layerId = master01;
shapes = (
{
closed = 1;
nodes = (
(427,-215,l),
(394,-169,o),
(351,-113,o),
(330,-92,c),
(349,-57,o),
(362,-18,o),
(369,24,c),
(393,8,o),
(420,0,o),
(451,0,cs),
(456,0,o),
(459,3,o),
(459,8,cs),
(459,68,ls),
(459,73,o),
(456,76,o),
(451,76,cs),
(423,76,o),
(397,83,o),
(373,96,c),
(370,127,o),
(356,173,o),
(342,212,cs),
(328,250,o),
(305,309,o),
(296,341,c),
(259,323,o),
(238,305,o),
(238,271,cs),
(238,238,o),
(261,189,o),
(289,141,cs),
(310,103,o),
(326,73,o),
(335,49,c),
(323,10,o),
(306,-22,o),
(286,-48,c),
(272,-37,o),
(258,-26,o),
(244,-17,cs),
(208,6,o),
(170,20,o),
(127,20,cs),
(106,20,o),
(87,15,o),
(67,6,cs),
(29,-12,o),
(5,-45,o),
(5,-84,cs),
(5,-105,o),
(12,-125,o),
(25,-143,cs),
(52,-180,o),
(101,-204,o),
(148,-204,cs),
(190,-204,o),
(228,-192,o),
(262,-167,cs),
(275,-159,o),
(286,-149,o),
(296,-137,c),
(318,-156,o),
(343,-181,o),
(402,-240,c)
);
},
{
closed = 1;
nodes = (
(96,-126,o),
(61,-109,o),
(41,-87,c),
(69,-65,o),
(99,-55,o),
(131,-55,cs),
(164,-55,o),
(197,-66,o),
(239,-93,c),
(207,-115,o),
(169,-126,o),
(125,-126,cs)
);
}
);
width = 442;
},
{
anchors = (
{
name = bottom;
pos = (202,-258);
},
{
name = top.far;
pos = (299,592);
},
{
name = top.near;
pos = (299,592);
}
);
layerId = "26E2967D-790C-4793-AF2A-2D0AD74EDC69";
shapes = (
{
closed = 1;
nodes = (
(468,-200,l),
(434,-149,o),
(404,-108,o),
(378,-76,c),
(392,-51,o),
(406,-6,o),
(411,27,c),
(434,15,o),
(459,9,o),
(485,9,cs),
(490,9,o),
(493,12,o),
(493,17,cs),
(493,119,ls),
(493,125,o),
(490,127,o),
(485,127,cs),
(458,127,o),
(433,133,o),
(410,146,c),
(402,177,o),
(396,201,o),
(386,230,cs),
(372,271,o),
(348,341,o),
(337,383,c),
(291,360,o),
(254,318,o),
(254,278,cs),
(254,236,o),
(289,178,o),
(329,118,cs),
(343,95,o),
(355,75,o),
(363,58,c),
(354,28,o),
(341,2,o),
(326,-20,c),
(303,1,o),
(280,18,o),
(257,29,cs),
(225,46,o),
(194,54,o),
(162,54,cs),
(133,54,o),
(106,47,o),
(84,34,cs),
(45,12,o),
(20,-26,o),
(20,-71,cs),
(20,-97,o),
(27,-121,o),
(42,-143,cs),
(73,-187,o),
(128,-215,o),
(183,-215,cs),
(226,-215,o),
(265,-201,o),
(301,-173,cs),
(315,-162,o),
(328,-150,o),
(339,-136,c),
(359,-154,o),
(381,-176,o),
(437,-231,c)
);
},
{
closed = 1;
nodes = (
(134,-105,o),
(105,-96,o),
(76,-78,c),
(103,-57,o),
(133,-46,o),
(166,-46,cs),
(197,-46,o),
(229,-57,o),
(264,-78,c),
(233,-96,o),
(200,-105,o),
(165,-105,cs)
);
}
);
width = 477;
}
);
},
{
glyphname = "seen-ar";
layers = (
{
anchors = (
{
name = bottom;
pos = (722,-100);
},
{
name = bottom.dot;
pos = (722,-31);
},
{
name = top.far;
pos = (711,466);
},
{
name = top.near;
pos = (719,275);
}
);
layerId = master01;
shapes = (
{
closed = 1;
nodes = (
(297,-262,o),
(344,-250,o),
(389,-226,cs),
(480,-179,o),
(535,-99,o),
(535,-17,cs),
(535,2,l),
(547,1,o),
(559,0,o),
(571,0,cs),
(605,0,o),
(634,2,o),
(658,7,cs),
(683,12,o),
(698,18,o),
(703,27,cs),
(712,43,l),
(784,10,o),
(838,0,o),
(924,0,c),
(943,37,o),
(962,102,o),
(962,123,cs),
(962,154,o),
(955,189,o),
(947,225,cs),
(940,256,o),
(928,308,o),
(923,340,c),
(882,317,o),
(857,285,o),
(857,256,cs),
(857,246,o),
(864,223,o),
(877,188,cs),
(895,143,o),
(907,106,o),
(915,79,c),
(853,79,o),
(805,88,o),
(739,118,c),
(758,183,o),
(773,225,o),
(782,245,c),
(775,250,o),
(767,252,o),
(758,252,cs),
(736,252,o),
(729,245,o),
(718,219,cs),
(711,205,o),
(699,170,o),
(683,115,cs),
(679,102,o),
(675,93,o),
(671,86,c),
(649,80,o),
(620,76,o),
(583,76,cs),
(563,76,o),
(543,79,o),
(523,85,c),
(506,170,o),
(501,198,o),
(498,226,c),
(450,197,o),
(433,171,o),
(433,137,cs),
(433,105,o),
(454,41,o),
(498,-54,c),
(465,-125,o),
(350,-179,o),
(251,-179,cs),
(164,-179,o),
(113,-122,o),
(113,-24,cs),
(113,-6,o),
(117,18,o),
(124,47,c),
(87,56,l),
(71,-10,o),
(68,-35,o),
(68,-74,cs),
(68,-194,o),
(135,-262,o),
(249,-262,cs)
);
}
);
width = 1013;
},
{
anchors = (
{
name = bottom;
pos = (742,-110);
},
{
name = bottom.dot;
pos = (742,-38);
},
{
name = top.far;
pos = (731,528);
},
{
name = top.near;
pos = (735,337);
}
);
layerId = "26E2967D-790C-4793-AF2A-2D0AD74EDC69";
shapes = (
{
closed = 1;
nodes = (
(306,-252,o),
(357,-242,o),
(403,-220,cs),
(495,-177,o),
(552,-96,o),
(552,-7,cs),
(552,2,l),
(563,1,o),
(574,0,o),
(585,0,cs),
(620,0,o),
(649,3,o),
(674,8,cs),
(698,13,o),
(713,20,o),
(718,29,cs),
(729,51,l),
(795,21,o),
(886,0,o),
(968,0,c),
(988,38,o),
(1010,111,o),
(1010,142,cs),
(1010,160,o),
(1005,195,o),
(995,248,cs),
(986,292,o),
(977,338,o),
(968,383,c),
(918,358,o),
(877,313,o),
(877,281,cs),
(877,254,o),
(892,227,o),
(908,197,cs),
(923,168,o),
(938,139,o),
(952,110,c),
(873,118,o),
(816,129,o),
(765,155,c),
(784,214,o),
(799,262,o),
(808,283,c),
(796,290,o),
(783,293,o),
(770,293,cs),
(747,293,o),
(731,284,o),
(724,265,cs),
(714,241,o),
(705,217,o),
(695,192,cs),
(683,161,o),
(674,140,o),
(668,130,c),
(632,119,o),
(623,119,o),
(597,119,cs),
(580,119,o),
(560,121,o),
(537,124,c),
(524,196,o),
(516,244,o),
(513,270,c),
(444,236,o),
(412,194,o),
(412,138,cs),
(412,111,o),
(451,43,o),
(497,-45,c),
(426,-109,o),
(359,-134,o),
(254,-134,cs),
(165,-134,o),
(123,-88,o),
(123,7,cs),
(123,30,o),
(128,57,o),
(137,87,c),
(93,98,l),
(76,35,o),
(68,-13,o),
(68,-47,cs),
(68,-180,o),
(132,-252,o),
(251,-252,cs)
);
}
);
width = 1061;
}
);
unicode = (1587,65201);
},
{
glyphname = "seen-ar.fina";
layers = (
{
anchors = (
{
name = bottom;
pos = (722,-100);
},
{
name = bottom.dot;
pos = (722,-31);
},
{
name = top.far;
pos = (711,466);
},
{
name = top.near;
pos = (719,275);
}
);
layerId = master01;
shapes = (
{
closed = 1;
nodes = (
(297,-262,o),
(344,-250,o),
(389,-226,cs),
(480,-179,o),
(535,-99,o),
(535,-17,cs),
(535,4,l),
(558,1,o),
(573,0,o),
(589,0,cs),
(624,0,o),
(686,8,o),
(700,25,c),
(724,8,o),
(751,0,o),
(780,0,cs),
(817,0,o),
(858,11,o),
(869,27,c),
(883,54,l),
(917,22,o),
(973,0,o),
(1025,0,cs),
(1030,0,o),
(1033,3,o),
(1033,8,cs),
(1033,68,ls),
(1033,73,o),
(1030,76,o),
(1025,76,cs),
(986,76,o),
(951,85,o),
(921,102,cs),
(905,111,l),
(921,160,o),
(936,200,o),
(956,253,c),
(949,258,o),
(941,260,o),
(932,260,cs),
(925,260,o),
(918,259,o),
(912,256,cs),
(898,249,o),
(883,210,o),
(866,161,cs),
(852,121,o),
(842,97,o),
(837,89,c),
(816,82,o),
(798,79,o),
(782,79,cs),
(763,79,o),
(745,83,o),
(729,91,c),
(740,128,ls),
(758,187,o),
(771,225,o),
(780,245,c),
(774,250,o),
(766,252,o),
(757,252,cs),
(742,252,o),
(732,247,o),
(725,237,cs),
(713,216,o),
(702,187,o),
(693,155,cs),
(682,117,o),
(674,94,o),
(669,86,c),
(648,80,o),
(622,76,o),
(591,76,cs),
(564,76,o),
(542,78,o),
(524,82,c),
(510,152,o),
(501,200,o),
(498,226,c),
(450,197,o),
(433,171,o),
(433,137,cs),
(433,105,o),
(454,41,o),
(498,-54,c),
(465,-125,o),
(350,-179,o),
(251,-179,cs),
(164,-179,o),
(113,-122,o),
(113,-24,cs),
(113,-6,o),
(117,18,o),
(124,47,c),
(87,56,l),
(71,-10,o),
(68,-35,o),
(68,-74,cs),
(68,-194,o),
(135,-262,o),
(249,-262,cs)
);
}
);
width = 1017;
},
{
anchors = (
{
name = bottom;
pos = (742,-110);
},
{
name = bottom.dot;
pos = (742,-38);
},
{
name = top.far;
pos = (721,528);
},
{
name = top.near;
pos = (715,337);
}
);
layerId = "26E2967D-790C-4793-AF2A-2D0AD74EDC69";
shapes = (
{
closed = 1;
nodes = (
(306,-252,o),
(357,-242,o),
(403,-220,cs),
(495,-177,o),
(552,-96,o),
(552,-7,cs),
(552,1,l),
(559,0,o),
(565,0,o),
(583,0,cs),
(621,0,o),
(674,10,o),
(692,22,c),
(727,7,o),
(754,0,o),
(773,0,cs),
(819,0,o),
(875,7,o),
(885,33,c),
(900,69,l),
(931,36,o),
(994,9,o),
(1047,9,cs),
(1053,9,o),
(1056,12,o),
(1056,17,cs),
(1056,119,ls),
(1056,125,o),
(1053,127,o),
(1047,127,cs),
(1005,127,o),
(970,134,o),
(943,146,cs),
(929,154,l),
(951,227,o),
(966,274,o),
(974,293,c),
(964,300,o),
(953,304,o),
(940,304,cs),
(922,304,o),
(908,297,o),
(898,287,cs),
(889,276,o),
(882,251,o),
(861,195,cs),
(848,159,o),
(839,136,o),
(832,126,c),
(810,119,o),
(786,115,o),
(761,115,cs),
(751,116,o),
(743,116,o),
(733,116,c),
(743,148,ls),
(766,222,o),
(781,268,o),
(788,284,c),
(777,292,o),
(766,295,o),
(753,295,cs),
(729,295,o),
(711,283,o),
(704,265,cs),
(695,241,o),
(685,217,o),
(676,192,cs),
(664,162,o),
(655,141,o),
(649,130,c),
(622,123,o),
(603,119,o),
(577,119,cs),
(564,119,o),
(551,120,o),
(538,121,c),
(520,224,o),
(517,239,o),
(513,270,c),
(444,236,o),
(412,194,o),
(412,138,cs),
(412,118,o),
(445,43,o),
(497,-45,c),
(426,-109,o),
(359,-134,o),
(254,-134,cs),
(165,-134,o),
(123,-88,o),
(123,7,cs),
(123,30,o),
(128,57,o),
(137,87,c),
(93,98,l),
(76,35,o),
(68,-13,o),
(68,-47,cs),
(68,-180,o),
(132,-252,o),
(251,-252,cs)
);
}
);
width = 1039;
}
);
unicode = 65202;
},
{
glyphname = "seen-ar.medi";
layers = (
{
anchors = (
{
name = bottom;
pos = (332,-100);
},
{
name = bottom.dot;
pos = (332,-31);
},
{
name = top.far;
pos = (358,466);
},
{
name = top.near;
pos = (359,275);
}
);
layerId = master01;
shapes = (
{
closed = 1;
nodes = (
(268,1,o),
(332,7,o),
(347,25,c),
(370,8,o),
(397,0,o),
(427,0,cs),
(463,0,o),
(505,11,o),
(515,27,cs),
(521,36,o),
(525,45,o),
(529,54,c),
(564,22,o),
(619,0,o),
(671,0,cs),
(677,0,o),
(680,3,o),
(680,8,cs),
(680,68,ls),
(680,73,o),
(677,76,o),
(671,76,cs),
(625,76,o),
(598,85,o),
(552,111,c),
(576,184,o),
(592,231,o),
(602,253,c),
(595,258,o),
(587,260,o),
(578,260,cs),
(563,260,o),
(552,255,o),
(547,245,cs),
(535,225,o),
(523,194,o),
(512,161,cs),
(498,121,o),
(489,97,o),
(483,89,c),
(463,82,o),
(444,79,o),
(428,79,cs),
(407,79,o),
(395,82,o),
(375,91,c),
(402,179,o),
(417,223,o),
(427,245,c),
(420,250,o),
(412,252,o),
(403,252,cs),
(383,252,o),
(375,247,o),
(363,220,cs),
(350,193,o),
(328,107,o),
(315,86,c),
(294,80,o),
(268,76,o),
(237,76,cs),
(194,76,o),
(158,84,o),
(148,89,c),
(155,99,o),
(169,129,o),
(189,180,c),
(182,185,o),
(174,187,o),
(165,187,cs),
(150,187,o),
(140,182,o),
(134,171,cs),
(109,130,o),
(104,118,o),
(81,99,cs),
(59,82,o),
(37,76,o),
(0,76,cs),
(-6,76,o),
(-8,73,o),
(-8,68,cs),
(-8,8,ls),
(-8,3,o),
(-6,0,o),
(0,0,cs),
(45,0,o),
(85,12,o),
(104,31,c),
(130,14,o),
(188,0,o),
(226,0,cs)
);
}
);
width = 663;
},
{
anchors = (
{
name = bottom;
pos = (364,-110);
},
{
name = bottom.dot;
pos = (364,-38);
},
{
name = top.far;
pos = (364,528);
},
{
name = top.near;
pos = (364,337);
}
);
layerId = "26E2967D-790C-4793-AF2A-2D0AD74EDC69";
shapes = (
{
closed = 1;
nodes = (
(277,0,o),
(331,9,o),
(350,22,c),
(385,7,o),
(412,0,o),
(431,0,cs),
(460,0,o),
(485,3,o),
(504,8,cs),
(542,18,o),
(548,39,o),
(559,69,c),
(589,36,o),
(652,9,o),
(706,9,cs),
(711,9,o),
(714,12,o),
(714,17,cs),
(714,119,ls),
(714,125,o),
(711,127,o),
(706,127,cs),
(655,127,o),
(616,136,o),
(586,154,c),
(612,238,o),
(624,271,o),
(632,293,c),
(622,300,o),
(611,304,o),
(598,304,cs),
(575,304,o),
(556,291,o),
(548,273,cs),
(533,231,o),
(521,201,o),
(513,179,cs),
(501,147,o),
(495,133,o),
(491,126,c),
(468,119,o),
(444,115,o),
(419,115,cs),
(410,116,o),
(401,116,o),
(392,116,c),
(423,216,o),
(438,264,o),
(446,284,c),
(436,292,o),
(424,295,o),
(411,295,cs),
(387,295,o),
(369,282,o),
(362,265,cs),
(332,184,o),
(317,146,o),
(307,130,c),
(270,119,o),
(262,119,o),
(235,119,cs),
(217,119,o),
(199,120,o),
(181,122,c),
(197,163,o),
(212,203,o),
(229,243,c),
(218,250,o),
(208,254,o),
(198,254,cs),
(180,254,o),
(164,243,o),
(156,229,cs),
(130,183,o),
(121,167,o),
(106,153,cs),
(87,134,o),
(61,127,o),
(0,127,cs),
(-6,127,o),
(-8,125,o),
(-8,119,cs),
(-8,17,ls),
(-8,12,o),
(-6,9,o),
(0,9,cs),
(42,9,o),
(88,19,o),
(115,32,c),
(159,11,o),
(197,0,o),
(230,0,cs)
);
}
);
width = 697;
}
);
unicode = 65204;
},
{
glyphname = "seen-ar.init";
layers = (
{
anchors = (
{
name = bottom;
pos = (332,-100);
},
{
name = bottom.dot;
pos = (332,-31);
},
{
name = top.far;
pos = (358,466);
},
{
name = top.near;
pos = (359,275);
}
);
layerId = master01;
shapes = (
{
closed = 1;
nodes = (
(271,1,o),
(336,7,o),
(348,27,cs),
(351,32,o),
(354,38,o),
(356,43,c),
(428,10,o),
(482,0,o),
(568,0,c),
(587,36,o),
(607,100,o),
(607,123,cs),
(607,180,o),
(576,283,o),
(568,340,c),
(527,316,o),
(502,285,o),
(502,256,cs),
(502,235,o),
(549,119,o),
(560,79,c),
(492,79,o),
(453,88,o),
(383,118,c),
(403,181,o),
(417,224,o),
(427,245,c),
(420,250,o),
(412,252,o),
(403,252,cs),
(382,252,o),
(375,246,o),
(363,220,cs),
(349,191,o),
(328,106,o),
(315,86,c),
(294,80,o),
(268,76,o),
(237,76,cs),
(194,76,o),
(158,84,o),
(148,89,c),
(155,99,o),
(169,129,o),
(189,180,c),
(182,185,o),
(174,187,o),
(165,187,cs),
(150,187,o),
(140,182,o),
(134,171,cs),
(108,129,o),
(104,117,o),
(81,99,cs),
(59,82,o),
(37,76,o),
(0,76,cs),
(-6,76,o),
(-8,73,o),
(-8,68,cs),
(-8,8,ls),
(-8,3,o),
(-6,0,o),
(0,0,cs),
(45,0,o),
(85,12,o),
(104,31,c),
(130,15,o),
(187,0,o),
(226,0,cs)
);
}
);
width = 658;
},
{
anchors = (
{
name = bottom;
pos = (364,-110);
},
{
name = bottom.dot;
pos = (364,-38);
},
{
name = top.far;
pos = (364,528);
},
{
name = top.near;
pos = (364,337);
}
);
layerId = "26E2967D-790C-4793-AF2A-2D0AD74EDC69";
shapes = (
{
closed = 1;
nodes = (
(288,0,o),
(346,12,o),
(356,27,cs),
(360,34,o),
(364,42,o),
(368,51,c),
(438,20,o),
(527,0,o),
(607,0,c),
(625,36,o),
(649,109,o),
(649,142,cs),
(649,168,o),
(640,213,o),
(607,383,c),
(557,358,o),
(516,313,o),
(516,281,cs),
(516,251,o),
(550,191,o),
(591,110,c),
(519,118,o),
(455,129,o),
(404,155,c),
(416,199,o),
(430,244,o),
(446,284,c),
(436,292,o),
(424,295,o),
(411,295,cs),
(387,295,o),
(369,282,o),
(362,265,cs),
(332,183,o),
(316,145,o),
(307,130,c),
(280,122,o),
(262,119,o),
(235,119,cs),
(217,119,o),
(199,120,o),
(181,122,c),
(192,146,o),
(208,187,o),
(229,243,c),
(218,250,o),
(208,254,o),
(198,254,cs),
(180,254,o),
(164,243,o),
(156,229,cs),
(128,181,o),
(120,167,o),
(106,153,cs),
(87,134,o),
(61,127,o),
(0,127,cs),
(-6,127,o),
(-8,125,o),
(-8,119,cs),
(-8,17,ls),
(-8,12,o),
(-6,9,o),
(0,9,cs),
(42,9,o),
(88,19,o),
(115,32,c),
(159,11,o),
(197,0,o),
(230,0,cs)
);
}
);
width = 700;
}
);
unicode = 65203;
},
{
glyphname = "sad-ar";
layers = (
{
anchors = (
{
name = bottom;
pos = (772,-100);
},
{
name = bottom.dot;
pos = (772,-31);
},
{
name = top.far;
pos = (721,586);
},
{
name = top.near;
pos = (729,395);
}
);
layerId = master01;
shapes = (
{
closed = 1;
nodes = (
(297,-262,o),
(344,-250,o),
(389,-226,cs),
(480,-179,o),
(535,-99,o),
(535,-17,cs),
(535,-3,o),
(534,10,o),
(533,24,c),
(592,8,o),
(656,0,o),
(723,0,cs),
(781,0,o),
(836,9,o),
(888,28,cs),
(993,66,o),
(1044,130,o),
(1044,211,cs),
(1044,229,o),
(1034,249,o),
(1014,272,cs),
(974,319,o),
(909,357,o),
(868,357,cs),
(780,357,o),
(675,278,o),
(541,103,c),
(518,111,l),
(507,168,o),
(501,207,o),
(498,226,c),
(450,197,o),
(433,171,o),
(433,137,cs),
(433,105,o),
(454,41,o),
(498,-54,c),
(465,-125,o),
(350,-179,o),
(251,-179,cs),
(164,-179,o),
(113,-122,o),
(113,-24,cs),
(113,-6,o),
(117,18,o),
(124,47,c),
(87,56,l),
(71,-10,o),
(68,-35,o),
(68,-74,cs),
(68,-194,o),
(135,-262,o),
(249,-262,cs)
);
},
{
closed = 1;
nodes = (
(691,76,o),
(643,81,o),
(588,90,c),
(683,204,o),
(778,273,o),
(843,273,cs),
(898,273,o),
(959,232,o),
(1000,162,c),
(908,105,o),
(819,76,o),
(732,76,cs)
);
}
);
width = 1096;
},
{
anchors = (
{
name = bottom;
pos = (792,-110);
},
{
name = bottom.dot;
pos = (792,-38);
},
{
name = top.far;
pos = (741,606);
},
{
name = top.near;
pos = (749,415);
}
);
layerId = "26E2967D-790C-4793-AF2A-2D0AD74EDC69";
shapes = (
{
closed = 1;
nodes = (
(306,-252,o),
(357,-242,o),
(403,-220,cs),
(495,-177,o),
(552,-96,o),
(552,-7,c),
(552,3,o),
(551,13,o),
(551,23,c),
(617,8,o),
(680,0,o),
(741,0,cs),
(801,0,o),
(858,10,o),
(914,30,cs),
(1025,69,o),
(1081,139,o),
(1081,226,cs),
(1081,245,o),
(1069,269,o),
(1045,297,cs),
(997,354,o),
(927,400,o),
(878,400,cs),
(800,400,o),
(694,312,o),
(561,135,c),
(534,144,l),
(521,217,o),
(513,268,o),
(513,270,c),
(444,236,o),
(412,194,o),
(412,144,cs),
(412,106,o),
(450,43,o),
(497,-45,c),
(426,-109,o),
(359,-134,o),
(254,-134,cs),
(165,-134,o),
(123,-88,o),
(123,7,cs),
(123,30,o),
(128,57,o),
(137,87,c),
(93,98,l),
(76,35,o),
(68,-13,o),
(68,-47,cs),
(68,-180,o),
(132,-252,o),
(251,-252,cs)
);
},
{
closed = 1;
nodes = (
(717,110,o),
(675,114,o),
(626,120,c),
(693,197,o),
(783,282,o),
(854,282,cs),
(906,282,o),
(963,248,o),
(1022,179,c),
(925,132,o),
(847,110,o),
(751,110,cs)
);
}
);
width = 1131;
}
);
unicode = (1589,65209);
},
{
glyphname = "sad-ar.fina";
layers = (
{
anchors = (
{
name = bottom;
pos = (772,-100);
},
{
name = bottom.dot;
pos = (772,-31);
},
{
name = top.far;
pos = (721,586);
},
{
name = top.near;
pos = (729,395);
}
);
layerId = master01;
shapes = (
{
closed = 1;
nodes = (
(297,-262,o),
(344,-250,o),
(389,-226,cs),
(480,-179,o),
(535,-99,o),
(535,-17,cs),
(535,-3,o),
(534,10,o),
(533,24,c),
(592,8,o),
(656,0,o),
(723,0,cs),
(810,0,o),
(899,24,o),
(957,60,c),
(989,26,o),
(1051,0,o),
(1108,0,cs),
(1113,0,o),
(1116,3,o),
(1116,8,cs),
(1116,68,ls),
(1116,73,o),
(1113,76,o),
(1108,76,cs),
(1068,76,o),
(1034,85,o),
(1004,102,c),
(1031,132,o),
(1044,169,o),
(1044,211,cs),
(1044,229,o),
(1034,249,o),
(1014,272,cs),
(974,319,o),
(909,357,o),
(868,357,cs),
(780,357,o),
(675,278,o),
(541,103,c),
(518,111,l),
(510,156,o),
(502,192,o),
(498,226,c),
(450,197,o),
(433,171,o),
(433,137,cs),
(433,105,o),
(454,41,o),
(498,-54,c),
(465,-125,o),
(350,-179,o),
(251,-179,cs),
(164,-179,o),
(113,-122,o),
(113,-24,cs),
(113,-6,o),
(117,18,o),
(124,47,c),
(87,56,l),
(71,-10,o),
(68,-35,o),
(68,-74,cs),
(68,-194,o),
(135,-262,o),
(249,-262,cs)
);
},
{
closed = 1;
nodes = (
(691,76,o),
(643,81,o),
(588,90,c),
(619,127,o),
(650,160,o),
(680,187,cs),
(742,242,o),
(799,273,o),
(843,273,cs),
(898,273,o),
(959,232,o),
(1000,162,c),
(908,105,o),
(819,76,o),
(732,76,cs)
);
}
);
width = 1099;
},
{
anchors = (
{
name = bottom;
pos = (792,-110);
},
{
name = bottom.dot;
pos = (792,-38);
},
{
name = top.far;
pos = (741,606);
},
{
name = top.near;
pos = (749,415);
}
);
layerId = "26E2967D-790C-4793-AF2A-2D0AD74EDC69";
shapes = (
{
closed = 1;
nodes = (
(306,-252,o),
(357,-242,o),
(403,-220,cs),
(495,-177,o),
(552,-96,o),
(552,-7,c),
(552,3,o),
(551,13,o),
(551,23,c),
(617,8,o),
(680,0,o),
(741,0,cs),
(847,0,o),
(955,34,o),
(1020,90,c),
(1066,39,o),
(1132,9,o),
(1195,9,cs),
(1201,9,o),
(1204,12,o),
(1204,17,cs),
(1204,119,ls),
(1204,125,o),
(1201,127,o),
(1195,127,cs),
(1146,127,o),
(1122,136,o),
(1071,166,c),
(1077,184,o),
(1081,204,o),
(1081,226,cs),
(1081,245,o),
(1069,269,o),
(1045,297,cs),
(997,354,o),
(927,400,o),
(878,400,cs),
(800,400,o),
(694,312,o),
(561,135,c),
(534,144,l),
(527,186,o),
(520,228,o),
(513,270,c),
(444,236,o),
(412,194,o),
(412,138,cs),
(412,119,o),
(417,107,o),
(497,-45,c),
(426,-109,o),
(359,-134,o),
(254,-134,cs),
(165,-134,o),
(123,-88,o),
(123,7,cs),
(123,30,o),
(128,57,o),
(137,87,c),
(93,98,l),
(76,35,o),
(68,-13,o),
(68,-47,cs),
(68,-180,o),
(132,-252,o),
(251,-252,cs)
);
},
{
closed = 1;
nodes = (
(717,110,o),
(675,114,o),
(626,120,c),
(654,152,o),
(682,181,o),
(710,206,cs),
(767,257,o),
(814,282,o),
(854,282,cs),
(906,282,o),
(963,248,o),
(1022,179,c),
(925,132,o),
(847,110,o),
(751,110,cs)
);
}
);
width = 1187;
}
);
unicode = 65210;
},
{
glyphname = "sad-ar.medi";
layers = (
{
anchors = (
{
name = bottom;
pos = (438,-100);
},
{
name = bottom.dot;
pos = (438,-31);
},
{
name = top.far;
pos = (387,586);
},
{
name = top.near;
pos = (395,395);
}
);
layerId = master01;
shapes = (
{
closed = 1;
nodes = (
(428,0,o),
(460,3,o),
(491,9,cs),
(545,20,o),
(596,38,o),
(633,62,c),
(669,25,o),
(729,0,o),
(786,0,cs),
(792,0,o),
(795,3,o),
(795,8,cs),
(795,68,ls),
(795,73,o),
(792,76,o),
(786,76,cs),
(745,76,o),
(710,85,o),
(680,104,c),
(705,135,o),
(718,171,o),
(718,211,cs),
(718,230,o),
(707,251,o),
(686,275,cs),
(642,323,o),
(579,357,o),
(542,357,cs),
(497,357,o),
(448,336,o),
(395,295,cs),
(340,252,o),
(280,188,o),
(215,103,c),
(198,108,o),
(182,115,o),
(166,123,c),
(171,135,o),
(181,158,o),
(195,192,c),
(189,198,o),
(181,201,o),
(172,201,cs),
(158,201,o),
(147,195,o),
(140,184,cs),
(135,174,o),
(130,165,o),
(125,156,cs),
(89,93,o),
(60,76,o),
(0,76,cs),
(-6,76,o),
(-8,73,o),
(-8,68,cs),
(-8,8,ls),
(-8,3,o),
(-6,0,o),
(0,0,cs),
(51,0,o),
(87,12,o),
(109,37,cs),
(115,43,o),
(121,50,o),
(126,56,c),
(186,23,o),
(300,0,o),
(396,0,cs)
);
},
{
closed = 1;
nodes = (
(362,76,o),
(314,81,o),
(262,91,c),
(364,211,o),
(453,273,o),
(517,273,cs),
(572,273,o),
(633,232,o),
(673,162,c),
(582,105,o),
(493,76,o),
(406,76,cs)
);
}
);
width = 778;
},
{
anchors = (
{
name = bottom;
pos = (452,-110);
},
{
name = bottom.dot;
pos = (452,-38);
},
{
name = top.far;
pos = (401,606);
},
{
name = top.near;
pos = (409,415);
}
);
layerId = "26E2967D-790C-4793-AF2A-2D0AD74EDC69";
shapes = (
{
closed = 1;
nodes = (
(439,0,o),
(473,4,o),
(509,11,cs),
(581,26,o),
(649,57,o),
(681,88,c),
(729,36,o),
(793,9,o),
(854,9,cs),
(860,9,o),
(863,12,o),
(863,17,cs),
(863,119,ls),
(863,125,o),
(860,127,o),
(854,127,cs),
(807,127,o),
(781,136,o),
(733,164,c),
(740,182,o),
(744,203,o),
(744,226,cs),
(744,243,o),
(733,266,o),
(710,294,cs),
(666,350,o),
(591,400,o),
(542,400,cs),
(503,400,o),
(458,379,o),
(407,336,cs),
(355,294,o),
(294,227,o),
(225,135,c),
(211,140,o),
(198,144,o),
(184,149,c),
(197,181,o),
(210,213,o),
(223,246,c),
(213,252,o),
(202,256,o),
(191,256,cs),
(172,256,o),
(156,247,o),
(146,229,cs),
(141,219,o),
(136,210,o),
(131,201,cs),
(97,139,o),
(79,127,o),
(0,127,cs),
(-6,127,o),
(-8,125,o),
(-8,119,cs),
(-8,17,ls),
(-8,12,o),
(-6,9,o),
(0,9,cs),
(43,9,o),
(88,19,o),
(116,38,cs),
(123,42,o),
(129,47,o),
(133,53,c),
(213,15,o),
(316,0,o),
(405,0,cs)
);
},
{
closed = 1;
nodes = (
(375,110,o),
(334,114,o),
(291,121,c),
(378,223,o),
(458,282,o),
(517,282,cs),
(570,282,o),
(626,248,o),
(686,179,c),
(588,132,o),
(511,110,o),
(415,110,cs)
);
}
);
width = 846;
}
);
unicode = 65212;
},
{
glyphname = "sad-ar.init";
layers = (
{
anchors = (
{
name = bottom;
pos = (438,-100);
},
{
name = bottom.dot;
pos = (438,-31);
},
{
name = top.far;
pos = (387,586);
},
{
name = top.near;
pos = (395,395);
}
);
layerId = master01;
shapes = (
{
closed = 1;
nodes = (
(454,0,o),
(509,9,o),
(561,28,cs),
(666,65,o),
(718,129,o),
(718,211,cs),
(718,230,o),
(707,251,o),
(686,275,cs),
(642,323,o),
(579,357,o),
(542,357,cs),
(496,357,o),
(446,335,o),
(391,292,cs),
(337,250,o),
(278,187,o),
(215,103,c),
(198,108,o),
(182,115,o),
(166,123,c),
(171,135,o),
(181,158,o),
(195,192,c),
(189,198,o),
(181,201,o),
(172,201,cs),
(158,201,o),
(147,195,o),
(140,184,cs),
(135,174,o),
(130,165,o),
(125,156,cs),
(89,93,o),
(60,76,o),
(0,76,cs),
(-6,76,o),
(-8,73,o),
(-8,68,cs),
(-8,8,ls),
(-8,3,o),
(-6,0,o),
(0,0,cs),
(51,0,o),
(87,12,o),
(109,37,cs),
(115,43,o),
(121,50,o),
(126,56,c),
(186,23,o),
(300,0,o),
(396,0,cs)
);
},
{
closed = 1;
nodes = (
(362,76,o),
(314,81,o),
(262,91,c),
(364,211,o),
(453,273,o),
(517,273,cs),
(572,273,o),
(633,232,o),
(673,162,c),
(582,105,o),
(493,76,o),
(406,76,cs)
);
}
);
width = 786;
},
{
anchors = (
{
name = bottom;
pos = (452,-110);
},
{
name = bottom.dot;
pos = (452,-38);
},
{
name = top.far;
pos = (401,606);
},
{
name = top.near;
pos = (409,415);
}
);
layerId = "26E2967D-790C-4793-AF2A-2D0AD74EDC69";
shapes = (
{
closed = 1;
nodes = (
(465,0,o),
(523,10,o),
(578,30,cs),
(689,71,o),
(744,138,o),
(744,226,cs),
(744,243,o),
(733,266,o),
(710,294,cs),
(666,350,o),
(591,400,o),
(542,400,cs),
(503,400,o),
(458,379,o),
(407,336,cs),
(355,294,o),
(294,227,o),
(225,135,c),
(211,140,o),
(198,144,o),
(184,149,c),
(197,181,o),
(210,213,o),
(223,246,c),
(213,252,o),
(202,256,o),
(191,256,cs),
(172,256,o),
(156,247,o),
(146,229,cs),
(140,217,o),
(134,208,o),
(129,199,cs),
(92,135,o),
(76,127,o),
(0,127,cs),
(-6,127,o),
(-8,125,o),
(-8,119,cs),
(-8,17,ls),
(-8,12,o),
(-6,9,o),
(0,9,cs),
(42,9,o),
(86,19,o),
(114,36,cs),
(122,41,o),
(128,47,o),
(133,53,c),
(213,15,o),
(316,0,o),
(405,0,cs)
);
},
{
closed = 1;
nodes = (
(375,110,o),
(334,114,o),
(291,121,c),
(378,223,o),
(458,282,o),
(517,282,cs),
(570,282,o),
(626,248,o),
(686,179,c),
(588,132,o),
(511,110,o),
(415,110,cs)
);
}
);
width = 795;
}
);
unicode = 65211;
},
{
glyphname = "tah-ar";
layers = (
{
anchors = (
{
name = bottom;
pos = (392,-100);
},
{
name = bottom.dot;
pos = (392,-31);
},
{
name = top.far;
pos = (511,586);
},
{
name = top.near;
pos = (519,395);
}
);
layerId = master01;
shapes = (
{
closed = 1;
nodes = (
(454,0,o),
(509,9,o),
(561,28,cs),
(666,65,o),
(718,129,o),
(718,211,cs),
(718,230,o),
(707,251,o),
(686,275,cs),
(642,323,o),
(579,357,o),
(542,357,cs),
(476,357,o),
(396,307,o),
(302,207,c),
(301,232,o),
(300,258,o),
(298,286,cs),
(295,321,o),
(279,466,o),
(272,529,c),
(299,552,l),
(281,608,o),
(271,639,o),
(264,671,c),
(217,662,o),
(197,637,o),
(197,592,cs),
(197,540,o),
(219,396,o),
(262,162,c),
(243,139,o),
(224,115,o),
(204,90,c),
(152,98,o),
(102,109,o),
(53,121,c),
(42,86,l),
(82,58,o),
(157,19,o),
(192,12,cs),
(226,6,o),
(315,0,o),
(396,0,cs)
);
},
{
closed = 1;
nodes = (
(356,76,o),
(306,78,o),
(255,83,c),
(354,203,o),
(451,273,o),
(517,273,cs),
(572,273,o),
(633,232,o),
(673,162,c),
(582,105,o),
(493,76,o),
(406,76,cs)
);
}
);
width = 769;
},
{
anchors = (
{
name = bottom;
pos = (402,-110);
},
{
name = bottom.dot;
pos = (402,-38);
},
{
name = top.far;
pos = (501,616);
},
{
name = top.near;
pos = (509,425);
}
);
layerId = "26E2967D-790C-4793-AF2A-2D0AD74EDC69";
shapes = (
{
closed = 1;
nodes = (
(463,0,o),
(520,10,o),
(576,30,cs),
(686,71,o),
(741,138,o),
(741,226,cs),
(741,244,o),
(729,268,o),
(706,297,cs),
(658,354,o),
(587,400,o),
(539,400,cs),
(478,400,o),
(399,346,o),
(304,238,c),
(302,262,o),
(301,282,o),
(300,299,cs),
(288,461,o),
(296,352,o),
(282,533,c),
(314,557,l),
(298,597,o),
(285,638,o),
(273,680,c),
(217,680,o),
(172,637,o),
(172,582,cs),
(172,544,o),
(200,414,o),
(252,175,c),
(239,158,o),
(226,140,o),
(212,123,c),
(173,129,o),
(119,139,o),
(49,156,c),
(34,113,l),
(86,67,o),
(148,24,o),
(175,16,cs),
(209,6,o),
(325,0,o),
(402,0,cs)
);
},
{
closed = 1;
nodes = (
(370,110,o),
(327,112,o),
(283,115,c),
(385,231,o),
(458,282,o),
(514,282,cs),
(567,282,o),
(624,248,o),
(684,179,c),
(589,133,o),
(510,110,o),
(412,110,cs)
);
}
);
width = 792;
}
);
unicode = (1591,65217);
},
{
glyphname = "tah-ar.fina";
layers = (
{
anchors = (
{
name = bottom;
pos = (392,-100);
},
{
name = bottom.dot;
pos = (392,-31);
},
{
name = top.far;
pos = (511,586);
},
{
name = top.near;
pos = (519,395);
}
);
layerId = master01;
shapes = (
{
closed = 1;
nodes = (
(483,0,o),
(572,23,o),
(631,61,c),
(666,26,o),
(727,0,o),
(784,0,cs),
(790,0,o),
(792,3,o),
(792,8,cs),
(792,68,ls),
(792,73,o),
(790,76,o),
(784,76,cs),
(745,76,o),
(710,85,o),
(680,102,c),
(704,132,o),
(718,169,o),
(718,211,cs),
(718,230,o),
(707,251,o),
(686,275,cs),
(642,323,o),
(579,357,o),
(542,357,cs),
(476,357,o),
(396,307,o),
(303,208,c),
(302,250,o),
(299,292,o),
(293,333,cs),
(292,346,o),
(285,410,o),
(272,529,c),
(299,552,l),
(281,606,o),
(272,639,o),
(264,671,c),
(215,660,o),
(198,635,o),
(198,590,cs),
(198,583,o),
(198,575,o),
(199,564,cs),
(204,508,o),
(219,404,o),
(233,333,cs),
(243,276,o),
(252,219,o),
(262,162,c),
(243,139,o),
(224,115,o),
(204,90,c),
(63,117,o),
(219,85,o),
(53,121,c),
(42,86,l),
(82,58,o),
(157,19,o),
(192,12,cs),
(226,6,o),
(315,0,o),
(396,0,cs)
);
},
{
closed = 1;
nodes = (
(356,76,o),
(306,78,o),
(255,83,c),
(354,203,o),
(451,273,o),
(517,273,cs),
(572,273,o),
(633,232,o),
(673,162,c),
(582,105,o),
(493,76,o),
(406,76,cs)
);
}
);
width = 775;
},
{
anchors = (
{
name = bottom;
pos = (402,-110);
},
{
name = bottom.dot;
pos = (402,-38);
},
{
name = top.far;
pos = (501,616);
},
{
name = top.near;
pos = (509,425);
}
);
layerId = "26E2967D-790C-4793-AF2A-2D0AD74EDC69";
shapes = (
{
closed = 1;
nodes = (
(504,0,o),
(614,33,o),
(677,87,c),
(723,37,o),
(787,9,o),
(849,9,cs),
(855,9,o),
(858,12,o),
(858,17,cs),
(858,119,ls),
(858,125,o),
(855,127,o),
(849,127,cs),
(806,127,o),
(766,139,o),
(731,162,c),
(738,181,o),
(741,202,o),
(741,226,cs),
(741,244,o),
(730,268,o),
(706,297,cs),
(658,354,o),
(588,400,o),
(539,400,cs),
(478,400,o),
(400,346,o),
(304,238,c),
(302,276,o),
(299,314,o),
(296,352,cs),
(292,413,o),
(287,473,o),
(282,533,c),
(314,557,l),
(299,594,o),
(286,635,o),
(274,680,c),
(217,680,o),
(172,637,o),
(172,582,cs),
(172,575,o),
(173,567,o),
(174,559,cs),
(187,493,o),
(201,420,o),
(217,342,cs),
(228,289,o),
(239,233,o),
(252,174,c),
(239,157,o),
(225,140,o),
(212,123,c),
(166,130,o),
(112,141,o),
(49,156,c),
(34,113,l),
(84,68,o),
(148,24,o),
(175,16,cs),
(210,6,o),
(327,0,o),
(402,0,cs)
);
},
{
closed = 1;
nodes = (
(370,110,o),
(327,112,o),
(283,115,c),
(379,226,o),
(456,282,o),
(514,282,cs),
(567,282,o),
(624,248,o),
(684,179,c),
(584,131,o),
(507,110,o),
(412,110,cs)
);
}
);
width = 841;
}
);
unicode = 65218;
},
{
glyphname = "tah-ar.medi";
layers = (
{
anchors = (
{
name = bottom;
pos = (352,-100);
},
{
name = bottom.dot;
pos = (352,-31);
},
{
name = top.far;
pos = (417,596);
},
{
name = top.near;
pos = (425,405);
}
);
layerId = master01;
shapes = (
{
closed = 1;
nodes = (
(228,0,o),
(390,24,o),
(481,66,c),
(512,29,o),
(578,0,o),
(638,0,cs),
(643,0,o),
(646,3,o),
(646,8,cs),
(646,68,ls),
(646,73,o),
(643,76,o),
(638,76,cs),
(601,76,o),
(568,84,o),
(539,99,c),
(586,132,o),
(609,174,o),
(609,223,cs),
(609,241,o),
(598,263,o),
(577,287,cs),
(533,335,o),
(470,369,o),
(433,369,cs),
(371,369,o),
(285,312,o),
(191,208,c),
(190,223,o),
(188,266,o),
(181,333,cs),
(179,356,o),
(164,485,o),
(161,530,c),
(187,552,l),
(166,619,o),
(158,645,o),
(151,671,c),
(104,660,o),
(85,636,o),
(85,592,cs),
(86,537,o),
(107,400,o),
(150,161,c),
(128,134,o),
(107,106,o),
(86,77,c),
(57,77,o),
(29,77,o),
(0,76,cs),
(-6,76,o),
(-8,73,o),
(-8,68,cs),
(-8,8,ls),
(-8,3,o),
(-6,0,o),
(0,0,cs)
);
},
{
closed = 1;
nodes = (
(250,209,o),
(348,286,o),
(408,286,cs),
(467,286,o),
(524,246,o),
(563,179,c),
(506,150,o),
(462,129,o),
(431,118,cs),
(369,95,o),
(274,83,o),
(142,78,c)
);
}
);
width = 629;
},
{
anchors = (
{
name = bottom;
pos = (352,-110);
},
{
name = bottom.dot;
pos = (352,-38);
},
{
name = top.far;
pos = (401,626);
},
{
name = top.near;
pos = (409,435);
}
);
layerId = "26E2967D-790C-4793-AF2A-2D0AD74EDC69";
shapes = (
{
closed = 1;
nodes = (
(273,9,o),
(435,40,o),
(535,94,c),
(581,41,o),
(648,9,o),
(714,9,cs),
(720,9,o),
(723,12,o),
(723,17,cs),
(723,119,ls),
(723,125,o),
(720,127,o),
(714,127,cs),
(675,127,o),
(640,136,o),
(607,154,c),
(630,185,o),
(642,218,o),
(642,254,cs),
(642,271,o),
(629,295,o),
(605,324,cs),
(557,382,o),
(493,417,o),
(438,417,cs),
(372,417,o),
(292,362,o),
(197,251,c),
(195,286,o),
(192,320,o),
(189,355,cs),
(185,414,o),
(180,474,o),
(176,533,c),
(208,557,l),
(193,594,o),
(180,635,o),
(167,680,c),
(110,680,o),
(65,637,o),
(65,582,cs),
(65,560,o),
(79,496,o),
(144,185,c),
(130,167,o),
(117,148,o),
(103,128,c),
(69,128,o),
(34,128,o),
(0,127,cs),
(-6,127,o),
(-8,125,o),
(-8,119,cs),
(-8,17,ls),
(-8,12,o),
(-6,9,o),
(0,9,cs)
);
},
{
closed = 1;
nodes = (
(275,240,o),
(353,295,o),
(414,295,cs),
(471,295,o),
(508,272,o),
(577,196,c),
(450,160,o),
(409,152,o),
(358,143,cs),
(306,134,o),
(194,130,o),
(181,130,c)
);
}
);
width = 706;
}
);
unicode = 65220;
},
{
glyphname = "tah-ar.init";
layers = (
{
anchors = (
{
name = bottom;
pos = (352,-100);
},
{
name = bottom.dot;
pos = (352,-31);
},
{
name = top.far;
pos = (407,596);
},
{
name = top.near;
pos = (415,405);
}
);
layerId = master01;
shapes = (
{
closed = 1;
nodes = (
(139,0,o),
(253,9,o),
(342,26,cs),
(520,60,o),
(609,127,o),
(609,223,cs),
(609,241,o),
(598,263,o),
(577,287,cs),
(533,335,o),
(470,369,o),
(433,369,cs),
(371,369,o),
(285,312,o),
(191,208,c),
(190,223,o),
(188,281,o),
(181,333,cs),
(177,362,o),
(163,500,o),
(161,530,c),
(187,552,l),
(171,603,o),
(163,625,o),
(151,671,c),
(104,660,o),
(85,636,o),
(85,592,cs),
(86,537,o),
(107,400,o),
(150,161,c),
(128,134,o),
(107,106,o),
(86,77,c),
(83,77,l),
(0,76,ls),
(-6,76,o),
(-8,73,o),
(-8,68,cs),
(-8,8,ls),
(-8,3,o),
(-6,0,o),
(0,0,cs)
);
},
{
closed = 1;
nodes = (
(250,209,o),
(348,286,o),
(408,286,cs),
(467,286,o),
(524,246,o),
(563,179,c),
(506,150,o),
(462,129,o),
(431,118,cs),
(369,95,o),
(274,83,o),
(142,78,c)
);
}
);
width = 660;
},
{
anchors = (
{
name = bottom;
pos = (358,-110);
},
{
name = bottom.dot;
pos = (358,-38);
},
{
name = top.far;
pos = (401,626);
},
{
name = top.near;
pos = (409,435);
}
);
layerId = "26E2967D-790C-4793-AF2A-2D0AD74EDC69";
shapes = (
{
closed = 1;
nodes = (
(153,9,o),
(276,19,o),
(369,38,cs),
(555,77,o),
(642,150,o),
(642,254,cs),
(642,271,o),
(629,295,o),
(605,324,cs),
(557,382,o),
(493,417,o),
(438,417,cs),
(372,417,o),
(292,362,o),
(197,251,c),
(195,283,o),
(192,313,o),
(190,345,cs),
(185,407,o),
(181,470,o),
(176,533,c),
(208,557,l),
(193,594,o),
(180,635,o),
(167,680,c),
(110,680,o),
(65,637,o),
(65,582,cs),
(65,561,o),
(78,502,o),
(144,185,c),
(130,167,o),
(117,148,o),
(103,128,c),
(83,128,l),
(0,127,ls),
(-6,127,o),
(-8,125,o),
(-8,119,cs),
(-8,17,ls),
(-8,12,o),
(-6,9,o),
(0,9,cs)
);
},
{
closed = 1;
nodes = (
(275,240,o),
(353,295,o),
(414,295,cs),
(471,295,o),
(508,272,o),
(577,196,c),
(450,160,o),
(409,152,o),
(358,143,cs),
(306,134,o),
(194,130,o),
(181,130,c)
);
}
);
width = 693;
}
);
unicode = 65219;
},
{
glyphname = "ain-ar";
layers = (
{
anchors = (
{
name = bottom;
pos = (365,-342);
},
{
name = center;
pos = (371,-24);
},
{
name = top.far;
pos = (229,663);
},
{
name = top.near;
pos = (229,482);
}
);
layerId = master01;
shapes = (
{
closed = 1;
nodes = (
(451,-286,o),
(537,-260,o),
(629,-209,c),
(618,-175,l),
(567,-187,o),
(520,-195,o),
(468,-199,cs),
(439,-202,o),
(408,-203,o),
(375,-203,cs),
(227,-203,o),
(150,-149,o),
(150,-54,cs),
(150,-25,o),
(159,2,o),
(175,29,cs),
(205,76,o),
(260,117,o),
(360,160,cs),
(395,173,o),
(425,186,o),
(444,200,cs),
(464,214,o),
(471,229,o),
(471,246,cs),
(471,257,o),
(467,267,o),
(460,277,c),
(392,255,o),
(334,229,o),
(285,199,c),
(187,215,o),
(130,269,o),
(130,348,c),
(174,372,o),
(217,384,o),
(258,384,cs),
(282,384,o),
(313,378,o),
(353,366,c),
(370,398,l),
(311,446,o),
(280,464,o),
(233,464,cs),
(206,464,o),
(180,455,o),
(156,435,cs),
(106,397,o),
(73,328,o),
(73,271,cs),
(73,249,o),
(78,229,o),
(90,210,cs),
(113,172,o),
(154,141,o),
(195,129,c),
(141,71,o),
(114,5,o),
(114,-70,cs),
(114,-201,o),
(216,-286,o),
(372,-286,cs)
);
}
);
width = 604;
},
{
anchors = (
{
name = bottom;
pos = (365,-342);
},
{
name = center;
pos = (374,-40);
},
{
name = top.far;
pos = (239,666);
},
{
name = top.near;
pos = (239,485);
}
);
layerId = "26E2967D-790C-4793-AF2A-2D0AD74EDC69";
shapes = (
{
closed = 1;
nodes = (
(408,-301,o),
(498,-263,o),
(613,-192,c),
(600,-150,l),
(530,-166,o),
(481,-176,o),
(453,-180,cs),
(424,-184,o),
(396,-186,o),
(369,-186,cs),
(236,-186,o),
(164,-141,o),
(164,-65,cs),
(164,-41,o),
(171,-17,o),
(185,5,cs),
(213,49,o),
(263,82,o),
(379,128,cs),
(415,143,o),
(439,154,o),
(450,162,cs),
(475,179,o),
(486,201,o),
(486,229,cs),
(486,253,o),
(482,270,o),
(475,280,c),
(403,256,o),
(339,227,o),
(281,193,c),
(205,211,o),
(158,261,o),
(154,333,c),
(197,356,o),
(229,365,o),
(276,365,cs),
(306,365,o),
(341,358,o),
(381,342,c),
(402,382,l),
(347,444,o),
(296,475,o),
(250,475,cs),
(223,475,o),
(197,465,o),
(172,444,cs),
(121,402,o),
(83,321,o),
(83,261,cs),
(83,244,o),
(87,227,o),
(95,209,cs),
(111,173,o),
(145,138,o),
(188,118,c),
(138,64,o),
(113,1,o),
(113,-71,cs),
(113,-212,o),
(210,-301,o),
(367,-301,cs)
);
}
);
width = 604;
}
);
unicode = (1593,65225);
},
{
glyphname = "ain-ar.fina";
layers = (
{
anchors = (
{
name = bottom;
pos = (285,-342);
},
{
name = center;
pos = (302,-85);
},
{
name = top.far;
pos = (251,567);
},
{
name = top.near;
pos = (251,386);
}
);
layerId = master01;
shapes = (
{
closed = 1;
nodes = (
(393,-286,o),
(443,-268,o),
(542,-207,c),
(527,-173,l),
(432,-202,o),
(405,-206,o),
(341,-206,cs),
(204,-206,o),
(145,-169,o),
(145,-93,cs),
(145,-36,o),
(177,5,o),
(254,57,c),
(317,12,o),
(369,0,o),
(483,0,cs),
(490,0,o),
(493,3,o),
(493,9,cs),
(493,67,ls),
(493,73,o),
(490,76,o),
(483,76,cs),
(399,76,o),
(354,81,o),
(316,97,c),
(385,145,o),
(414,192,o),
(414,249,cs),
(414,320,o),
(350,374,o),
(264,374,cs),
(237,374,o),
(210,370,o),
(183,362,cs),
(128,346,o),
(68,315,o),
(68,268,cs),
(68,251,o),
(75,236,o),
(87,223,c),
(103,233,l),
(113,225,o),
(125,213,o),
(136,199,cs),
(148,186,o),
(167,160,o),
(193,123,cs),
(200,112,o),
(209,102,o),
(218,92,c),
(136,23,o),
(109,-17,o),
(109,-94,cs),
(109,-128,o),
(117,-159,o),
(132,-185,cs),
(166,-248,o),
(238,-286,o),
(332,-286,cs)
);
},
{
closed = 1;
nodes = (
(245,159,ls),
(219,191,o),
(200,213,o),
(186,228,cs),
(173,242,o),
(160,253,o),
(149,262,c),
(186,282,o),
(225,292,o),
(267,292,cs),
(312,292,o),
(342,265,o),
(342,228,cs),
(342,214,o),
(337,200,o),
(327,186,cs),
(317,172,o),
(298,153,o),
(270,131,c)
);
}
);
width = 477;
},
{
anchors = (
{
name = bottom;
pos = (335,-342);
},
{
name = center;
pos = (319,-80);
},
{
name = top.far;
pos = (266,616);
},
{
name = top.near;
pos = (266,425);
}
);
layerId = "26E2967D-790C-4793-AF2A-2D0AD74EDC69";
shapes = (
{
closed = 1;
nodes = (
(401,-301,o),
(452,-275,o),
(574,-202,c),
(561,-159,l),
(481,-177,o),
(415,-186,o),
(363,-186,cs),
(231,-186,o),
(160,-145,o),
(160,-72,cs),
(160,-22,o),
(196,27,o),
(270,74,c),
(326,27,o),
(393,9,o),
(483,9,cs),
(490,9,o),
(494,12,o),
(494,18,cs),
(494,118,ls),
(494,124,o),
(490,127,o),
(483,127,cs),
(432,127,o),
(394,129,o),
(363,134,c),
(418,179,o),
(446,226,o),
(446,275,cs),
(446,352,o),
(369,417,o),
(280,417,cs),
(248,417,o),
(215,411,o),
(180,398,cs),
(110,374,o),
(69,341,o),
(69,296,cs),
(69,272,o),
(78,251,o),
(95,232,c),
(114,245,l),
(125,235,o),
(136,225,o),
(148,214,cs),
(170,191,o),
(193,163,o),
(208,144,cs),
(215,134,o),
(222,125,o),
(224,122,c),
(143,57,o),
(108,-11,o),
(108,-92,cs),
(108,-133,o),
(119,-170,o),
(140,-202,cs),
(183,-265,o),
(264,-301,o),
(367,-301,cs)
);
},
{
closed = 1;
nodes = (
(264,195,ls),
(243,219,o),
(224,240,o),
(207,256,cs),
(196,266,o),
(187,274,o),
(178,282,c),
(221,301,o),
(249,306,o),
(283,306,cs),
(318,306,o),
(346,286,o),
(346,252,cs),
(346,239,o),
(343,228,o),
(336,216,cs),
(327,201,o),
(312,186,o),
(289,169,c)
);
}
);
width = 477;
}
);
unicode = 65226;
},
{
glyphname = "ain-ar.medi";
layers = (
{
anchors = (
{
name = bottom;
pos = (222,-100);
},
{
name = bottom.dot;
pos = (222,-31);
},
{
name = top.far;
pos = (215,567);
},
{
name = top.near;
pos = (215,386);
}
);
layerId = master01;
shapes = (
{
closed = 1;
nodes = (
(82,0,o),
(146,17,o),
(219,54,c),
(271,17,o),
(330,0,o),
(421,0,cs),
(427,0,o),
(431,3,o),
(431,9,cs),
(431,67,ls),
(431,73,o),
(427,76,o),
(421,76,cs),
(359,76,o),
(314,82,o),
(286,94,c),
(339,137,o),
(375,186,o),
(375,249,cs),
(375,273,o),
(368,295,o),
(355,313,cs),
(330,350,o),
(283,374,o),
(226,374,cs),
(197,374,o),
(169,370,o),
(141,361,cs),
(86,344,o),
(30,314,o),
(30,267,cs),
(30,250,o),
(36,236,o),
(48,223,c),
(64,233,l),
(74,226,o),
(85,215,o),
(97,200,cs),
(109,187,o),
(128,161,o),
(154,123,c),
(172,100,l),
(127,84,o),
(70,76,o),
(1,76,cs),
(-5,76,o),
(-8,73,o),
(-8,67,cs),
(-8,9,ls),
(-8,3,o),
(-5,0,o),
(1,0,cs)
);
},
{
closed = 1;
nodes = (
(222,141,o),
(214,150,o),
(207,159,cs),
(167,209,o),
(135,243,o),
(111,262,c),
(149,282,o),
(188,292,o),
(229,292,cs),
(273,292,o),
(304,265,o),
(304,228,cs),
(304,197,o),
(276,162,o),
(231,132,c)
);
}
);
width = 414;
},
{
anchors = (
{
name = bottom;
pos = (234,-110);
},
{
name = bottom.dot;
pos = (234,-38);
},
{
name = top.far;
pos = (231,616);
},
{
name = top.near;
pos = (231,425);
}
);
layerId = "26E2967D-790C-4793-AF2A-2D0AD74EDC69";
shapes = (
{
closed = 1;
nodes = (
(88,9,o),
(167,29,o),
(239,70,c),
(284,31,o),
(361,9,o),
(455,9,cs),
(462,9,o),
(465,12,o),
(465,18,cs),
(465,118,ls),
(465,124,o),
(462,127,o),
(455,127,cs),
(407,127,o),
(367,129,o),
(331,134,c),
(381,180,o),
(409,227,o),
(409,275,cs),
(409,300,o),
(401,323,o),
(386,345,cs),
(356,390,o),
(300,417,o),
(242,417,cs),
(211,417,o),
(177,411,o),
(143,399,cs),
(73,374,o),
(31,341,o),
(31,296,cs),
(31,272,o),
(40,251,o),
(58,232,c),
(76,245,l),
(86,236,o),
(97,227,o),
(108,216,cs),
(122,202,o),
(137,186,o),
(156,161,c),
(176,136,l),
(130,128,o),
(71,127,o),
(1,127,cs),
(-5,127,o),
(-8,124,o),
(-8,118,cs),
(-8,18,ls),
(-8,12,o),
(-5,9,o),
(1,9,cs)
);
},
{
closed = 1;
nodes = (
(245,176,o),
(236,186,o),
(228,195,cs),
(186,240,o),
(156,269,o),
(141,282,c),
(184,301,o),
(211,306,o),
(246,306,cs),
(282,306,o),
(309,285,o),
(309,252,cs),
(309,220,o),
(289,189,o),
(254,166,c)
);
}
);
width = 448;
}
);
unicode = 65228;
},
{
glyphname = "ain-ar.init";
layers = (
{
anchors = (
{
name = bottom;
pos = (272,-100);
},
{
name = bottom.dot;
pos = (272,-31);
},
{
name = top.far;
pos = (219,567);
},
{
name = top.near;
pos = (219,386);
}
);
layerId = master01;
shapes = (
{
closed = 1;
nodes = (
(137,0,o),
(248,16,o),
(386,51,cs),
(419,59,o),
(451,67,o),
(457,70,cs),
(472,79,o),
(479,92,o),
(479,116,cs),
(479,131,o),
(475,144,o),
(466,152,c),
(382,119,o),
(347,108,o),
(296,98,c),
(260,100,o),
(229,108,o),
(203,122,cs),
(150,151,o),
(122,200,o),
(122,257,c),
(166,282,o),
(209,294,o),
(250,294,cs),
(279,294,o),
(294,291,o),
(347,271,c),
(365,303,l),
(309,352,o),
(271,374,o),
(225,374,cs),
(198,374,o),
(172,364,o),
(148,345,cs),
(99,307,o),
(65,237,o),
(65,180,cs),
(65,139,o),
(93,100,o),
(125,79,c),
(84,77,o),
(43,76,o),
(0,76,cs),
(-6,76,o),
(-8,73,o),
(-8,68,cs),
(-8,8,ls),
(-8,3,o),
(-6,0,o),
(0,0,cs)
);
}
);
width = 505;
},
{
anchors = (
{
name = bottom;
pos = (264,-110);
},
{
name = bottom.dot;
pos = (264,-38);
},
{
name = top.far;
pos = (221,616);
},
{
name = top.near;
pos = (221,425);
}
);
layerId = "26E2967D-790C-4793-AF2A-2D0AD74EDC69";
shapes = (
{
closed = 1;
nodes = (
(146,9,o),
(250,17,o),
(353,39,cs),
(404,49,o),
(437,58,o),
(449,64,cs),
(475,77,o),
(491,106,o),
(491,138,cs),
(491,154,o),
(486,177,o),
(475,187,c),
(391,153,o),
(314,137,o),
(209,131,c),
(201,135,o),
(193,140,o),
(186,145,cs),
(149,172,o),
(131,212,o),
(128,261,c),
(169,283,o),
(203,293,o),
(250,293,cs),
(279,293,o),
(314,286,o),
(355,270,c),
(376,311,l),
(321,372,o),
(271,403,o),
(225,403,cs),
(199,403,o),
(173,393,o),
(148,373,cs),
(97,333,o),
(57,251,o),
(57,189,cs),
(57,168,o),
(64,147,o),
(78,127,c),
(52,127,o),
(26,127,o),
(0,127,cs),
(-6,127,o),
(-8,125,o),
(-8,119,cs),
(-8,17,ls),
(-8,12,o),
(-6,9,o),
(0,9,cs)
);
}
);
width = 517;
}
);
unicode = 65227;
},
{
glyphname = "fehDotless-ar";
layers = (
{
anchors = (
{
name = bottom;
pos = (388,-100);
},
{
name = bottom.dot;
pos = (648,-11);
},
{
name = top.far;
pos = (368,571);
},
{
name = top.near;
pos = (619,485);
}
);
layerId = master01;
shapes = (
{
closed = 1;
nodes = (
(493,0,o),
(683,27,o),
(762,89,c),
(803,130,o),
(797,168,o),
(797,191,cs),
(797,246,o),
(789,295,o),
(774,341,cs),
(742,431,o),
(686,481,o),
(619,481,cs),
(595,481,o),
(573,470,o),
(554,450,cs),
(519,415,o),
(495,354,o),
(495,287,cs),
(495,219,o),
(536,170,o),
(594,170,cs),
(644,170,o),
(692,189,o),
(736,225,c),
(742,200,o),
(746,174,o),
(750,147,c),
(661,107,o),
(474,76,o),
(342,76,cs),
(287,76,o),
(243,82,o),
(209,92,cs),
(142,114,o),
(114,150,o),
(114,231,cs),
(114,247,o),
(115,264,o),
(118,280,c),
(82,280,l),
(72,248,o),
(68,212,o),
(68,170,cs),
(68,57,o),
(152,0,o),
(320,0,cs)
);
},
{
closed = 1;
nodes = (
(559,246,o),
(533,264,o),
(533,307,cs),
(533,352,o),
(564,396,o),
(604,396,cs),
(656,396,o),
(697,352,o),
(723,271,c),
(685,255,o),
(650,246,o),
(618,246,cs)
);
}
);
width = 848;
},
{
anchors = (
{
name = bottom;
pos = (412,-110);
},
{
name = bottom.dot;
pos = (637,-28);
},
{
name = top.far;
pos = (358,621);
},
{
name = top.near;
pos = (622,535);
}
);
layerId = "26E2967D-790C-4793-AF2A-2D0AD74EDC69";
shapes = (
{
closed = 1;
nodes = (
(477,0,o),
(657,9,o),
(771,81,c),
(806,109,o),
(806,159,o),
(806,183,cs),
(806,247,o),
(798,305,o),
(781,357,cs),
(747,459,o),
(684,522,o),
(621,522,cs),
(598,522,o),
(576,512,o),
(554,492,cs),
(512,453,o),
(483,382,o),
(483,312,cs),
(483,240,o),
(529,195,o),
(599,195,cs),
(647,195,o),
(699,215,o),
(736,243,c),
(744,219,o),
(750,198,o),
(754,178,c),
(669,140,o),
(517,118,o),
(343,118,cs),
(291,118,o),
(249,124,o),
(217,135,cs),
(154,156,o),
(124,195,o),
(124,273,cs),
(124,288,o),
(125,305,o),
(127,323,c),
(83,323,l),
(69,277,o),
(63,241,o),
(63,213,cs),
(63,75,o),
(145,0,o),
(307,0,cs)
);
},
{
closed = 1;
nodes = (
(573,280,o),
(535,305,o),
(535,337,cs),
(535,376,o),
(566,403,o),
(600,403,cs),
(640,403,o),
(680,368,o),
(713,298,c),
(677,286,o),
(645,280,o),
(618,280,cs)
);
}
);
width = 848;
}
);
unicode = 1697;
},
{
glyphname = "fehDotless-ar.fina";
layers = (
{
anchors = (
{
name = bottom;
pos = (338,-100);
},
{
name = bottom.dot;
pos = (628,-31);
},
{
name = top.far;
pos = (635,588);
},
{
name = top.near;
pos = (635,387);
}
);
background = {
anchors = (
{
name = bottom.dot;
pos = (628,-31);
},
{
name = top;
pos = (625,538);
},
{
name = top.dot;
pos = (625,407);
}
);
};
layerId = master01;
shapes = (
{
closed = 1;
nodes = (
(446,0,o),
(555,16,o),
(621,40,c),
(675,13,o),
(744,0,o),
(826,0,cs),
(832,0,o),
(834,3,o),
(834,8,cs),
(834,68,ls),
(834,73,o),
(832,76,o),
(826,76,cs),
(784,76,o),
(743,80,o),
(704,87,c),
(743,121,o),
(762,163,o),
(762,211,cs),
(762,240,o),
(757,268,o),
(747,297,cs),
(727,353,o),
(692,391,o),
(657,391,cs),
(592,391,o),
(534,351,o),
(499,287,cs),
(491,273,o),
(481,212,o),
(481,183,cs),
(481,153,o),
(496,119,o),
(521,93,c),
(465,82,o),
(406,76,o),
(342,76,cs),
(287,76,o),
(243,82,o),
(209,92,cs),
(142,114,o),
(114,150,o),
(114,231,cs),
(114,247,o),
(115,264,o),
(118,280,c),
(82,280,l),
(72,248,o),
(68,212,o),
(68,170,cs),
(68,57,o),
(152,0,o),
(320,0,cs)
);
},
{
closed = 1;
nodes = (
(576,136,o),
(546,161,o),
(519,192,c),
(550,253,o),
(610,306,o),
(648,306,cs),
(655,306,o),
(665,299,o),
(677,284,cs),
(701,256,o),
(719,214,o),
(723,181,c),
(695,157,o),
(658,137,o),
(611,119,c)
);
}
);
width = 817;
},
{
anchors = (
{
name = bottom;
pos = (351,-110);
},
{
name = bottom.dot;
pos = (615,-38);
},
{
name = top.far;
pos = (630,611);
},
{
name = top.near;
pos = (633,428);
}
);
layerId = "26E2967D-790C-4793-AF2A-2D0AD74EDC69";
shapes = (
{
closed = 1;
nodes = (
(422,0,o),
(544,19,o),
(615,44,c),
(671,21,o),
(744,9,o),
(834,9,cs),
(840,9,o),
(843,12,o),
(843,17,cs),
(843,119,ls),
(843,125,o),
(840,127,o),
(834,127,cs),
(804,128,o),
(773,128,o),
(742,128,c),
(762,155,o),
(772,180,o),
(772,204,cs),
(772,233,o),
(766,263,o),
(754,294,cs),
(731,357,o),
(692,400,o),
(655,400,cs),
(595,400,o),
(524,347,o),
(488,279,cs),
(479,263,o),
(470,209,o),
(470,174,cs),
(470,158,o),
(476,142,o),
(488,125,c),
(401,118,o),
(378,118,o),
(343,118,cs),
(291,118,o),
(249,124,o),
(217,135,cs),
(154,156,o),
(124,195,o),
(124,273,cs),
(124,288,o),
(125,305,o),
(127,323,c),
(83,323,l),
(69,277,o),
(63,241,o),
(63,213,cs),
(63,75,o),
(145,0,o),
(307,0,cs)
);
},
{
closed = 1;
nodes = (
(585,134,o),
(549,156,o),
(524,184,c),
(569,246,o),
(609,277,o),
(645,277,cs),
(652,277,o),
(662,271,o),
(671,260,cs),
(688,241,o),
(706,208,o),
(715,173,c),
(691,151,o),
(658,135,o),
(617,124,c)
);
}
);
width = 832;
}
);
},
{
glyphname = "qafDotless-ar";
layers = (
{
anchors = (
{
name = bottom;
pos = (268,-328);
},
{
name = bottom.dot;
pos = (268,-273);
},
{
name = top.far;
pos = (407,515);
},
{
name = top.near;
pos = (408,344);
}
);
background = {
anchors = (
{
name = top;
pos = (409,449);
},
{
name = top.dot;
pos = (413,358);
}
);
};
layerId = master01;
shapes = (
{
closed = 1;
nodes = (
(344,-262,o),
(436,-226,o),
(499,-171,cs),
(562,-116,o),
(596,-43,o),
(596,41,cs),
(596,92,o),
(588,141,o),
(572,186,cs),
(539,278,o),
(476,340,o),
(413,340,cs),
(391,340,o),
(368,330,o),
(346,310,cs),
(302,269,o),
(272,197,o),
(272,129,cs),
(272,51,o),
(321,0,o),
(397,0,cs),
(448,0,o),
(491,20,o),
(534,60,c),
(540,28,o),
(544,-9,o),
(545,-51,c),
(529,-76,o),
(506,-99,o),
(476,-118,cs),
(417,-157,o),
(338,-179,o),
(269,-179,cs),
(168,-179,o),
(113,-125,o),
(113,-24,cs),
(113,-6,o),
(117,18,o),
(124,47,c),
(87,56,l),
(71,-10,o),
(68,-35,o),
(68,-74,cs),
(68,-193,o),
(141,-262,o),
(266,-262,cs)
);
},
{
closed = 1;
nodes = (
(351,82,o),
(311,109,o),
(311,157,cs),
(311,170,o),
(315,185,o),
(323,200,cs),
(341,231,o),
(370,255,o),
(397,255,cs),
(412,255,o),
(427,249,o),
(444,237,cs),
(476,214,o),
(505,164,o),
(523,105,c),
(489,89,o),
(455,82,o),
(421,82,cs)
);
}
);
width = 647;
},
{
anchors = (
{
name = bottom;
pos = (254,-311);
},
{
name = bottom.dot;
pos = (254,-256);
},
{
name = top.far;
pos = (409,549);
},
{
name = top.near;
pos = (413,398);
}
);
background = {
anchors = (
{
name = bottom;
pos = (254,-326);
},
{
name = bottom.dot;
pos = (254,-266);
},
{
name = top;
pos = (257,619);
}
);
};
layerId = "26E2967D-790C-4793-AF2A-2D0AD74EDC69";
shapes = (
{
closed = 1;
nodes = (
(334,-252,o),
(434,-216,o),
(499,-162,cs),
(564,-108,o),
(601,-35,o),
(601,50,cs),
(601,109,o),
(593,162,o),
(576,211,cs),
(542,308,o),
(478,366,o),
(411,366,cs),
(386,366,o),
(363,355,o),
(340,333,cs),
(294,290,o),
(264,213,o),
(264,138,cs),
(264,50,o),
(311,0,o),
(394,0,cs),
(437,0,o),
(479,20,o),
(521,61,c),
(528,31,o),
(532,0,o),
(535,-31,c),
(512,-49,o),
(488,-64,o),
(465,-77,cs),
(396,-115,o),
(327,-134,o),
(263,-134,cs),
(170,-134,o),
(123,-86,o),
(123,7,cs),
(123,30,o),
(128,57,o),
(137,87,c),
(93,98,l),
(76,35,o),
(68,-13,o),
(68,-47,cs),
(68,-180,o),
(132,-252,o),
(251,-252,cs)
);
},
{
closed = 1;
nodes = (
(353,110,o),
(318,131,o),
(318,171,cs),
(318,184,o),
(321,195,o),
(326,206,cs),
(338,229,o),
(363,246,o),
(393,246,cs),
(406,246,o),
(419,242,o),
(432,234,cs),
(459,217,o),
(483,181,o),
(503,125,c),
(472,115,o),
(442,110,o),
(414,110,cs)
);
}
);
width = 652;
}
);
unicode = 1647;
},
{
glyphname = "qafDotless-ar.medi";
layers = (
{
anchors = (
{
name = bottom;
pos = (198,-100);
},
{
name = bottom.dot;
pos = (197,-31);
},
{
name = top.far;
pos = (204,588);
},
{
name = top.near;
pos = (204,378);
}
);
background = {
anchors = (
{
name = bottom;
pos = (212,-100);
},
{
name = bottom.dot;
pos = (211,-31);
},
{
name = top;
pos = (218,538);
},
{
name = top.dot;
pos = (218,387);
}
);
};
layerId = master01;
shapes = (
{
closed = 1;
nodes = (
(86,0,o),
(144,9,o),
(190,32,c),
(246,10,o),
(312,0,o),
(395,0,cs),
(401,0,o),
(404,3,o),
(404,8,cs),
(404,68,ls),
(404,73,o),
(401,76,o),
(395,76,cs),
(345,76,o),
(309,78,o),
(288,81,c),
(316,114,o),
(331,152,o),
(331,195,cs),
(331,223,o),
(326,252,o),
(315,281,cs),
(295,338,o),
(261,374,o),
(226,374,cs),
(162,374,o),
(102,333,o),
(68,270,cs),
(60,256,o),
(50,200,o),
(50,166,cs),
(50,137,o),
(62,108,o),
(87,80,c),
(66,77,o),
(38,76,o),
(1,76,cs),
(-5,76,o),
(-8,73,o),
(-8,67,cs),
(-8,9,ls),
(-8,3,o),
(-5,0,o),
(1,0,cs)
);
},
{
closed = 1;
nodes = (
(149,119,o),
(115,143,o),
(87,175,c),
(119,237,o),
(179,289,o),
(217,289,cs),
(224,289,o),
(233,282,o),
(245,269,cs),
(267,242,o),
(288,197,o),
(292,164,c),
(261,137,o),
(227,117,o),
(190,103,c)
);
}
);
width = 387;
},
{
anchors = (
{
name = bottom;
pos = (214,-110);
},
{
name = bottom.dot;
pos = (212,-38);
},
{
name = top.far;
pos = (227,611);
},
{
name = top.near;
pos = (230,428);
}
);
layerId = "26E2967D-790C-4793-AF2A-2D0AD74EDC69";
shapes = (
{
closed = 1;
nodes = (
(84,9,o),
(146,17,o),
(207,42,c),
(265,20,o),
(336,9,o),
(421,9,cs),
(426,9,o),
(429,12,o),
(429,17,cs),
(429,119,ls),
(429,125,o),
(426,127,o),
(421,127,cs),
(393,127,o),
(364,128,o),
(336,128,c),
(351,153,o),
(358,178,o),
(358,204,cs),
(358,232,o),
(352,262,o),
(341,293,cs),
(318,355,o),
(278,400,o),
(242,400,cs),
(182,400,o),
(111,347,o),
(74,279,cs),
(65,263,o),
(56,200,o),
(56,174,cs),
(56,159,o),
(61,144,o),
(71,128,c),
(47,128,o),
(24,127,o),
(1,127,cs),
(-5,127,o),
(-8,124,o),
(-8,118,cs),
(-8,18,ls),
(-8,12,o),
(-5,9,o),
(1,9,cs)
);
},
{
closed = 1;
nodes = (
(170,134,o),
(134,156,o),
(110,184,c),
(156,246,o),
(196,277,o),
(231,277,cs),
(237,277,o),
(245,273,o),
(252,265,cs),
(271,247,o),
(292,209,o),
(302,173,c),
(276,151,o),
(243,135,o),
(203,124,c)
);
}
);
width = 412;
}
);
},
{
glyphname = "qafDotless-ar.init";
layers = (
{
anchors = (
{
name = bottom;
pos = (227,-100);
},
{
name = bottom.dot;
pos = (227,-31);
},
{
name = top.far;
pos = (183,609);
},
{
name = top.near;
pos = (189,468);
}
);
layerId = master01;
shapes = (
{
closed = 1;
nodes = (
(164,0,o),
(288,39,o),
(334,72,c),
(368,101,o),
(369,151,o),
(369,174,cs),
(369,227,o),
(361,276,o),
(346,321,cs),
(314,412,o),
(259,464,o),
(190,464,cs),
(168,464,o),
(147,454,o),
(128,437,cs),
(92,402,o),
(66,338,o),
(66,270,cs),
(66,203,o),
(107,153,o),
(166,153,cs),
(215,153,o),
(267,174,o),
(308,208,c),
(313,183,o),
(318,157,o),
(321,130,c),
(237,93,o),
(145,76,o),
(1,76,cs),
(-5,76,o),
(-8,73,o),
(-8,67,cs),
(-8,9,ls),
(-8,3,o),
(-5,0,o),
(1,0,cs)
);
},
{
closed = 1;
nodes = (
(130,229,o),
(104,248,o),
(104,290,cs),
(104,335,o),
(135,379,o),
(175,379,cs),
(227,379,o),
(269,335,o),
(295,254,c),
(257,237,o),
(222,229,o),
(189,229,cs)
);
}
);
width = 420;
},
{
anchors = (
{
name = bottom;
pos = (222,-110);
},
{
name = bottom.dot;
pos = (224,-28);
},
{
name = top.far;
pos = (217,616);
},
{
name = top.near;
pos = (219,466);
}
);
layerId = "26E2967D-790C-4793-AF2A-2D0AD74EDC69";
shapes = (
{
closed = 1;
nodes = (
(168,9,o),
(297,37,o),
(342,62,c),
(379,85,o),
(376,142,o),
(376,163,cs),
(376,208,o),
(370,252,o),
(357,292,cs),
(329,385,o),
(273,453,o),
(218,453,cs),
(192,453,o),
(168,442,o),
(147,425,cs),
(106,393,o),
(79,333,o),
(79,267,cs),
(79,207,o),
(116,162,o),
(192,162,cs),
(239,162,o),
(277,177,o),
(309,205,c),
(315,189,o),
(319,177,o),
(322,168,c),
(243,132,o),
(147,127,o),
(1,127,cs),
(-5,127,o),
(-8,125,o),
(-8,119,cs),
(-8,18,ls),
(-8,12,o),
(-5,9,o),
(1,9,cs)
);
},
{
closed = 1;
nodes = (
(152,235,o),
(130,251,o),
(130,283,cs),
(130,308,o),
(155,333,o),
(196,333,cs),
(237,333,o),
(264,307,o),
(290,249,c),
(261,240,o),
(233,235,o),
(206,235,cs)
);
}
);
width = 427;
}
);
},
{
glyphname = "qafDotless-ar.fina";
layers = (
{
anchors = (
{
name = bottom;
pos = (268,-328);
},
{
name = bottom.dot;
pos = (268,-273);
},
{
name = top.far;
pos = (407,515);
},
{
name = top.near;
pos = (408,354);
}
);
layerId = master01;
shapes = (
{
closed = 1;
nodes = (
(315,-262,o),
(364,-250,o),
(414,-227,cs),
(514,-180,o),
(580,-99,o),
(594,0,c),
(650,0,ls),
(656,0,o),
(659,3,o),
(659,8,cs),
(659,68,ls),
(659,73,o),
(656,76,o),
(650,76,cs),
(595,76,l),
(591,122,o),
(580,166,o),
(562,208,cs),
(527,293,o),
(470,348,o),
(413,348,cs),
(391,348,o),
(368,338,o),
(346,318,cs),
(302,278,o),
(272,205,o),
(272,137,cs),
(272,84,o),
(291,51,o),
(334,30,cs),
(378,9,o),
(472,1,o),
(542,1,c),
(545,-51,l),
(492,-130,o),
(386,-179,o),
(269,-179,cs),
(168,-179,o),
(113,-125,o),
(113,-24,cs),
(113,-6,o),
(117,18,o),
(124,47,c),
(87,56,l),
(71,-10,o),
(68,-35,o),
(68,-74,cs),
(68,-193,o),
(141,-262,o),
(266,-262,cs)
);
},
{
closed = 1;
nodes = (
(472,79,o),
(431,82,o),
(409,87,cs),
(386,91,o),
(367,97,o),
(352,104,cs),
(322,119,o),
(311,138,o),
(311,166,cs),
(311,179,o),
(315,193,o),
(323,208,cs),
(340,239,o),
(370,263,o),
(397,263,cs),
(449,263,o),
(499,201,o),
(529,78,c)
);
}
);
width = 642;
},
{
anchors = (
{
name = bottom;
pos = (254,-311);
},
{
name = bottom.dot;
pos = (254,-256);
},
{
name = top.far;
pos = (409,568);
},
{
name = top.near;
pos = (413,417);
}
);
layerId = "26E2967D-790C-4793-AF2A-2D0AD74EDC69";
shapes = (
{
closed = 1;
nodes = (
(303,-252,o),
(355,-240,o),
(408,-215,cs),
(514,-166,o),
(577,-85,o),
(589,9,c),
(641,9,ls),
(646,9,o),
(649,12,o),
(649,17,cs),
(649,119,ls),
(649,125,o),
(646,127,o),
(641,127,cs),
(586,127,l),
(580,168,o),
(569,206,o),
(556,239,cs),
(521,329,o),
(465,387,o),
(409,387,cs),
(385,387,o),
(362,376,o),
(340,354,cs),
(294,310,o),
(264,232,o),
(264,159,cs),
(264,87,o),
(286,51,o),
(357,29,cs),
(387,19,o),
(440,13,o),
(521,10,c),
(526,-31,l),
(437,-100,o),
(349,-134,o),
(263,-134,cs),
(170,-134,o),
(123,-86,o),
(123,7,cs),
(123,30,o),
(128,57,o),
(137,87,c),
(93,98,l),
(76,35,o),
(68,-13,o),
(68,-47,cs),
(68,-180,o),
(132,-252,o),
(251,-252,cs)
);
},
{
closed = 1;
nodes = (
(456,130,o),
(431,132,o),
(415,134,cs),
(384,138,o),
(361,145,o),
(345,155,cs),
(326,167,o),
(316,182,o),
(316,202,cs),
(316,212,o),
(319,223,o),
(325,232,cs),
(337,252,o),
(360,268,o),
(387,268,cs),
(432,268,o),
(468,221,o),
(496,128,c)
);
}
);
width = 632;
}
);
},
{
glyphname = "kaf-ar";
layers = (
{
anchors = (
{
name = bottom;
pos = (264,-100);
},
{
name = bottom.dot;
pos = (264,-31);
},
{
name = top.far;
pos = (231,438);
},
{
name = top.near;
pos = (231,417);
}
);
layerId = master01;
shapes = (
{
closed = 1;
nodes = (
(309,0,o),
(388,6,o),
(462,17,c),
(483,44,o),
(498,71,o),
(498,108,cs),
(498,147,o),
(485,287,o),
(459,530,c),
(485,552,l),
(473,592,o),
(456,646,o),
(450,671,c),
(402,660,o),
(384,636,o),
(384,592,cs),
(384,552,o),
(402,419,o),
(419,333,cs),
(433,254,o),
(447,175,o),
(460,96,c),
(388,83,o),
(316,76,o),
(245,76,cs),
(173,76,o),
(85,85,o),
(33,97,c),
(25,84,o),
(17,43,o),
(17,20,cs),
(17,14,o),
(41,10,o),
(90,6,cs),
(138,2,o),
(184,0,o),
(226,0,cs)
);
},
{
closed = 1;
nodes = (
(228,194,o),
(296,247,o),
(296,274,cs),
(296,282,o),
(294,288,o),
(287,293,cs),
(270,305,o),
(227,304,o),
(205,315,c),
(209,336,o),
(240,364,o),
(256,364,cs),
(261,364,o),
(265,362,o),
(268,359,c),
(284,366,l),
(279,384,o),
(268,394,o),
(250,394,cs),
(213,394,o),
(172,348,o),
(172,316,cs),
(172,276,o),
(208,269,o),
(271,268,c),
(267,260,o),
(259,253,o),
(249,246,cs),
(226,230,o),
(192,217,o),
(157,214,c),
(157,203,o),
(163,194,o),
(180,194,cs)
);
}
);
width = 558;
},
{
anchors = (
{
name = bottom;
pos = (295,-110);
},
{
name = bottom.dot;
pos = (295,-38);
},
{
name = top.far;
pos = (264,468);
},
{
name = top.near;
pos = (264,447);
}
);
layerId = "26E2967D-790C-4793-AF2A-2D0AD74EDC69";
shapes = (
{
closed = 1;
nodes = (
(358,1,o),
(443,6,o),
(520,17,c),
(543,46,o),
(559,96,o),
(559,130,cs),
(559,187,o),
(548,321,o),
(527,533,c),
(559,557,l),
(544,594,o),
(531,635,o),
(519,680,c),
(459,680,o),
(411,634,o),
(411,577,cs),
(411,547,o),
(437,424,o),
(452,366,cs),
(458,339,o),
(476,267,o),
(508,139,c),
(435,126,o),
(360,119,o),
(283,119,cs),
(212,119,o),
(112,128,o),
(60,140,c),
(46,112,o),
(34,59,o),
(34,20,cs),
(34,15,o),
(62,10,o),
(116,7,cs),
(171,3,o),
(220,1,o),
(264,1,cs)
);
},
{
closed = 1;
nodes = (
(262,225,o),
(331,278,o),
(331,306,cs),
(331,313,o),
(328,320,o),
(321,324,cs),
(304,337,o),
(261,336,o),
(239,346,c),
(244,368,o),
(275,395,o),
(291,395,cs),
(295,395,o),
(299,393,o),
(302,390,c),
(318,397,l),
(314,416,o),
(303,425,o),
(285,425,cs),
(248,425,o),
(206,380,o),
(206,348,cs),
(206,308,o),
(242,300,o),
(305,299,c),
(301,292,o),
(294,285,o),
(283,277,cs),
(260,262,o),
(226,248,o),
(191,245,c),
(191,234,o),
(198,225,o),
(214,225,cs)
);
}
);
width = 618;
}
);
unicode = (1603,65241);
},
{
glyphname = "kaf-ar.fina";
layers = (
{
anchors = (
{
name = bottom;
pos = (366,-100);
},
{
name = bottom.dot;
pos = (366,-31);
},
{
name = top.far;
pos = (359,448);
},
{
name = top.near;
pos = (359,417);
}
);
layerId = master01;
shapes = (
{
closed = 1;
nodes = (
(420,0,o),
(511,16,o),
(615,52,c),
(643,18,o),
(683,0,o),
(745,0,cs),
(750,0,o),
(753,3,o),
(753,8,cs),
(753,68,ls),
(753,73,o),
(750,76,o),
(745,76,cs),
(705,76,o),
(670,85,o),
(640,103,c),
(637,242,o),
(633,415,o),
(626,671,c),
(601,653,o),
(579,635,o),
(560,615,c),
(578,356,o),
(586,239,o),
(600,107,c),
(516,86,o),
(433,76,o),
(329,76,cs),
(201,76,o),
(114,86,o),
(114,184,cs),
(114,198,o),
(115,211,o),
(117,222,c),
(82,222,l),
(72,196,o),
(68,171,o),
(68,146,cs),
(68,113,o),
(76,86,o),
(92,64,cs),
(124,20,o),
(185,0,o),
(308,0,cs)
);
},
{
closed = 1;
nodes = (
(355,194,o),
(423,247,o),
(423,274,cs),
(423,282,o),
(421,288,o),
(414,293,cs),
(397,305,o),
(354,304,o),
(332,315,c),
(336,336,o),
(367,364,o),
(383,364,cs),
(388,364,o),
(392,362,o),
(395,359,c),
(411,366,l),
(406,384,o),
(395,394,o),
(377,394,cs),
(340,394,o),
(299,348,o),
(299,316,cs),
(299,276,o),
(335,269,o),
(398,268,c),
(394,260,o),
(386,253,o),
(376,246,cs),
(353,230,o),
(319,217,o),
(284,214,c),
(284,203,o),
(290,194,o),
(307,194,cs)
);
}
);
width = 736;
},
{
anchors = (
{
name = bottom;
pos = (355,-110);
},
{
name = bottom.dot;
pos = (355,-38);
},
{
name = top.far;
pos = (354,478);
},
{
name = top.near;
pos = (354,447);
}
);
layerId = "26E2967D-790C-4793-AF2A-2D0AD74EDC69";
shapes = (
{
closed = 1;
nodes = (
(400,0,o),
(500,21,o),
(615,62,c),
(644,25,o),
(683,9,o),
(753,9,cs),
(759,9,o),
(762,12,o),
(762,17,cs),
(762,119,ls),
(762,125,o),
(759,127,o),
(753,127,cs),
(708,127,o),
(674,134,o),
(643,155,c),
(643,247,o),
(645,381,o),
(652,697,c),
(609,678,o),
(568,657,o),
(533,631,c),
(556,416,o),
(576,254,o),
(593,146,c),
(516,130,o),
(442,119,o),
(337,119,cs),
(166,119,o),
(123,128,o),
(123,227,cs),
(123,240,o),
(125,252,o),
(126,265,c),
(82,266,l),
(78,254,o),
(68,189,o),
(68,161,cs),
(68,122,o),
(76,91,o),
(93,67,cs),
(126,21,o),
(185,0,o),
(316,0,cs)
);
},
{
closed = 1;
nodes = (
(355,225,o),
(423,278,o),
(423,306,cs),
(423,313,o),
(421,320,o),
(414,324,cs),
(397,337,o),
(354,336,o),
(332,346,c),
(336,368,o),
(367,395,o),
(383,395,cs),
(388,395,o),
(392,393,o),
(395,390,c),
(411,397,l),
(406,416,o),
(395,425,o),
(377,425,cs),
(340,425,o),
(299,380,o),
(299,348,cs),
(299,308,o),
(335,300,o),
(398,299,c),
(394,292,o),
(386,285,o),
(376,277,cs),
(353,262,o),
(319,248,o),
(284,245,c),
(284,234,o),
(290,225,o),
(307,225,cs)
);
}
);
width = 745;
}
);
unicode = 65242;
},
{
glyphname = "kaf-ar.medi";
layers = (
{
anchors = (
{
name = bottom;
pos = (198,-100);
},
{
name = bottom.dot;
pos = (197,-31);
},
{
name = top.far;
pos = (110,577);
},
{
name = top.near;
pos = (110,577);
}
);
layerId = master01;
shapes = (
{
closed = 1;
nodes = (
(119,0,o),
(207,16,o),
(262,47,cs),
(275,55,o),
(287,63,o),
(297,73,c),
(343,22,o),
(403,0,o),
(467,0,cs),
(473,0,o),
(476,3,o),
(476,8,cs),
(476,68,ls),
(476,73,o),
(473,76,o),
(467,76,cs),
(416,76,o),
(369,92,o),
(329,124,c),
(333,136,o),
(335,150,o),
(335,164,cs),
(335,195,o),
(321,228,o),
(293,264,cs),
(241,333,o),
(145,392,o),
(48,417,c),
(162,463,o),
(274,511,o),
(388,558,cs),
(417,570,o),
(430,585,o),
(430,616,cs),
(430,630,o),
(424,645,o),
(415,654,c),
(166,552,o),
(50,500,o),
(21,471,cs),
(7,457,o),
(1,440,o),
(1,415,cs),
(1,380,o),
(28,359,o),
(86,331,cs),
(136,307,o),
(177,281,o),
(210,253,cs),
(253,217,o),
(281,178,o),
(295,135,c),
(266,120,o),
(239,109,o),
(213,102,cs),
(154,85,o),
(83,76,o),
(0,76,cs),
(-6,76,o),
(-8,73,o),
(-8,68,cs),
(-8,8,ls),
(-8,3,o),
(-6,0,o),
(0,0,cs)
);
}
);
width = 459;
},
{
anchors = (
{
name = bottom;
pos = (214,-110);
},
{
name = bottom.dot;
pos = (212,-38);
},
{
name = top.far;
pos = (110,614);
},
{
name = top.near;
pos = (110,614);
}
);
background = {
anchors = (
{
name = center;
pos = (332,580);
},
{
name = top;
pos = (153,677);
},
{
name = top.dot;
pos = (92,576);
}
);
};
layerId = "26E2967D-790C-4793-AF2A-2D0AD74EDC69";
shapes = (
{
closed = 1;
nodes = (
(117,9,o),
(206,23,o),
(266,51,cs),
(286,61,o),
(303,72,o),
(315,83,c),
(362,34,o),
(416,9,o),
(476,9,cs),
(482,9,o),
(485,12,o),
(485,17,cs),
(485,119,ls),
(485,125,o),
(482,127,o),
(476,127,cs),
(432,127,o),
(392,139,o),
(355,162,c),
(356,164,o),
(356,168,o),
(356,173,cs),
(356,206,o),
(343,240,o),
(317,277,cs),
(267,347,o),
(181,405,o),
(88,428,c),
(254,485,o),
(319,511,o),
(396,549,cs),
(427,564,o),
(450,596,o),
(450,630,cs),
(450,650,o),
(443,667,o),
(429,680,c),
(322,636,o),
(65,527,o),
(42,506,cs),
(23,489,o),
(10,461,o),
(10,434,cs),
(10,403,o),
(44,367,o),
(113,328,cs),
(155,303,o),
(188,281,o),
(213,263,cs),
(257,228,o),
(290,192,o),
(305,161,c),
(282,149,o),
(248,141,o),
(202,136,cs),
(154,130,o),
(87,127,o),
(0,127,cs),
(-6,127,o),
(-8,125,o),
(-8,119,cs),
(-8,17,ls),
(-8,12,o),
(-6,9,o),
(0,9,cs)
);
}
);
width = 467;
}
);
unicode = 65244;
},
{
glyphname = "kaf-ar.init";
layers = (
{
anchors = (
{
name = bottom;
pos = (198,-100);
},
{
name = bottom.dot;
pos = (197,-31);
},
{
name = top.far;
pos = (109,586);
},
{
name = top.near;
pos = (109,586);
}
);
layerId = master01;
shapes = (
{
closed = 1;
nodes = (
(110,0,o),
(192,14,o),
(248,40,cs),
(306,68,o),
(335,109,o),
(335,164,cs),
(335,195,o),
(321,228,o),
(293,263,cs),
(238,334,o),
(138,395,o),
(37,420,c),
(112,455,o),
(218,501,o),
(354,558,cs),
(385,570,o),
(397,585,o),
(397,616,cs),
(397,633,o),
(392,646,o),
(382,654,c),
(275,611,o),
(204,580,o),
(26,488,cs),
(19,484,o),
(0,422,o),
(0,393,cs),
(0,355,o),
(26,328,o),
(61,328,cs),
(70,328,o),
(78,329,o),
(86,331,c),
(146,302,o),
(191,271,o),
(226,239,cs),
(260,207,o),
(283,172,o),
(295,135,c),
(267,120,o),
(239,109,o),
(213,102,cs),
(160,87,o),
(92,76,o),
(0,76,cs),
(-6,76,o),
(-8,73,o),
(-8,68,cs),
(-8,8,ls),
(-8,3,o),
(-6,0,o),
(0,0,cs)
);
}
);
width = 415;
},
{
anchors = (
{
name = bottom;
pos = (214,-110);
},
{
name = bottom.dot;
pos = (212,-38);
},
{
name = top.far;
pos = (109,612);
},
{
name = top.near;
pos = (109,612);
}
);
layerId = "26E2967D-790C-4793-AF2A-2D0AD74EDC69";
shapes = (
{
closed = 1;
nodes = (
(117,9,o),
(205,23,o),
(266,51,cs),
(326,79,o),
(356,120,o),
(356,173,cs),
(356,206,o),
(343,241,o),
(317,277,cs),
(265,349,o),
(173,410,o),
(74,435,c),
(203,471,o),
(276,500,o),
(371,546,cs),
(408,564,o),
(425,582,o),
(425,629,cs),
(425,649,o),
(419,666,o),
(405,680,c),
(273,626,o),
(213,599,o),
(44,514,cs),
(37,511,o),
(18,418,o),
(18,389,cs),
(18,353,o),
(50,324,o),
(87,324,cs),
(97,324,o),
(105,325,o),
(113,328,c),
(157,302,o),
(190,280,o),
(213,262,cs),
(258,228,o),
(290,191,o),
(305,161,c),
(282,150,o),
(248,141,o),
(202,136,cs),
(155,130,o),
(88,127,o),
(0,127,cs),
(-6,127,o),
(-8,125,o),
(-8,119,cs),
(-8,17,ls),
(-8,12,o),
(-6,9,o),
(0,9,cs)
);
}
);
width = 443;
}
);
unicode = 65243;
},
{
glyphname = "keheh-ar";
layers = (
{
anchors = (
{
name = bottom;
pos = (450,-100);
},
{
name = bottom.dot;
pos = (450,-31);
},
{
name = ring;
pos = (554,550);
},
{
name = top.far;
pos = (355,575);
},
{
name = top.near;
pos = (355,575);
}
);
layerId = master01;
shapes = (
{
closed = 1;
nodes = (
(532,0,o),
(643,57,o),
(643,164,cs),
(643,194,o),
(629,227,o),
(602,262,cs),
(547,331,o),
(447,395,o),
(343,420,c),
(419,455,o),
(525,501,o),
(661,558,cs),
(690,569,o),
(704,590,o),
(704,622,cs),
(704,637,o),
(698,646,o),
(688,654,c),
(573,607,o),
(513,581,o),
(333,488,cs),
(326,484,o),
(307,422,o),
(307,393,cs),
(307,356,o),
(332,328,o),
(368,328,cs),
(376,328,o),
(384,329,o),
(393,331,c),
(440,308,o),
(479,284,o),
(510,259,cs),
(558,221,o),
(587,180,o),
(603,135,c),
(518,89,o),
(431,76,o),
(316,76,cs),
(243,76,o),
(190,83,o),
(159,97,cs),
(128,110,o),
(113,133,o),
(113,164,cs),
(113,179,o),
(114,193,o),
(117,205,c),
(81,205,l),
(72,184,o),
(68,163,o),
(68,141,cs),
(68,112,o),
(75,88,o),
(89,68,cs),
(122,23,o),
(192,0,o),
(308,0,cs)
);
}
);
width = 722;
},
{
anchors = (
{
name = bottom;
pos = (442,-110);
},
{
name = bottom.dot;
pos = (442,-38);
},
{
name = ring;
pos = (601,556);
},
{
name = top.far;
pos = (355,602);
},
{
name = top.near;
pos = (355,602);
}
);
layerId = "26E2967D-790C-4793-AF2A-2D0AD74EDC69";
shapes = (
{
closed = 1;
nodes = (
(520,0,o),
(654,63,o),
(654,173,cs),
(654,206,o),
(641,241,o),
(615,277,cs),
(563,349,o),
(472,410,o),
(373,435,c),
(496,469,o),
(572,498,o),
(669,546,cs),
(703,563,o),
(724,596,o),
(724,630,cs),
(724,650,o),
(717,667,o),
(704,680,c),
(573,626,o),
(501,594,o),
(342,514,cs),
(335,511,o),
(316,418,o),
(316,389,cs),
(316,353,o),
(349,324,o),
(385,324,cs),
(395,324,o),
(404,325,o),
(412,328,c),
(455,302,o),
(488,280,o),
(510,262,cs),
(555,228,o),
(588,191,o),
(604,160,c),
(522,131,o),
(459,119,o),
(337,119,cs),
(281,119,o),
(238,122,o),
(208,129,cs),
(146,143,o),
(124,172,o),
(123,227,cs),
(123,240,o),
(125,252,o),
(126,265,c),
(82,266,l),
(78,254,o),
(68,189,o),
(68,161,cs),
(68,121,o),
(75,89,o),
(90,66,cs),
(120,20,o),
(174,0,o),
(301,0,cs)
);
}
);
width = 741;
}
);
unicode = (1705,64398);
},
{
glyphname = "keheh-ar.fina";
layers = (
{
anchors = (
{
name = bottom;
pos = (450,-100);
},
{
name = bottom.dot;
pos = (450,-31);
},
{
name = ring;
pos = (562,542);
},
{
name = top.far;
pos = (219,491);
},
{
name = top.near;
pos = (397,576);
}
);
layerId = master01;
shapes = (
{
closed = 1;
nodes = (
(455,0,o),
(554,24,o),
(604,73,c),
(650,22,o),
(710,0,o),
(774,0,cs),
(780,0,o),
(783,3,o),
(783,8,cs),
(783,68,ls),
(783,73,o),
(780,76,o),
(774,76,cs),
(722,76,o),
(676,92,o),
(636,124,c),
(640,137,o),
(642,150,o),
(642,164,cs),
(642,195,o),
(628,228,o),
(600,264,cs),
(547,333,o),
(451,392,o),
(355,417,c),
(468,463,o),
(581,511,o),
(694,558,cs),
(724,570,o),
(733,586,o),
(737,616,cs),
(737,629,o),
(731,645,o),
(721,654,c),
(549,583,o),
(521,573,o),
(449,539,cs),
(378,504,o),
(338,481,o),
(328,471,cs),
(313,457,o),
(308,440,o),
(308,415,cs),
(308,380,o),
(335,359,o),
(393,331,cs),
(443,307,o),
(483,281,o),
(517,254,cs),
(560,218,o),
(587,178,o),
(602,135,c),
(516,88,o),
(428,76,o),
(315,76,cs),
(242,76,o),
(189,83,o),
(158,97,cs),
(127,110,o),
(112,133,o),
(112,164,cs),
(112,179,o),
(113,192,o),
(116,205,c),
(80,205,l),
(71,184,o),
(67,163,o),
(67,141,cs),
(67,48,o),
(143,0,o),
(307,0,cs)
);
}
);
width = 776;
},
{
anchors = (
{
name = bottom;
pos = (442,-110);
},
{
name = bottom.dot;
pos = (442,-38);
},
{
name = ring;
pos = (584,541);
},
{
name = top.far;
pos = (220,518);
},
{
name = top.near;
pos = (387,614);
}
);
layerId = "26E2967D-790C-4793-AF2A-2D0AD74EDC69";
shapes = (
{
closed = 1;
nodes = (
(449,0,o),
(559,29,o),
(614,83,c),
(661,33,o),
(715,9,o),
(775,9,cs),
(781,9,o),
(784,12,o),
(784,17,cs),
(784,119,ls),
(784,125,o),
(781,127,o),
(775,127,cs),
(731,127,o),
(691,139,o),
(654,162,c),
(654,166,o),
(655,169,o),
(655,173,cs),
(655,206,o),
(642,240,o),
(616,277,cs),
(566,347,o),
(480,405,o),
(387,428,c),
(553,485,o),
(618,511,o),
(695,549,cs),
(725,564,o),
(749,596,o),
(749,630,cs),
(749,650,o),
(742,667,o),
(728,680,c),
(625,638,o),
(532,599,o),
(447,560,cs),
(391,535,o),
(356,519,o),
(344,508,cs),
(323,491,o),
(309,462,o),
(309,434,cs),
(309,403,o),
(343,367,o),
(412,328,cs),
(453,303,o),
(487,281,o),
(512,263,cs),
(556,228,o),
(588,193,o),
(604,160,c),
(521,125,o),
(475,119,o),
(337,119,cs),
(281,119,o),
(237,123,o),
(207,129,cs),
(146,142,o),
(123,170,o),
(123,227,cs),
(124,240,o),
(125,252,o),
(126,265,c),
(81,266,l),
(77,252,o),
(67,187,o),
(67,161,cs),
(67,24,o),
(151,0,o),
(300,0,cs)
);
}
);
width = 768;
}
);
unicode = 64399;
},
{
glyphname = "kafswash-ar";
layers = (
{
anchors = (
{
name = bottom;
pos = (774,-100);
},
{
name = top.far;
pos = (387,558);
},
{
name = top.near;
pos = (387,558);
}
);
layerId = master01;
shapes = (
{
closed = 1;
nodes = (
(502,0,o),
(766,17,o),
(942,44,c),
(957,76,o),
(964,103,o),
(964,125,cs),
(964,154,o),
(956,178,o),
(940,199,cs),
(909,241,o),
(850,264,o),
(784,264,cs),
(743,264,o),
(677,262,o),
(584,257,cs),
(492,252,o),
(427,250,o),
(389,250,cs),
(341,250,o),
(280,266,o),
(280,283,cs),
(280,292,o),
(289,305,o),
(307,320,cs),
(343,350,o),
(427,398,o),
(483,421,cs),
(514,433,o),
(529,458,o),
(529,494,cs),
(529,502,o),
(528,510,o),
(526,519,c),
(452,499,o),
(374,458,o),
(322,411,cs),
(269,365,o),
(244,316,o),
(244,265,cs),
(244,198,o),
(281,172,o),
(371,172,cs),
(419,172,o),
(490,175,o),
(583,181,cs),
(676,186,o),
(744,188,o),
(786,188,cs),
(862,188,o),
(906,164,o),
(926,106,c),
(775,88,o),
(520,76,o),
(271,76,cs),
(173,76,o),
(86,84,o),
(10,100,c),
(9,39,o),
(21,23,o),
(85,10,cs),
(118,2,o),
(174,0,o),
(286,0,cs)
);
}
);
width = 1015;
},
{
anchors = (
{
name = bottom;
pos = (760,-110);
},
{
name = top.far;
pos = (392,637);
},
{
name = top.near;
pos = (392,637);
}
);
layerId = "26E2967D-790C-4793-AF2A-2D0AD74EDC69";
shapes = (
{
closed = 1;
nodes = (
(510,9,o),
(782,26,o),
(956,53,c),
(970,85,o),
(977,112,o),
(977,134,cs),
(977,249,o),
(903,324,o),
(791,324,cs),
(755,324,o),
(687,321,o),
(586,316,cs),
(499,312,o),
(433,310,o),
(389,310,cs),
(364,310,o),
(341,313,o),
(319,320,cs),
(298,326,o),
(287,334,o),
(287,342,cs),
(287,351,o),
(299,362,o),
(324,376,cs),
(352,392,o),
(396,410,o),
(483,444,cs),
(518,458,o),
(538,492,o),
(539,540,cs),
(539,555,o),
(537,571,o),
(534,588,c),
(461,569,o),
(376,528,o),
(319,477,cs),
(263,426,o),
(235,374,o),
(235,325,cs),
(235,239,o),
(275,198,o),
(371,198,cs),
(419,198,o),
(491,201,o),
(585,207,cs),
(679,212,o),
(748,214,o),
(791,214,cs),
(867,214,o),
(901,201,o),
(923,157,c),
(766,138,o),
(500,127,o),
(271,127,cs),
(173,127,o),
(86,135,o),
(10,151,c),
(9,71,o),
(40,26,o),
(96,16,cs),
(127,11,o),
(182,9,o),
(286,9,cs)
);
}
);
width = 1015;
}
);
unicode = 1706;
},
{
glyphname = "kafswash-ar.fina";
layers = (
{
anchors = (
{
name = bottom;
pos = (792,-52);
},
{
name = top.far;
pos = (389,567);
},
{
name = top.near;
pos = (389,567);
}
);
layerId = master01;
shapes = (
{
closed = 1;
nodes = (
(501,0,o),
(741,15,o),
(941,43,c),
(946,41,ls),
(985,14,o),
(1028,0,o),
(1074,0,cs),
(1079,0,o),
(1082,3,o),
(1082,8,cs),
(1082,68,ls),
(1082,73,o),
(1079,76,o),
(1074,76,cs),
(1033,76,o),
(999,85,o),
(962,106,c),
(964,125,l),
(964,154,o),
(956,178,o),
(940,199,cs),
(909,241,o),
(850,264,o),
(784,264,cs),
(679,264,o),
(491,250,o),
(389,250,cs),
(363,250,o),
(333,254,o),
(312,262,cs),
(293,268,o),
(280,275,o),
(280,283,cs),
(280,292,o),
(289,305,o),
(307,320,cs),
(343,350,o),
(427,398,o),
(483,421,cs),
(514,433,o),
(529,458,o),
(529,494,cs),
(529,502,o),
(528,510,o),
(526,519,c),
(452,499,o),
(374,458,o),
(322,411,cs),
(269,365,o),
(244,316,o),
(244,265,cs),
(244,198,o),
(281,172,o),
(371,172,cs),
(478,172,o),
(682,188,o),
(786,188,cs),
(862,188,o),
(906,164,o),
(926,106,c),
(775,88,o),
(520,76,o),
(271,76,cs),
(173,76,o),
(86,84,o),
(10,100,c),
(9,83,l),
(10,39,o),
(29,22,o),
(85,10,cs),
(114,3,o),
(167,0,o),
(246,0,cs)
);
}
);
width = 1065;
},
{
anchors = (
{
name = bottom;
pos = (792,-58);
},
{
name = top.far;
pos = (389,637);
},
{
name = top.near;
pos = (389,637);
}
);
layerId = "26E2967D-790C-4793-AF2A-2D0AD74EDC69";
shapes = (
{
closed = 1;
nodes = (
(507,9,o),
(768,24,o),
(943,51,c),
(946,49,ls),
(985,22,o),
(1028,9,o),
(1074,9,cs),
(1079,9,o),
(1082,12,o),
(1082,17,cs),
(1082,119,ls),
(1082,125,o),
(1079,127,o),
(1074,127,cs),
(1038,127,o),
(1004,135,o),
(975,149,c),
(975,156,l),
(969,202,o),
(957,234,o),
(937,260,cs),
(904,300,o),
(853,324,o),
(791,324,cs),
(704,324,o),
(482,310,o),
(389,310,cs),
(364,310,o),
(341,313,o),
(319,320,cs),
(298,326,o),
(287,334,o),
(287,342,cs),
(287,351,o),
(299,362,o),
(324,376,cs),
(351,391,o),
(394,410,o),
(483,444,cs),
(518,458,o),
(538,492,o),
(539,540,cs),
(539,555,o),
(537,571,o),
(534,588,c),
(461,569,o),
(376,528,o),
(319,477,cs),
(263,426,o),
(235,374,o),
(235,325,cs),
(235,239,o),
(275,198,o),
(371,198,cs),
(478,198,o),
(686,214,o),
(791,214,cs),
(867,214,o),
(901,201,o),
(923,157,c),
(766,138,o),
(500,127,o),
(271,127,cs),
(173,127,o),
(86,135,o),
(10,151,c),
(9,132,l),
(9,73,o),
(45,25,o),
(96,16,cs),
(123,11,o),
(173,9,o),
(246,9,cs)
);
}
);
width = 1065;
}
);
},
{
glyphname = "kafswash-ar.medi";
layers = (
{
anchors = (
{
name = bottom;
pos = (680,-52);
},
{
name = top.far;
pos = (264,567);
},
{
name = top.near;
pos = (264,567);
}
);
layerId = master01;
shapes = (
{
closed = 1;
nodes = (
(307,0,o),
(655,16,o),
(814,44,c),
(856,15,o),
(901,0,o),
(947,0,cs),
(953,0,o),
(956,3,o),
(956,8,cs),
(956,68,ls),
(956,73,o),
(953,76,o),
(947,76,cs),
(904,76,o),
(867,86,o),
(835,106,c),
(836,125,l),
(836,154,o),
(829,178,o),
(813,199,cs),
(782,241,o),
(723,264,o),
(656,264,cs),
(553,264,o),
(362,250,o),
(261,250,cs),
(214,250,o),
(152,266,o),
(152,283,cs),
(152,292,o),
(161,305,o),
(179,320,cs),
(216,350,o),
(300,398,o),
(356,421,cs),
(395,438,o),
(401,471,o),
(401,495,cs),
(401,502,o),
(401,510,o),
(399,519,c),
(352,507,o),
(305,486,o),
(258,458,cs),
(163,401,o),
(117,335,o),
(117,265,cs),
(117,198,o),
(154,172,o),
(243,172,cs),
(351,172,o),
(555,188,o),
(659,188,cs),
(735,188,o),
(779,164,o),
(799,106,c),
(632,80,o),
(283,76,o),
(0,76,cs),
(-6,76,o),
(-8,73,o),
(-8,68,cs),
(-8,8,ls),
(-8,3,o),
(-6,0,o),
(0,0,cs)
);
}
);
width = 938;
},
{
anchors = (
{
name = bottom;
pos = (675,-58);
},
{
name = top.far;
pos = (259,637);
},
{
name = top.near;
pos = (259,637);
}
);
layerId = "26E2967D-790C-4793-AF2A-2D0AD74EDC69";
shapes = (
{
closed = 1;
nodes = (
(243,9,o),
(639,27,o),
(816,51,c),
(859,23,o),
(902,9,o),
(947,9,cs),
(953,9,o),
(956,12,o),
(956,17,cs),
(956,119,ls),
(956,125,o),
(953,127,o),
(947,127,cs),
(909,127,o),
(875,136,o),
(845,152,c),
(845,157,l),
(842,189,o),
(833,218,o),
(818,243,cs),
(787,293,o),
(731,324,o),
(660,324,cs),
(573,324,o),
(352,310,o),
(258,310,cs),
(222,310,o),
(156,321,o),
(156,342,cs),
(156,351,o),
(169,362,o),
(193,376,cs),
(220,391,o),
(263,410,o),
(353,444,cs),
(388,458,o),
(408,494,o),
(408,540,cs),
(408,555,o),
(406,571,o),
(403,588,c),
(358,577,o),
(311,558,o),
(264,531,cs),
(169,479,o),
(104,398,o),
(104,325,cs),
(104,239,o),
(143,198,o),
(240,198,cs),
(347,198,o),
(555,214,o),
(660,214,cs),
(735,214,o),
(768,202,o),
(792,157,c),
(644,140,o),
(273,127,o),
(0,127,cs),
(-6,127,o),
(-8,125,o),
(-8,119,cs),
(-8,17,ls),
(-8,12,o),
(-6,9,o),
(0,9,cs)
);
}
);
width = 938;
}
);
},
{
glyphname = "kafswash-ar.init";
layers = (
{
anchors = (
{
name = bottom;
pos = (657,-52);
},
{
name = top.far;
pos = (259,567);
},
{
name = top.near;
pos = (259,567);
}
);
layerId = master01;
shapes = (
{
closed = 1;
nodes = (
(304,0,o),
(655,16,o),
(815,44,c),
(829,76,o),
(836,103,o),
(836,125,cs),
(836,154,o),
(829,178,o),
(813,199,cs),
(782,241,o),
(723,264,o),
(656,264,cs),
(553,264,o),
(362,250,o),
(261,250,cs),
(214,250,o),
(152,266,o),
(152,283,cs),
(152,292,o),
(161,305,o),
(179,320,cs),
(216,350,o),
(300,398,o),
(356,421,cs),
(395,438,o),
(401,471,o),
(401,495,cs),
(401,502,o),
(401,510,o),
(399,519,c),
(352,507,o),
(305,486,o),
(258,458,cs),
(163,401,o),
(117,335,o),
(117,265,cs),
(117,198,o),
(154,172,o),
(243,172,cs),
(351,172,o),
(555,188,o),
(659,188,cs),
(735,188,o),
(779,164,o),
(799,106,c),
(632,80,o),
(283,76,o),
(0,76,cs),
(-6,76,o),
(-8,73,o),
(-8,68,cs),
(-8,8,ls),
(-8,3,o),
(-6,0,o),
(0,0,cs)
);
}
);
width = 887;
},
{
anchors = (
{
name = bottom;
pos = (672,-58);
},
{
name = top.far;
pos = (259,637);
},
{
name = top.near;
pos = (259,637);
}
);
layerId = "26E2967D-790C-4793-AF2A-2D0AD74EDC69";
shapes = (
{
closed = 1;
nodes = (
(264,9,o),
(663,28,o),
(825,53,c),
(839,85,o),
(846,112,o),
(846,134,cs),
(846,248,o),
(772,324,o),
(660,324,cs),
(573,324,o),
(352,310,o),
(258,310,cs),
(233,310,o),
(210,313,o),
(188,320,cs),
(167,326,o),
(156,334,o),
(156,342,cs),
(156,351,o),
(169,362,o),
(193,376,cs),
(220,391,o),
(263,410,o),
(353,444,cs),
(388,458,o),
(408,494,o),
(408,540,cs),
(408,555,o),
(406,571,o),
(403,588,c),
(358,577,o),
(311,558,o),
(264,531,cs),
(169,479,o),
(104,398,o),
(104,325,cs),
(104,239,o),
(143,198,o),
(240,198,cs),
(347,198,o),
(555,214,o),
(660,214,cs),
(735,214,o),
(768,202,o),
(792,157,c),
(644,140,o),
(273,127,o),
(0,127,cs),
(-6,127,o),
(-8,125,o),
(-8,119,cs),
(-8,17,ls),
(-8,12,o),
(-6,9,o),
(0,9,cs)
);
}
);
width = 887;
}
);
},
{
glyphname = "lam-ar";
layers = (
{
anchors = (
{
name = bar;
pos = (450,335);
},
{
name = bottom;
pos = (268,-328);
},
{
name = bottom.dot;
pos = (268,-273);
},
{
name = top.far;
pos = (228,584);
},
{
name = top.near;
pos = (434,660);
}
);
layerId = master01;
shapes = (
{
closed = 1;
nodes = (
(297,-262,o),
(343,-250,o),
(388,-226,cs),
(478,-179,o),
(533,-99,o),
(533,-17,cs),
(533,42,o),
(524,120,o),
(513,220,cs),
(479,532,l),
(502,552,l),
(490,591,o),
(475,641,o),
(466,671,c),
(421,661,o),
(401,638,o),
(401,593,cs),
(401,527,o),
(442,278,o),
(470,107,cs),
(496,-54,l),
(485,-77,o),
(466,-98,o),
(440,-117,cs),
(388,-156,o),
(315,-179,o),
(251,-179,cs),
(164,-179,o),
(113,-122,o),
(113,-24,cs),
(113,-6,o),
(117,18,o),
(124,47,c),
(87,56,l),
(71,-10,o),
(68,-35,o),
(68,-74,cs),
(68,-194,o),
(135,-262,o),
(249,-262,cs)
);
}
);
width = 595;
},
{
anchors = (
{
name = bar;
pos = (450,345);
},
{
name = bottom;
pos = (268,-311);
},
{
name = bottom.dot;
pos = (268,-256);
},
{
name = top.far;
pos = (228,584);
},
{
name = top.near;
pos = (430,669);
}
);
layerId = "26E2967D-790C-4793-AF2A-2D0AD74EDC69";
shapes = (
{
closed = 1;
nodes = (
(305,-252,o),
(355,-242,o),
(401,-220,cs),
(492,-178,o),
(549,-97,o),
(549,-7,cs),
(549,66,o),
(541,123,o),
(532,221,cs),
(502,533,l),
(534,557,l),
(519,594,o),
(506,635,o),
(494,680,c),
(435,680,o),
(386,634,o),
(386,578,cs),
(386,551,o),
(443,219,o),
(471,72,cs),
(493,-45,l),
(472,-64,o),
(451,-81,o),
(430,-93,cs),
(380,-122,o),
(326,-134,o),
(253,-134,cs),
(165,-134,o),
(123,-88,o),
(123,7,cs),
(123,30,o),
(127,57,o),
(136,87,c),
(92,98,l),
(76,35,o),
(67,-13,o),
(67,-47,cs),
(67,-180,o),
(131,-252,o),
(251,-252,cs)
);
}
);
width = 612;
}
);
unicode = (1604,65245);
},
{
glyphname = "lam-ar.rlig";
layers = (
{
anchors = (
{
name = bar;
pos = (405,477);
},
{
name = bottom;
pos = (389,-100);
},
{
name = top.between;
pos = (226,554);
},
{
name = top.far;
pos = (375,737);
},
{
name = top.near;
pos = (375,737);
}
);
background = {
anchors = (
{
name = top_one;
pos = (375,901);
}
);
};
layerId = master01;
shapes = (
{
closed = 1;
nodes = (
(280,98,o),
(330,142,o),
(367,195,cs),
(404,248,o),
(429,311,o),
(429,382,cs),
(429,395,o),
(423,532,o),
(422,546,c),
(449,569,l),
(432,616,o),
(424,646,o),
(413,688,c),
(371,680,o),
(347,661,o),
(347,625,cs),
(347,592,o),
(379,413,o),
(379,362,cs),
(379,304,o),
(354,254,o),
(315,207,cs),
(276,160,o),
(222,116,o),
(164,71,c),
(231,66,l)
);
}
);
width = 518;
},
{
anchors = (
{
name = bar;
pos = (418,488);
},
{
name = bottom;
pos = (419,-110);
},
{
name = top.between;
pos = (226,554);
},
{
name = top.far;
pos = (376,737);
},
{
name = top.near;
pos = (376,737);
}
);
background = {
anchors = (
{
name = top_one;
pos = (375,915);
}
);
};
layerId = "26E2967D-790C-4793-AF2A-2D0AD74EDC69";
shapes = (
{
closed = 1;
nodes = (
(285,116,o),
(330,155,o),
(369,204,cs),
(421,271,o),
(453,351,o),
(453,436,cs),
(453,446,o),
(451,522,o),
(449,549,c),
(482,574,l),
(465,616,o),
(455,647,o),
(442,697,c),
(380,697,o),
(337,662,o),
(337,608,cs),
(337,570,o),
(368,427,o),
(368,387,cs),
(368,329,o),
(349,279,o),
(316,232,cs),
(283,186,o),
(235,142,o),
(177,97,c),
(231,79,l)
);
}
);
width = 546;
}
);
},
{
glyphname = "lam-ar.fina";
layers = (
{
anchors = (
{
name = bar;
pos = (471,328);
},
{
name = bottom;
pos = (268,-328);
},
{
name = bottom.dot;
pos = (268,-273);
},
{
name = top.far;
pos = (228,584);
},
{
name = top.near;
pos = (414,669);
}
);
layerId = master01;
shapes = (
{
closed = 1;
nodes = (
(297,-262,o),
(343,-250,o),
(388,-226,cs),
(478,-179,o),
(535,-99,o),
(533,-17,cs),
(532,16,l),
(553,5,o),
(576,0,o),
(600,0,cs),
(606,0,o),
(608,3,o),
(608,8,cs),
(608,68,ls),
(608,73,o),
(606,76,o),
(600,76,cs),
(573,76,o),
(548,82,o),
(527,93,c),
(524,125,o),
(508,269,o),
(479,532,c),
(502,552,l),
(487,593,o),
(473,641,o),
(466,671,c),
(421,661,o),
(401,638,o),
(401,593,cs),
(401,572,o),
(405,528,o),
(414,461,cs),
(423,395,o),
(443,277,o),
(470,107,cs),
(496,-54,l),
(485,-77,o),
(466,-98,o),
(440,-117,cs),
(388,-156,o),
(315,-179,o),
(251,-179,cs),
(164,-179,o),
(113,-122,o),
(113,-24,cs),
(113,-6,o),
(117,18,o),
(124,47,c),
(87,56,l),
(71,-10,o),
(68,-35,o),
(68,-74,cs),
(68,-194,o),
(135,-262,o),
(249,-262,cs)
);
}
);
width = 591;
},
{
anchors = (
{
name = bar;
pos = (480,327);
},
{
name = bottom;
pos = (268,-311);
},
{
name = bottom.dot;
pos = (268,-256);
},
{
name = top.far;
pos = (228,584);
},
{
name = top.near;
pos = (412,669);
}
);
layerId = "26E2967D-790C-4793-AF2A-2D0AD74EDC69";
shapes = (
{
closed = 1;
nodes = (
(305,-252,o),
(355,-242,o),
(401,-220,cs),
(492,-178,o),
(551,-97,o),
(549,-7,cs),
(548,30,l),
(576,14,o),
(600,9,o),
(625,9,cs),
(631,9,o),
(634,12,o),
(634,17,cs),
(634,119,ls),
(634,125,o),
(631,127,o),
(625,127,cs),
(595,127,o),
(566,136,o),
(539,152,c),
(527,280,o),
(514,408,o),
(502,533,c),
(534,557,l),
(519,594,o),
(506,635,o),
(494,680,c),
(435,680,o),
(386,634,o),
(386,578,cs),
(386,549,o),
(413,410,o),
(426,326,cs),
(450,187,o),
(465,103,o),
(471,72,cs),
(493,-45,l),
(474,-63,o),
(455,-78,o),
(435,-90,cs),
(384,-122,o),
(329,-134,o),
(253,-134,cs),
(165,-134,o),
(123,-88,o),
(123,7,cs),
(123,30,o),
(127,57,o),
(136,87,c),
(92,98,l),
(76,35,o),
(67,-13,o),
(67,-47,cs),
(67,-180,o),
(131,-252,o),
(251,-252,cs)
);
}
);
width = 617;
}
);
unicode = 65246;
},
{
glyphname = "lam-ar.medi";
layers = (
{
anchors = (
{
name = bar;
pos = (112,347);
},
{
name = bottom;
pos = (126,-100);
},
{
name = bottom.dot;
pos = (126,-31);
},
{
name = top.far;
pos = (99,720);
},
{
name = top.near;
pos = (90,669);
}
);
layerId = master01;
shapes = (
{
closed = 1;
nodes = (
(57,0,o),
(89,8,o),
(138,36,c),
(166,12,o),
(204,0,o),
(253,0,cs),
(259,0,o),
(262,3,o),
(262,8,cs),
(262,68,ls),
(262,73,o),
(259,76,o),
(253,76,cs),
(214,76,o),
(179,85,o),
(149,103,c),
(148,148,o),
(146,194,o),
(146,240,cs),
(143,436,o),
(139,579,o),
(135,671,c),
(110,654,o),
(88,636,o),
(68,615,c),
(71,571,o),
(74,526,o),
(78,482,cs),
(90,299,o),
(101,172,o),
(109,102,c),
(74,85,o),
(38,76,o),
(0,76,cs),
(-6,76,o),
(-8,73,o),
(-8,68,cs),
(-8,8,ls),
(-8,3,o),
(-6,0,o),
(0,0,cs)
);
}
);
width = 245;
},
{
anchors = (
{
name = bar;
pos = (109,347);
},
{
name = bottom;
pos = (125,-110);
},
{
name = bottom.dot;
pos = (125,-38);
},
{
name = top.far;
pos = (99,729);
},
{
name = top.near;
pos = (91,669);
}
);
layerId = "26E2967D-790C-4793-AF2A-2D0AD74EDC69";
shapes = (
{
closed = 1;
nodes = (
(52,9,o),
(100,25,o),
(130,44,c),
(156,21,o),
(197,9,o),
(253,9,cs),
(259,9,o),
(262,12,o),
(262,17,cs),
(262,119,ls),
(262,125,o),
(259,127,o),
(253,127,cs),
(207,127,o),
(174,135,o),
(144,155,c),
(144,184,o),
(144,213,o),
(144,271,cs),
(145,434,o),
(150,605,o),
(152,680,c),
(109,661,o),
(69,640,o),
(33,614,c),
(38,566,o),
(43,521,o),
(48,478,cs),
(63,351,o),
(78,240,o),
(93,146,c),
(63,134,o),
(32,127,o),
(0,127,cs),
(-6,127,o),
(-8,125,o),
(-8,119,cs),
(-8,17,ls),
(-8,12,o),
(-6,9,o),
(0,9,cs)
);
}
);
width = 245;
}
);
unicode = 65248;
},
{
glyphname = "lam-ar.medi.rlig";
layers = (
{
anchors = (
{
name = bar;
pos = (469,525);
},
{
name = bottom;
pos = (497,-100);
},
{
name = top.between;
pos = (308,524);
},
{
name = top.far;
pos = (453,720);
},
{
name = top.near;
pos = (453,720);
}
);
layerId = master01;
shapes = (
{
closed = 1;
nodes = (
(126,1,o),
(185,4,o),
(259,12,cs),
(303,18,o),
(340,41,o),
(369,83,cs),
(387,109,o),
(402,144,o),
(415,187,cs),
(429,235,o),
(444,346,o),
(450,405,c),
(453,367,o),
(458,283,o),
(459,263,cs),
(463,208,o),
(469,152,o),
(477,87,cs),
(485,26,o),
(552,0,o),
(619,0,cs),
(624,0,o),
(627,3,o),
(627,8,cs),
(627,68,ls),
(627,72,o),
(626,76,o),
(619,76,cs),
(594,76,o),
(573,79,o),
(555,85,cs),
(540,90,o),
(527,95,o),
(515,103,c),
(512,194,o),
(511,254,o),
(509,383,cs),
(507,478,o),
(505,571,o),
(500,671,c),
(478,655,o),
(458,641,o),
(433,615,c),
(430,527,o),
(424,439,o),
(410,362,cs),
(397,285,o),
(376,219,o),
(344,175,cs),
(316,136,o),
(281,110,o),
(234,90,cs),
(187,69,o),
(128,54,o),
(53,35,c),
(56,0,l)
);
}
);
width = 610;
},
{
anchors = (
{
name = bar;
pos = (466,530);
},
{
name = bottom;
pos = (497,-110);
},
{
name = top.between;
pos = (308,524);
},
{
name = top.far;
pos = (453,720);
},
{
name = top.near;
pos = (453,720);
}
);
layerId = "26E2967D-790C-4793-AF2A-2D0AD74EDC69";
shapes = (
{
closed = 1;
nodes = (
(139,5,o),
(211,9,o),
(293,19,cs),
(329,23,o),
(356,39,o),
(379,68,cs),
(401,97,o),
(419,137,o),
(435,191,cs),
(448,238,o),
(445,244,o),
(462,387,c),
(464,359,o),
(469,298,o),
(472,258,cs),
(476,202,o),
(479,146,o),
(487,99,cs),
(498,33,o),
(562,9,o),
(639,9,cs),
(645,9,o),
(648,12,o),
(648,17,cs),
(648,119,ls),
(648,124,o),
(646,127,o),
(639,127,cs),
(614,127,o),
(593,130,o),
(575,134,cs),
(559,139,o),
(544,146,o),
(529,155,c),
(529,176,o),
(527,287,o),
(527,329,cs),
(526,381,o),
(524,623,o),
(524,680,c),
(482,656,o),
(457,635,o),
(418,613,c),
(418,504,o),
(411,420,o),
(396,354,cs),
(382,287,o),
(361,237,o),
(333,195,cs),
(306,156,o),
(275,129,o),
(231,106,cs),
(187,84,o),
(133,67,o),
(59,48,c),
(64,3,l)
);
}
);
width = 631;
}
);
},
{
glyphname = "lam-ar.init";
layers = (
{
anchors = (
{
name = bar;
pos = (120,344);
},
{
name = bottom;
pos = (115,-100);
},
{
name = bottom.dot;
pos = (115,-31);
},
{
name = top.far;
pos = (89,720);
},
{
name = top.near;
pos = (100,669);
}
);
layerId = master01;
shapes = (
{
closed = 1;
nodes = (
(66,0,o),
(106,12,o),
(118,35,cs),
(138,70,o),
(153,112,o),
(153,135,cs),
(152,206,o),
(149,291,o),
(143,388,cs),
(135,505,o),
(130,599,o),
(126,671,c),
(101,653,o),
(79,635,o),
(60,615,c),
(74,497,o),
(86,376,o),
(98,251,cs),
(102,203,o),
(106,153,o),
(110,103,c),
(76,85,o),
(39,76,o),
(-1,76,cs),
(-7,76,o),
(-10,73,o),
(-10,68,cs),
(-10,8,ls),
(-10,3,o),
(-7,0,o),
(-1,0,cs)
);
}
);
width = 212;
},
{
anchors = (
{
name = bar;
pos = (118,352);
},
{
name = bottom;
pos = (112,-110);
},
{
name = bottom.dot;
pos = (112,-38);
},
{
name = top.far;
pos = (86,729);
},
{
name = top.near;
pos = (106,669);
}
);
layerId = "26E2967D-790C-4793-AF2A-2D0AD74EDC69";
shapes = (
{
closed = 1;
nodes = (
(59,9,o),
(106,21,o),
(119,40,cs),
(145,79,o),
(158,122,o),
(158,167,cs),
(158,229,o),
(157,302,o),
(154,387,cs),
(151,472,o),
(148,570,o),
(146,680,c),
(103,659,o),
(62,638,o),
(27,614,c),
(62,421,o),
(83,305,o),
(89,267,cs),
(95,228,o),
(100,189,o),
(105,150,c),
(65,135,o),
(30,127,o),
(0,127,cs),
(-6,127,o),
(-8,125,o),
(-8,119,cs),
(-8,17,ls),
(-8,12,o),
(-6,9,o),
(0,9,cs)
);
}
);
width = 217;
}
);
unicode = 65247;
},
{
glyphname = "meem-ar";
layers = (
{
anchors = (
{
name = bottom;
pos = (294,-100);
},
{
name = bottom.dot;
pos = (293,-31);
},
{
name = top.far;
pos = (236,552);
},
{
name = top.near;
pos = (237,361);
}
);
layerId = master01;
shapes = (
{
closed = 1;
nodes = (
(113,-295,o),
(135,-282,o),
(154,-268,c),
(148,-219,o),
(139,-162,o),
(126,-97,cs),
(119,-58,o),
(113,-20,o),
(106,20,c),
(180,45,o),
(271,58,o),
(412,58,c),
(450,160,l),
(415,186,o),
(382,224,o),
(339,284,cs),
(305,329,o),
(278,349,o),
(248,349,cs),
(192,349,o),
(139,298,o),
(104,208,c),
(136,192,l),
(170,245,o),
(197,266,o),
(229,266,cs),
(259,266,o),
(295,231,o),
(337,162,c),
(358,131,l),
(241,131,o),
(173,120,o),
(100,98,c),
(83,63,o),
(68,30,o),
(68,5,cs),
(68,-10,o),
(71,-51,o),
(77,-118,cs),
(83,-191,o),
(87,-254,o),
(87,-305,c)
);
}
);
width = 489;
},
{
anchors = (
{
name = bottom;
pos = (298,-110);
},
{
name = bottom.dot;
pos = (298,-38);
},
{
name = top.far;
pos = (228,536);
},
{
name = top.near;
pos = (230,395);
}
);
background = {
anchors = (
{
name = top;
pos = (248,516);
},
{
name = top.dot;
pos = (250,425);
}
);
};
layerId = "26E2967D-790C-4793-AF2A-2D0AD74EDC69";
shapes = (
{
closed = 1;
nodes = (
(107,-316,o),
(140,-297,o),
(175,-272,c),
(163,-213,o),
(151,-155,o),
(139,-97,cs),
(131,-60,o),
(123,-22,o),
(115,15,c),
(162,32,o),
(312,51,o),
(422,51,c),
(468,170,l),
(427,199,o),
(391,241,o),
(348,304,cs),
(308,361,o),
(282,383,o),
(250,383,cs),
(195,383,o),
(137,318,o),
(99,219,c),
(140,198,l),
(172,243,o),
(200,266,o),
(231,266,cs),
(263,266,o),
(287,221,o),
(324,180,cs),
(343,159,l),
(289,159,o),
(102,136,o),
(93,118,cs),
(65,58,o),
(51,18,o),
(51,0,cs),
(51,-24,o),
(55,-70,o),
(62,-138,cs),
(70,-205,o),
(74,-268,o),
(74,-328,c)
);
}
);
width = 502;
}
);
unicode = (1605,65249);
},
{
glyphname = "meem-ar.fina";
layers = (
{
anchors = (
{
name = bottom;
pos = (340,-100);
},
{
name = bottom.dot;
pos = (339,-31);
},
{
name = top.far;
pos = (279,552);
},
{
name = top.near;
pos = (280,361);
}
);
layerId = master01;
shapes = (
{
closed = 1;
nodes = (
(124,-295,o),
(146,-282,o),
(166,-268,c),
(158,-216,o),
(150,-164,o),
(143,-112,cs),
(126,-9,o),
(115,70,o),
(110,126,c),
(135,145,o),
(163,165,o),
(194,186,c),
(181,161,o),
(175,138,o),
(175,117,cs),
(175,48,o),
(295,0,o),
(433,0,c),
(445,43,l),
(473,14,o),
(503,0,o),
(536,0,cs),
(544,0,o),
(547,4,o),
(547,11,cs),
(547,66,ls),
(547,73,o),
(544,76,o),
(536,76,cs),
(520,76,o),
(505,87,o),
(490,108,cs),
(476,129,o),
(460,162,o),
(444,208,cs),
(427,255,o),
(412,288,o),
(399,309,cs),
(387,330,o),
(375,340,o),
(362,340,cs),
(334,340,o),
(288,320,o),
(230,286,cs),
(188,260,o),
(109,205,o),
(103,192,cs),
(87,158,o),
(77,135,o),
(73,123,cs),
(70,111,o),
(68,101,o),
(68,93,cs),
(68,49,o),
(72,-6,o),
(79,-70,cs),
(88,-151,o),
(94,-229,o),
(99,-305,c)
);
},
{
closed = 1;
nodes = (
(337,78,o),
(271,101,o),
(228,138,c),
(248,180,o),
(308,236,o),
(364,264,c),
(371,192,o),
(396,116,o),
(426,69,c)
);
}
);
width = 528;
},
{
anchors = (
{
name = bottom;
pos = (374,-110);
},
{
name = bottom.dot;
pos = (374,-38);
},
{
name = top.far;
pos = (298,526);
},
{
name = top.near;
pos = (300,385);
}
);
background = {
anchors = (
{
name = top;
pos = (298,486);
},
{
name = top.dot;
pos = (300,395);
}
);
};
layerId = "26E2967D-790C-4793-AF2A-2D0AD74EDC69";
shapes = (
{
closed = 1;
nodes = (
(122,-295,o),
(155,-276,o),
(190,-250,c),
(186,-218,o),
(178,-169,o),
(167,-105,cs),
(149,0,o),
(138,65,o),
(128,135,c),
(164,162,o),
(190,180,o),
(206,190,c),
(198,167,o),
(194,144,o),
(194,121,cs),
(194,46,o),
(306,0,o),
(458,0,c),
(471,47,l),
(498,22,o),
(528,9,o),
(561,9,cs),
(568,9,o),
(572,12,o),
(572,20,cs),
(572,118,ls),
(572,124,o),
(568,127,o),
(561,127,cs),
(545,127,o),
(531,133,o),
(520,145,cs),
(498,168,o),
(480,206,o),
(466,247,cs),
(459,267,o),
(451,286,o),
(444,304,cs),
(428,339,o),
(411,366,o),
(387,366,cs),
(350,366,o),
(297,345,o),
(241,314,cs),
(186,282,o),
(116,229,o),
(110,219,cs),
(94,184,o),
(83,157,o),
(77,140,cs),
(71,122,o),
(68,110,o),
(68,102,cs),
(68,75,o),
(71,16,o),
(79,-76,cs),
(85,-168,o),
(89,-245,o),
(89,-307,c)
);
},
{
closed = 1;
nodes = (
(346,121,o),
(285,141,o),
(251,169,c),
(284,208,o),
(328,238,o),
(384,260,c),
(390,204,o),
(404,155,o),
(426,111,c)
);
}
);
width = 555;
}
);
unicode = 65250;
},
{
glyphname = "meem-ar.medi";
layers = (
{
anchors = (
{
name = bottom;
pos = (213,-100);
},
{
name = bottom.dot;
pos = (212,-31);
},
{
name = top.far;
pos = (209,552);
},
{
name = top.near;
pos = (210,361);
}
);
layerId = master01;
shapes = (
{
closed = 1;
nodes = (
(328,44,l),
(355,15,o),
(385,0,o),
(419,0,cs),
(426,0,o),
(430,4,o),
(430,11,cs),
(430,66,ls),
(430,73,o),
(426,76,o),
(419,76,cs),
(405,76,o),
(393,83,o),
(382,96,cs),
(361,122,o),
(342,162,o),
(326,208,cs),
(318,231,o),
(310,252,o),
(301,271,cs),
(284,311,o),
(267,340,o),
(245,340,cs),
(218,340,o),
(191,328,o),
(162,305,cs),
(104,258,o),
(58,173,o),
(58,117,cs),
(58,106,o),
(60,96,o),
(65,86,c),
(44,80,o),
(22,76,o),
(0,76,cs),
(-6,76,o),
(-8,73,o),
(-8,68,cs),
(-8,8,ls),
(-8,3,o),
(-6,0,o),
(0,0,cs),
(42,0,o),
(77,6,o),
(141,30,c),
(194,10,o),
(251,0,o),
(315,0,c)
);
},
{
closed = 1;
nodes = (
(220,78,o),
(154,101,o),
(110,137,c),
(131,181,o),
(196,241,o),
(247,263,c),
(255,186,o),
(280,112,o),
(309,69,c)
);
}
);
width = 413;
},
{
anchors = (
{
name = bottom;
pos = (224,-110);
},
{
name = bottom.dot;
pos = (224,-38);
},
{
name = top.far;
pos = (228,526);
},
{
name = top.near;
pos = (230,385);
}
);
layerId = "26E2967D-790C-4793-AF2A-2D0AD74EDC69";
shapes = (
{
closed = 1;
nodes = (
(329,47,l),
(355,22,o),
(385,9,o),
(419,9,cs),
(426,9,o),
(430,12,o),
(430,20,cs),
(430,118,ls),
(430,124,o),
(426,127,o),
(419,127,cs),
(402,127,o),
(388,135,o),
(374,150,cs),
(356,169,o),
(340,201,o),
(324,247,cs),
(308,291,o),
(294,322,o),
(283,340,cs),
(271,357,o),
(258,366,o),
(245,366,cs),
(216,366,o),
(187,355,o),
(159,333,cs),
(105,292,o),
(62,214,o),
(53,144,cs),
(53,140,o),
(52,137,o),
(52,134,c),
(33,129,o),
(18,127,o),
(0,127,cs),
(-6,127,o),
(-8,125,o),
(-8,119,cs),
(-8,17,ls),
(-8,12,o),
(-6,9,o),
(0,9,cs),
(39,9,o),
(70,17,o),
(107,42,c),
(153,17,o),
(230,0,o),
(315,0,c)
);
},
{
closed = 1;
nodes = (
(204,121,o),
(146,139,o),
(109,169,c),
(139,207,o),
(184,237,o),
(242,260,c),
(248,204,o),
(262,155,o),
(284,111,c)
);
}
);
width = 413;
}
);
unicode = 65252;
},
{
glyphname = "meem-ar.init";
layers = (
{
anchors = (
{
name = bottom;
pos = (233,-100);
},
{
name = bottom.dot;
pos = (232,-31);
},
{
name = top.far;
pos = (256,552);
},
{
name = top.near;
pos = (257,361);
}
);
layerId = master01;
shapes = (
{
closed = 1;
nodes = (
(396,31,o),
(409,63,o),
(409,104,cs),
(409,139,o),
(403,175,o),
(391,212,cs),
(367,287,o),
(325,340,o),
(286,340,cs),
(247,340,o),
(213,322,o),
(180,278,cs),
(152,241,o),
(145,215,o),
(109,150,cs),
(83,101,o),
(51,76,o),
(0,76,cs),
(-6,76,o),
(-8,73,o),
(-8,68,cs),
(-8,8,ls),
(-8,3,o),
(-6,0,o),
(0,0,cs),
(51,0,o),
(86,17,o),
(117,60,c),
(178,24,o),
(278,0,o),
(358,0,c)
);
},
{
closed = 1;
nodes = (
(263,84,o),
(203,101,o),
(156,126,c),
(175,164,o),
(190,190,o),
(201,206,cs),
(223,237,o),
(245,251,o),
(270,251,cs),
(277,251,o),
(286,245,o),
(293,234,cs),
(314,203,o),
(334,137,o),
(336,76,c)
);
}
);
width = 456;
},
{
anchors = (
{
name = bottom;
pos = (264,-110);
},
{
name = bottom.dot;
pos = (264,-38);
},
{
name = top.far;
pos = (268,526);
},
{
name = top.near;
pos = (270,385);
}
);
layerId = "26E2967D-790C-4793-AF2A-2D0AD74EDC69";
shapes = (
{
closed = 1;
nodes = (
(397,25,o),
(426,78,o),
(426,113,cs),
(426,149,o),
(419,188,o),
(404,229,cs),
(375,311,o),
(325,366,o),
(277,366,cs),
(238,366,o),
(212,348,o),
(179,303,cs),
(164,283,o),
(145,249,o),
(121,201,cs),
(95,152,o),
(55,127,o),
(0,127,cs),
(-6,127,o),
(-8,125,o),
(-8,119,cs),
(-8,17,ls),
(-8,12,o),
(-6,9,o),
(0,9,cs),
(53,9,o),
(86,22,o),
(118,56,c),
(181,23,o),
(278,0,o),
(367,0,c)
);
},
{
closed = 1;
nodes = (
(270,117,o),
(217,131,o),
(175,150,c),
(196,191,o),
(212,218,o),
(223,230,cs),
(234,242,o),
(247,248,o),
(262,248,cs),
(271,248,o),
(280,242,o),
(291,229,cs),
(311,204,o),
(329,159,o),
(334,110,c)
);
}
);
width = 473;
}
);
unicode = 65251;
},
{
glyphname = "noonghunna-ar";
layers = (
{
anchors = (
{
name = bottom;
pos = (268,-328);
},
{
name = bottom.dot;
pos = (268,-273);
},
{
name = top.far;
pos = (275,353);
},
{
name = top.near;
pos = (278,180);
}
);
layerId = master01;
shapes = (
{
closed = 1;
nodes = (
(297,-262,o),
(344,-250,o),
(389,-226,cs),
(480,-179,o),
(535,-99,o),
(535,-17,cs),
(535,11,o),
(530,49,o),
(521,97,cs),
(509,160,o),
(501,203,o),
(498,226,c),
(450,197,o),
(433,171,o),
(433,137,cs),
(433,105,o),
(454,41,o),
(498,-54,c),
(465,-125,o),
(350,-179,o),
(251,-179,cs),
(164,-179,o),
(113,-122,o),
(113,-24,cs),
(113,-6,o),
(117,18,o),
(124,47,c),
(87,56,l),
(71,-10,o),
(68,-35,o),
(68,-74,cs),
(68,-194,o),
(135,-262,o),
(249,-262,cs)
);
}
);
width = 586;
},
{
anchors = (
{
name = bottom;
pos = (268,-311);
},
{
name = bottom.dot;
pos = (268,-256);
},
{
name = top.far;
pos = (285,383);
},
{
name = top.near;
pos = (285,193);
}
);
layerId = "26E2967D-790C-4793-AF2A-2D0AD74EDC69";
shapes = (
{
closed = 1;
nodes = (
(306,-252,o),
(357,-242,o),
(403,-220,cs),
(495,-177,o),
(552,-96,o),
(552,-7,cs),
(552,29,o),
(545,75,o),
(537,123,cs),
(531,163,o),
(518,230,o),
(513,270,c),
(444,236,o),
(412,194,o),
(412,138,cs),
(412,111,o),
(451,43,o),
(497,-45,c),
(426,-109,o),
(359,-134,o),
(254,-134,cs),
(165,-134,o),
(123,-88,o),
(123,7,cs),
(123,30,o),
(128,57,o),
(137,87,c),
(93,98,l),
(76,35,o),
(68,-13,o),
(68,-47,cs),
(68,-180,o),
(132,-252,o),
(251,-252,cs)
);
}
);
width = 604;
}
);
unicode = (1722,64414);
},
{
glyphname = "noonghunna-ar.fina";
layers = (
{
anchors = (
{
name = bottom;
pos = (268,-328);
},
{
name = bottom.dot;
pos = (268,-273);
},
{
name = top.far;
pos = (275,353);
},
{
name = top.near;
pos = (278,180);
}
);
layerId = master01;
shapes = (
{
closed = 1;
nodes = (
(297,-262,o),
(344,-250,o),
(389,-226,cs),
(480,-179,o),
(535,-99,o),
(535,-17,cs),
(534,12,l),
(552,4,o),
(572,0,o),
(594,0,cs),
(600,0,o),
(603,3,o),
(603,8,cs),
(603,68,ls),
(603,73,o),
(600,76,o),
(594,76,cs),
(568,76,o),
(544,82,o),
(521,93,c),
(508,161,o),
(500,205,o),
(498,226,c),
(450,197,o),
(433,171,o),
(433,137,cs),
(433,105,o),
(454,41,o),
(498,-54,c),
(465,-125,o),
(350,-179,o),
(251,-179,cs),
(164,-179,o),
(113,-122,o),
(113,-24,cs),
(113,-6,o),
(117,18,o),
(124,47,c),
(87,56,l),
(71,-10,o),
(68,-35,o),
(68,-74,cs),
(68,-194,o),
(135,-262,o),
(249,-262,cs)
);
}
);
width = 585;
},
{
anchors = (
{
name = bottom;
pos = (254,-311);
},
{
name = bottom.dot;
pos = (254,-256);
},
{
name = top.far;
pos = (285,383);
},
{
name = top.near;
pos = (285,193);
}
);
layerId = "26E2967D-790C-4793-AF2A-2D0AD74EDC69";
shapes = (
{
closed = 1;
nodes = (
(306,-252,o),
(357,-242,o),
(403,-220,cs),
(495,-177,o),
(552,-96,o),
(552,-7,cs),
(551,20,l),
(569,12,o),
(588,9,o),
(607,9,cs),
(613,9,o),
(616,12,o),
(616,17,cs),
(616,119,ls),
(616,125,o),
(613,127,o),
(607,127,cs),
(580,127,o),
(555,133,o),
(533,145,c),
(522,207,o),
(516,248,o),
(513,270,c),
(444,236,o),
(412,194,o),
(412,138,cs),
(412,104,o),
(451,39,o),
(497,-45,c),
(426,-109,o),
(359,-134,o),
(254,-134,cs),
(165,-134,o),
(123,-88,o),
(123,7,cs),
(123,30,o),
(128,57,o),
(137,87,c),
(93,98,l),
(76,35,o),
(68,-13,o),
(68,-47,cs),
(68,-180,o),
(132,-252,o),
(251,-252,cs)
);
}
);
width = 599;
}
);
unicode = 64415;
},
{
glyphname = "heh-ar";
layers = (
{
anchors = (
{
name = bottom;
pos = (191,-100);
},
{
name = top.dot;
pos = (192,417);
},
{
name = top.far;
pos = (193,588);
},
{
name = top.near;
pos = (192,417);
}
);
background = {
anchors = (
{
name = bottom;
pos = (199,-111);
},
{
name = top;
pos = (199,558);
},
{
name = top.dot;
pos = (199,427);
}
);
};
layerId = master01;
shapes = (
{
closed = 1;
nodes = (
(228,0,o),
(261,9,o),
(289,28,cs),
(317,47,o),
(357,136,o),
(357,176,cs),
(357,203,o),
(347,234,o),
(328,267,cs),
(289,335,o),
(228,387,o),
(168,408,c),
(153,402,o),
(142,381,o),
(142,360,cs),
(142,345,o),
(146,328,o),
(167,316,c),
(98,251,o),
(68,188,o),
(68,126,cs),
(68,46,o),
(116,0,o),
(190,0,cs)
);
},
{
closed = 1;
nodes = (
(146,80,o),
(114,108,o),
(114,155,cs),
(114,194,o),
(145,248,o),
(195,294,c),
(256,247,o),
(294,190,o),
(308,124,c),
(286,104,o),
(237,80,o),
(201,80,cs)
);
}
);
width = 408;
},
{
anchors = (
{
name = bottom;
pos = (206,-110);
},
{
name = top.dot;
pos = (198,459);
},
{
name = top.far;
pos = (193,678);
},
{
name = top.near;
pos = (198,458);
}
);
layerId = "26E2967D-790C-4793-AF2A-2D0AD74EDC69";
shapes = (
{
closed = 1;
nodes = (
(239,0,o),
(278,11,o),
(303,28,cs),
(332,46,o),
(374,147,o),
(374,185,cs),
(374,215,o),
(365,246,o),
(346,281,cs),
(308,349,o),
(239,406,o),
(163,430,c),
(144,420,o),
(132,392,o),
(132,364,cs),
(132,344,o),
(137,323,o),
(159,310,c),
(95,246,o),
(68,190,o),
(68,135,cs),
(68,57,o),
(123,0,o),
(199,0,cs)
);
},
{
closed = 1;
nodes = (
(172,105,o),
(143,131,o),
(143,168,cs),
(143,204,o),
(162,241,o),
(201,279,c),
(256,238,o),
(289,192,o),
(309,133,c),
(280,115,o),
(247,105,o),
(210,105,cs)
);
}
);
width = 425;
}
);
unicode = (1607,65257);
},
{
glyphname = "heh-ar.fina";
layers = (
{
anchors = (
{
name = bottom;
pos = (251,-100);
},
{
name = top.far;
pos = (237,608);
},
{
name = top.near;
pos = (237,417);
}
);
layerId = master01;
shapes = (
{
closed = 1;
nodes = (
(466,0,o),
(469,3,o),
(469,8,cs),
(469,68,ls),
(469,73,o),
(466,76,o),
(460,76,cs),
(421,76,o),
(387,85,o),
(356,103,c),
(354,211,o),
(350,319,o),
(347,427,c),
(322,413,o),
(298,396,o),
(274,375,c),
(278,348,l),
(221,325,o),
(163,288,o),
(129,255,cs),
(118,244,o),
(109,233,o),
(104,224,cs),
(92,204,o),
(68,149,o),
(68,131,cs),
(68,106,o),
(125,76,o),
(161,62,cs),
(191,50,o),
(206,46,o),
(279,39,c),
(315,108,l),
(319,87,ls),
(327,32,o),
(380,0,o),
(460,0,cs)
);
},
{
closed = 1;
nodes = (
(289,121,o),
(265,122,o),
(242,125,cs),
(195,132,o),
(153,146,o),
(117,178,c),
(151,221,o),
(207,256,o),
(287,283,c),
(296,228,o),
(305,172,o),
(313,120,c)
);
}
);
width = 452;
},
{
anchors = (
{
name = bottom;
pos = (246,-110);
},
{
name = top.far;
pos = (228,641);
},
{
name = top.near;
pos = (228,460);
}
);
layerId = "26E2967D-790C-4793-AF2A-2D0AD74EDC69";
shapes = (
{
closed = 1;
nodes = (
(480,9,o),
(483,12,o),
(483,17,cs),
(483,119,ls),
(483,125,o),
(480,127,o),
(475,127,cs),
(436,127,o),
(400,136,o),
(368,154,c),
(368,266,o),
(368,378,o),
(368,490,c),
(334,469,o),
(315,457,o),
(264,417,c),
(269,377,l),
(235,362,o),
(181,327,o),
(144,294,cs),
(125,278,o),
(112,263,o),
(106,250,cs),
(92,225,o),
(68,154,o),
(68,139,cs),
(68,116,o),
(127,75,o),
(177,57,cs),
(208,46,o),
(242,42,o),
(284,38,c),
(324,120,l),
(333,83,ls),
(342,36,o),
(394,9,o),
(475,9,cs)
);
},
{
closed = 1;
nodes = (
(292,158,o),
(273,160,o),
(255,163,cs),
(220,168,o),
(181,177,o),
(139,206,c),
(174,239,o),
(222,266,o),
(285,287,c),
(297,232,o),
(306,189,o),
(314,157,c)
);
}
);
width = 466;
}
);
unicode = 65258;
},
{
glyphname = "heh-ar.medi";
layers = (
{
anchors = (
{
name = bottom;
pos = (233,-253);
},
{
name = top.far;
pos = (229,608);
},
{
name = top.near;
pos = (229,608);
}
);
layerId = master01;
shapes = (
{
closed = 1;
nodes = (
(288,-204,o),
(322,-191,o),
(339,-173,c),
(348,-161,o),
(374,-97,o),
(374,-78,cs),
(374,-52,o),
(349,-21,o),
(317,-7,c),
(338,-2,o),
(361,0,o),
(387,0,cs),
(394,0,o),
(398,4,o),
(398,11,cs),
(398,66,ls),
(398,73,o),
(394,76,o),
(387,76,cs),
(333,76,o),
(292,74,o),
(237,69,c),
(280,94,o),
(319,141,o),
(319,200,cs),
(319,219,o),
(315,250,o),
(306,295,cs),
(297,344,o),
(291,383,o),
(289,413,c),
(253,423,l),
(142,318,o),
(79,203,o),
(65,79,c),
(43,78,o),
(22,77,o),
(0,76,cs),
(-6,76,o),
(-8,73,o),
(-8,68,cs),
(-8,8,ls),
(-8,3,o),
(-6,0,o),
(0,0,cs),
(18,1,l),
(28,-43,l),
(66,-27,l),
(84,-140,o),
(152,-204,o),
(255,-204,cs)
);
},
{
closed = 1;
nodes = (
(200,-134,o),
(153,-92,o),
(132,-6,c),
(152,-2,o),
(165,0,o),
(171,0,cs),
(243,0,o),
(313,-49,o),
(330,-107,c),
(315,-124,o),
(286,-134,o),
(264,-134,cs)
);
},
{
closed = 1;
nodes = (
(131,150,o),
(157,219,o),
(230,323,c),
(233,294,o),
(240,248,o),
(253,185,cs),
(261,134,l),
(223,102,o),
(174,80,o),
(126,75,c)
);
}
);
width = 381;
},
{
anchors = (
{
name = bottom;
pos = (243,-244);
},
{
name = top.far;
pos = (229,641);
},
{
name = top.near;
pos = (229,641);
}
);
layerId = "26E2967D-790C-4793-AF2A-2D0AD74EDC69";
shapes = (
{
closed = 1;
nodes = (
(307,-195,o),
(337,-180,o),
(351,-164,cs),
(360,-152,o),
(385,-88,o),
(385,-69,cs),
(385,-41,o),
(362,-11,o),
(333,3,c),
(357,7,o),
(381,9,o),
(404,9,cs),
(411,9,o),
(415,12,o),
(415,20,cs),
(415,118,ls),
(415,124,o),
(411,127,o),
(404,127,cs),
(376,127,o),
(353,127,o),
(289,114,c),
(320,143,o),
(336,174,o),
(336,208,cs),
(336,228,o),
(332,262,o),
(323,312,cs),
(313,370,o),
(307,412,o),
(305,439,c),
(261,449,l),
(161,354,o),
(98,248,o),
(72,130,c),
(50,128,o),
(26,127,o),
(0,127,cs),
(-6,127,o),
(-8,125,o),
(-8,119,cs),
(-8,17,ls),
(-8,12,o),
(-6,9,o),
(0,9,c),
(26,11,l),
(37,-34,l),
(67,-20,l),
(85,-129,o),
(158,-195,o),
(264,-195,cs)
);
},
{
closed = 1;
nodes = (
(203,-100,o),
(161,-65,o),
(148,5,c),
(159,8,o),
(167,9,o),
(171,9,cs),
(231,9,o),
(290,-24,o),
(330,-82,c),
(309,-95,o),
(295,-100,o),
(272,-100,cs)
);
},
{
closed = 1;
nodes = (
(151,173,o),
(173,230,o),
(231,312,c),
(235,287,o),
(246,252,o),
(262,207,cs),
(275,168,l),
(242,142,o),
(200,126,o),
(146,118,c)
);
}
);
width = 397;
}
);
unicode = 65260;
},
{
glyphname = "heh-ar.init";
layers = (
{
anchors = (
{
name = bottom;
pos = (198,-100);
},
{
name = top.far;
pos = (175,656);
},
{
name = top.near;
pos = (175,465);
}
);
layerId = master01;
shapes = (
{
closed = 1;
nodes = (
(436,33,o),
(457,86,o),
(457,116,cs),
(457,161,o),
(444,205,o),
(419,248,cs),
(370,333,o),
(277,401,o),
(164,433,c),
(141,368,l),
(91,343,o),
(53,268,o),
(53,207,cs),
(53,165,o),
(74,125,o),
(115,89,c),
(86,80,o),
(47,76,o),
(0,76,cs),
(-6,76,o),
(-8,74,o),
(-8,69,cs),
(-8,8,ls),
(-8,3,o),
(-6,0,o),
(0,0,cs),
(74,0,o),
(131,13,o),
(184,44,c),
(244,13,o),
(318,-8,o),
(405,-18,c)
);
},
{
closed = 1;
nodes = (
(153,147,o),
(119,175,o),
(88,208,c),
(94,227,o),
(101,245,o),
(112,260,cs),
(133,291,o),
(160,309,o),
(181,309,cs),
(210,309,o),
(240,269,o),
(240,231,cs),
(240,186,o),
(223,151,o),
(189,125,c)
);
},
{
closed = 1;
nodes = (
(345,63,o),
(293,76,o),
(248,96,c),
(281,134,o),
(298,178,o),
(298,228,cs),
(298,255,o),
(291,282,o),
(276,309,c),
(298,290,o),
(319,267,o),
(339,239,cs),
(379,182,o),
(403,114,o),
(403,55,c)
);
}
);
width = 508;
},
{
anchors = (
{
name = bottom;
pos = (212,-110);
},
{
name = top.far;
pos = (165,686);
},
{
name = top.near;
pos = (165,505);
}
);
layerId = "26E2967D-790C-4793-AF2A-2D0AD74EDC69";
shapes = (
{
closed = 1;
nodes = (
(444,42,o),
(465,94,o),
(465,125,cs),
(465,174,o),
(451,224,o),
(422,274,cs),
(366,375,o),
(264,452,o),
(155,479,c),
(126,375,l),
(81,344,o),
(44,270,o),
(44,216,cs),
(44,186,o),
(54,157,o),
(75,129,c),
(50,128,o),
(25,128,o),
(0,127,cs),
(-6,127,o),
(-8,125,o),
(-8,121,cs),
(-8,17,ls),
(-8,12,o),
(-6,9,o),
(0,9,cs),
(69,9,o),
(127,22,o),
(175,48,c),
(238,14,o),
(325,-7,o),
(414,-9,c)
);
},
{
closed = 1;
nodes = (
(150,169,o),
(120,190,o),
(95,217,c),
(102,233,o),
(109,248,o),
(116,259,cs),
(134,287,o),
(154,301,o),
(179,301,cs),
(203,301,o),
(229,272,o),
(229,240,cs),
(229,201,o),
(210,166,o),
(183,153,c)
);
},
{
closed = 1;
nodes = (
(347,108,o),
(298,116,o),
(263,125,c),
(284,157,o),
(294,194,o),
(294,237,cs),
(294,257,o),
(291,277,o),
(284,295,c),
(303,280,o),
(320,263,o),
(335,242,cs),
(363,206,o),
(386,160,o),
(409,100,c)
);
}
);
width = 516;
}
);
unicode = 65259;
},
{
glyphname = "hehgoal-ar.fina";
layers = (
{
anchors = (
{
name = bottom;
pos = (234,-100);
},
{
name = top.far;
pos = (235,428);
},
{
name = top.near;
pos = (235,237);
}
);
layerId = master01;
shapes = (
{
closed = 1;
nodes = (
(125,38,o),
(151,65,o),
(173,82,cs),
(195,99,o),
(214,107,o),
(230,107,cs),
(243,107,o),
(257,98,o),
(274,80,cs),
(297,55,o),
(314,38,o),
(327,29,cs),
(353,12,o),
(385,0,o),
(431,0,cs),
(438,0,o),
(442,4,o),
(442,11,cs),
(442,66,ls),
(442,73,o),
(438,76,o),
(431,76,cs),
(400,76,o),
(370,95,o),
(342,132,cs),
(312,170,o),
(290,187,o),
(264,187,cs),
(239,187,o),
(212,176,o),
(183,154,cs),
(147,127,o),
(109,83,o),
(68,23,c),
(94,0,l)
);
}
);
width = 425;
},
{
anchors = (
{
name = bottom;
pos = (245,-110);
},
{
name = top.far;
pos = (238,456);
},
{
name = top.near;
pos = (238,275);
}
);
layerId = "26E2967D-790C-4793-AF2A-2D0AD74EDC69";
shapes = (
{
closed = 1;
nodes = (
(122,36,o),
(142,57,o),
(161,73,cs),
(188,95,o),
(213,107,o),
(236,107,cs),
(244,107,o),
(251,105,o),
(258,100,cs),
(264,96,o),
(280,82,o),
(304,58,cs),
(336,26,o),
(382,9,o),
(437,9,cs),
(444,9,o),
(448,12,o),
(448,20,cs),
(448,118,ls),
(448,124,o),
(444,127,o),
(437,127,cs),
(406,127,o),
(378,145,o),
(348,184,cs),
(316,223,o),
(296,239,o),
(270,239,cs),
(243,239,o),
(212,222,o),
(178,187,cs),
(144,153,o),
(107,102,o),
(68,36,c),
(101,9,l)
);
}
);
width = 431;
}
);
unicode = 64423;
},
{
glyphname = "hehgoal-ar.medi";
layers = (
{
anchors = (
{
name = bottom;
pos = (189,-268);
},
{
name = top.far;
pos = (204,344);
},
{
name = top.near;
pos = (204,187);
}
);
layerId = master01;
shapes = (
{
closed = 1;
nodes = (
(263,-173,l),
(263,-112,o),
(265,-57,o),
(285,-14,c),
(306,-5,o),
(345,0,o),
(401,0,cs),
(409,0,o),
(412,4,o),
(412,11,cs),
(412,66,ls),
(412,73,o),
(409,76,o),
(401,76,cs),
(370,76,o),
(341,70,o),
(317,58,cs),
(263,31,o),
(228,-24,o),
(213,-98,cs),
(208,-128,l),
(155,-72,o),
(126,-5,o),
(126,59,cs),
(126,79,o),
(130,99,o),
(137,117,c),
(128,129,o),
(117,135,o),
(105,135,cs),
(89,135,o),
(76,124,o),
(66,103,cs),
(58,84,o),
(46,76,o),
(0,76,cs),
(-6,76,o),
(-8,73,o),
(-8,68,cs),
(-8,8,ls),
(-8,3,o),
(-6,0,o),
(0,0,cs),
(14,0,o),
(40,7,o),
(56,15,c),
(63,-75,o),
(112,-158,o),
(192,-219,c)
);
}
);
width = 395;
},
{
anchors = (
{
name = bottom;
pos = (195,-256);
},
{
name = top.far;
pos = (236,401);
},
{
name = top.near;
pos = (236,249);
}
);
layerId = "26E2967D-790C-4793-AF2A-2D0AD74EDC69";
shapes = (
{
closed = 1;
nodes = (
(277,-164,l),
(277,-92,o),
(282,-59,o),
(296,-7,c),
(321,3,o),
(361,9,o),
(418,9,cs),
(426,9,o),
(429,12,o),
(429,20,cs),
(429,118,ls),
(429,124,o),
(426,127,o),
(418,127,cs),
(376,127,o),
(342,118,o),
(315,98,cs),
(267,63,o),
(237,-2,o),
(223,-78,cs),
(218,-108,l),
(173,-43,o),
(156,7,o),
(156,76,cs),
(156,110,o),
(161,152,o),
(171,200,c),
(158,211,o),
(144,217,o),
(129,217,cs),
(103,217,o),
(79,198,o),
(68,171,cs),
(57,144,o),
(29,127,o),
(0,127,cs),
(-6,127,o),
(-8,125,o),
(-8,119,cs),
(-8,17,ls),
(-8,12,o),
(-6,9,o),
(0,9,cs),
(21,9,o),
(39,12,o),
(55,20,c),
(58,-64,o),
(120,-164,o),
(195,-218,c)
);
}
);
width = 412;
}
);
unicode = 64425;
},
{
glyphname = "hehgoal-ar.init";
layers = (
{
anchors = (
{
name = bottom;
pos = (142,-261);
},
{
name = top.far;
pos = (129,578);
},
{
name = top.near;
pos = (139,387);
}
);
layerId = master01;
shapes = (
{
closed = 1;
nodes = (
(65,0,o),
(128,18,o),
(189,55,c),
(212,97,o),
(225,137,o),
(225,157,cs),
(225,181,o),
(220,215,o),
(210,259,cs),
(198,317,o),
(190,355,o),
(187,374,c),
(147,352,o),
(122,319,o),
(122,290,cs),
(122,279,o),
(128,257,o),
(141,223,cs),
(156,180,o),
(168,144,o),
(177,113,c),
(129,91,o),
(61,76,o),
(0,76,cs),
(-6,76,o),
(-8,73,o),
(-8,68,cs),
(-8,8,ls),
(-8,3,o),
(-6,0,o),
(0,0,cs)
);
},
{
closed = 1;
nodes = (
(142,-212,o),
(168,-185,o),
(180,-161,c),
(151,-152,o),
(139,-141,o),
(139,-123,cs),
(139,-99,o),
(149,-72,o),
(171,-42,c),
(144,-25,l),
(104,-77,o),
(84,-123,o),
(84,-163,cs),
(84,-188,o),
(103,-209,o),
(130,-212,c)
);
}
);
width = 275;
},
{
anchors = (
{
name = bottom;
pos = (148,-271);
},
{
name = top.far;
pos = (143,616);
},
{
name = top.near;
pos = (143,423);
}
);
layerId = "26E2967D-790C-4793-AF2A-2D0AD74EDC69";
shapes = (
{
closed = 1;
nodes = (
(71,9,o),
(137,27,o),
(198,64,c),
(219,106,o),
(237,154,o),
(237,185,cs),
(237,206,o),
(227,262,o),
(208,352,cs),
(204,374,o),
(200,395,o),
(195,417,c),
(146,392,o),
(104,348,o),
(104,315,cs),
(104,298,o),
(114,277,o),
(128,252,cs),
(140,230,o),
(164,187,o),
(178,156,c),
(141,139,o),
(66,127,o),
(0,127,cs),
(-6,127,o),
(-8,125,o),
(-8,119,cs),
(-8,17,ls),
(-8,12,o),
(-6,9,o),
(0,9,cs)
);
},
{
closed = 1;
nodes = (
(158,-231,o),
(188,-201,o),
(201,-174,c),
(168,-165,o),
(155,-153,o),
(155,-132,cs),
(155,-105,o),
(167,-75,o),
(190,-42,c),
(160,-24,l),
(116,-81,o),
(94,-132,o),
(94,-177,cs),
(94,-205,o),
(114,-228,o),
(144,-231,c)
);
}
);
width = 275;
}
);
unicode = 64424;
},
{
glyphname = "hehDoachashmee-ar";
layers = (
{
anchors = (
{
name = bottom;
pos = (299,-100);
},
{
name = top.far;
pos = (296,656);
},
{
name = top.near;
pos = (296,465);
}
);
background = {
anchors = (
{
name = bottom;
pos = (315,-112);
}
);
};
layerId = master01;
shapes = (
{
closed = 1;
nodes = (
(563,39,o),
(580,84,o),
(580,116,cs),
(580,161,o),
(567,205,o),
(542,248,cs),
(492,334,o),
(398,402,o),
(287,433,c),
(264,368,l),
(214,343,o),
(176,268,o),
(176,207,cs),
(176,164,o),
(196,125,o),
(238,90,c),
(205,81,o),
(171,76,o),
(137,76,cs),
(91,76,o),
(54,79,o),
(26,84,c),
(17,50,l),
(77,17,o),
(122,0,o),
(151,0,cs),
(206,0,o),
(258,15,o),
(307,44,c),
(368,13,o),
(442,-8,o),
(529,-18,c)
);
},
{
closed = 1;
nodes = (
(274,148,o),
(240,175,o),
(211,208,c),
(217,227,o),
(224,245,o),
(235,260,cs),
(256,291,o),
(283,309,o),
(304,309,cs),
(333,309,o),
(363,269,o),
(363,231,cs),
(363,187,o),
(346,152,o),
(312,125,c)
);
},
{
closed = 1;
nodes = (
(472,62,o),
(420,75,o),
(370,95,c),
(405,134,o),
(422,178,o),
(422,228,cs),
(422,256,o),
(415,283,o),
(400,308,c),
(475,244,o),
(526,142,o),
(526,55,c)
);
}
);
width = 631;
},
{
anchors = (
{
name = bottom;
pos = (362,-110);
},
{
name = top.far;
pos = (325,686);
},
{
name = top.near;
pos = (325,505);
}
);
background = {
anchors = (
{
name = bottom;
pos = (336,-110);
}
);
};
layerId = "26E2967D-790C-4793-AF2A-2D0AD74EDC69";
shapes = (
{
closed = 1;
nodes = (
(602,48,o),
(619,93,o),
(619,125,cs),
(619,174,o),
(604,224,o),
(576,274,cs),
(520,375,o),
(417,452,o),
(309,479,c),
(280,375,l),
(235,344,o),
(198,269,o),
(198,216,cs),
(198,185,o),
(210,154,o),
(233,123,c),
(212,120,o),
(188,119,o),
(164,119,cs),
(126,119,o),
(90,123,o),
(54,130,c),
(34,90,l),
(68,52,o),
(133,9,o),
(154,9,cs),
(223,9,o),
(281,22,o),
(329,48,c),
(392,15,o),
(475,-7,o),
(568,-9,c)
);
},
{
closed = 1;
nodes = (
(304,169,o),
(274,190,o),
(249,217,c),
(256,236,o),
(264,251,o),
(273,264,cs),
(290,289,o),
(310,301,o),
(333,301,cs),
(356,301,o),
(383,272,o),
(383,240,cs),
(383,203,o),
(363,166,o),
(337,153,c)
);
},
{
closed = 1;
nodes = (
(500,108,o),
(451,116,o),
(417,125,c),
(437,157,o),
(448,194,o),
(448,237,cs),
(448,258,o),
(444,277,o),
(437,296,c),
(490,253,o),
(528,193,o),
(563,100,c)
);
}
);
width = 670;
}
);
unicode = (1726,64426);
},
{
glyphname = "hehDoachashmee-ar.fina";
layers = (
{
anchors = (
{
name = bottom;
pos = (299,-100);
},
{
name = top.far;
pos = (296,656);
},
{
name = top.near;
pos = (296,465);
}
);
layerId = master01;
shapes = (
{
closed = 1;
nodes = (
(213,0,o),
(275,21,o),
(318,54,c),
(363,32,o),
(427,14,o),
(470,14,cs),
(489,14,o),
(520,21,o),
(535,36,c),
(549,8,o),
(579,0,o),
(639,0,cs),
(648,0,o),
(651,5,o),
(651,10,cs),
(651,68,ls),
(651,74,o),
(647,77,o),
(639,77,cs),
(616,77,o),
(600,80,o),
(592,85,cs),
(583,90,o),
(579,98,o),
(579,109,cs),
(579,125,o),
(584,142,o),
(584,173,cs),
(584,231,o),
(552,289,o),
(499,338,cs),
(446,387,o),
(372,426,o),
(288,447,c),
(265,382,l),
(209,353,o),
(175,278,o),
(175,224,cs),
(175,183,o),
(198,140,o),
(232,109,cs),
(248,96,l),
(221,81,o),
(166,76,o),
(127,76,cs),
(95,76,o),
(73,78,o),
(26,84,c),
(17,50,l),
(52,29,o),
(117,0,o),
(149,0,cs)
);
},
{
closed = 1;
nodes = (
(272,166,o),
(239,194,o),
(211,224,c),
(226,284,o),
(272,323,o),
(305,323,cs),
(338,323,o),
(361,280,o),
(361,244,cs),
(361,204,o),
(349,170,o),
(315,142,c)
);
},
{
closed = 1;
nodes = (
(463,75,o),
(437,82,o),
(417,90,cs),
(400,96,o),
(382,106,o),
(375,108,c),
(404,144,o),
(419,184,o),
(419,232,cs),
(419,270,o),
(414,286,o),
(394,322,c),
(431,304,o),
(467,277,o),
(495,241,cs),
(522,205,o),
(540,160,o),
(540,108,cs),
(540,82,o),
(518,75,o),
(497,75,cs)
);
}
);
width = 634;
},
{
anchors = (
{
name = bottom;
pos = (362,-110);
},
{
name = top.far;
pos = (325,686);
},
{
name = top.near;
pos = (325,505);
}
);
layerId = "26E2967D-790C-4793-AF2A-2D0AD74EDC69";
shapes = (
{
closed = 1;
nodes = (
(223,9,o),
(297,23,o),
(343,57,c),
(387,34,o),
(438,20,o),
(496,20,cs),
(537,20,o),
(558,33,o),
(568,45,c),
(587,17,o),
(629,9,o),
(717,9,cs),
(725,9,o),
(728,14,o),
(728,20,cs),
(728,118,ls),
(728,124,o),
(724,127,o),
(717,127,cs),
(667,127,o),
(637,128,o),
(624,139,cs),
(619,144,o),
(617,150,o),
(617,159,cs),
(617,165,o),
(617,187,o),
(617,205,cs),
(617,269,o),
(572,336,o),
(517,379,cs),
(458,425,o),
(385,458,o),
(309,478,c),
(280,375,l),
(238,344,o),
(198,274,o),
(198,216,cs),
(198,187,o),
(207,159,o),
(227,132,cs),
(233,123,l),
(211,120,o),
(189,119,o),
(164,119,cs),
(140,119,o),
(88,123,o),
(54,130,c),
(34,90,l),
(61,60,o),
(130,9,o),
(154,9,cs)
);
},
{
closed = 1;
nodes = (
(308,179,o),
(276,197,o),
(249,217,c),
(262,266,o),
(296,301,o),
(328,301,cs),
(367,301,o),
(383,266,o),
(383,240,cs),
(383,210,o),
(373,183,o),
(351,163,c)
);
},
{
closed = 1;
nodes = (
(493,129,o),
(473,131,o),
(458,134,cs),
(443,137,o),
(432,140,o),
(425,142,c),
(441,168,o),
(448,200,o),
(448,237,cs),
(448,262,o),
(444,277,o),
(434,306,c),
(463,294,o),
(493,275,o),
(515,252,cs),
(539,228,o),
(554,198,o),
(554,163,cs),
(554,136,o),
(537,129,o),
(517,129,cs)
);
}
);
width = 710;
}
);
unicode = 64427;
},
{
glyphname = "hehDoachashmee-ar.medi";
layers = (
{
anchors = (
{
name = bottom;
pos = (198,-100);
},
{
name = top.far;
pos = (175,656);
},
{
name = top.near;
pos = (175,465);
}
);
layerId = master01;
shapes = (
{
closed = 1;
nodes = (
(21,0,ls),
(87,0,o),
(149,20,o),
(197,54,c),
(241,32,o),
(307,14,o),
(349,14,cs),
(368,14,o),
(399,21,o),
(415,36,c),
(428,10,o),
(457,0,o),
(507,0,cs),
(519,0,ls),
(528,0,o),
(530,5,o),
(530,10,cs),
(530,68,ls),
(530,74,o),
(526,77,o),
(519,77,cs),
(495,77,o),
(479,80,o),
(471,85,cs),
(463,90,o),
(458,98,o),
(458,109,cs),
(458,125,o),
(463,142,o),
(463,173,cs),
(463,231,o),
(431,289,o),
(378,338,cs),
(325,387,o),
(251,426,o),
(167,447,c),
(144,382,l),
(89,353,o),
(55,278,o),
(55,224,cs),
(55,177,o),
(85,128,o),
(127,96,c),
(106,86,o),
(53,77,o),
(21,77,cs),
(0,77,ls),
(-5,77,o),
(-8,74,o),
(-8,69,cs),
(-8,8,ls),
(-8,4,o),
(-7,0,o),
(0,0,cs)
);
},
{
closed = 1;
nodes = (
(152,166,o),
(118,194,o),
(91,224,c),
(106,284,o),
(151,323,o),
(184,323,cs),
(217,323,o),
(241,280,o),
(241,244,cs),
(241,201,o),
(224,168,o),
(195,142,c)
);
},
{
closed = 1;
nodes = (
(343,75,o),
(317,82,o),
(296,90,cs),
(280,96,o),
(261,106,o),
(254,108,c),
(284,144,o),
(298,184,o),
(298,232,cs),
(298,259,o),
(294,282,o),
(284,303,c),
(273,322,l),
(310,304,o),
(347,277,o),
(374,241,cs),
(401,205,o),
(419,160,o),
(419,108,cs),
(419,82,o),
(397,75,o),
(376,75,cs)
);
}
);
width = 513;
},
{
anchors = (
{
name = bottom;
pos = (212,-110);
},
{
name = top.far;
pos = (175,686);
},
{
name = top.near;
pos = (175,505);
}
);
layerId = "26E2967D-790C-4793-AF2A-2D0AD74EDC69";
shapes = (
{
closed = 1;
nodes = (
(20,9,ls),
(83,9,o),
(143,27,o),
(189,57,c),
(233,34,o),
(284,20,o),
(342,20,cs),
(383,20,o),
(404,33,o),
(415,45,c),
(433,18,o),
(479,9,o),
(546,9,cs),
(563,9,ls),
(571,9,o),
(574,14,o),
(574,20,cs),
(574,118,ls),
(574,124,o),
(570,127,o),
(563,127,cs),
(513,127,o),
(483,128,o),
(470,140,cs),
(465,145,o),
(462,150,o),
(462,159,cs),
(462,165,o),
(463,187,o),
(463,195,cs),
(463,270,o),
(423,333,o),
(363,379,cs),
(304,425,o),
(231,458,o),
(155,478,c),
(126,375,l),
(84,344,o),
(44,274,o),
(44,216,cs),
(44,185,o),
(56,152,o),
(75,129,c),
(64,128,o),
(29,127,o),
(13,127,cs),
(0,127,ls),
(-6,127,o),
(-8,125,o),
(-8,121,cs),
(-8,17,ls),
(-8,13,o),
(-7,9,o),
(0,9,cs)
);
},
{
closed = 1;
nodes = (
(154,179,o),
(123,197,o),
(95,217,c),
(108,266,o),
(142,301,o),
(174,301,cs),
(213,301,o),
(229,266,o),
(229,240,cs),
(229,210,o),
(220,183,o),
(197,163,c)
);
},
{
closed = 1;
nodes = (
(339,129,o),
(319,131,o),
(304,134,cs),
(289,137,o),
(278,140,o),
(271,142,c),
(287,168,o),
(294,200,o),
(294,237,cs),
(294,256,o),
(291,276,o),
(285,292,cs),
(280,306,l),
(310,293,o),
(339,275,o),
(362,251,cs),
(385,228,o),
(400,197,o),
(400,163,cs),
(400,136,o),
(383,129,o),
(363,129,cs)
);
}
);
width = 557;
}
);
unicode = 64429;
},
{
glyphname = "waw-ar";
layers = (
{
anchors = (
{
name = bottom;
pos = (193,-252);
},
{
name = top.far;
pos = (256,537);
},
{
name = top.near;
pos = (256,346);
}
);
layerId = master01;
shapes = (
{
closed = 1;
nodes = (
(232,-203,o),
(269,-190,o),
(303,-165,cs),
(371,-114,o),
(417,-14,o),
(417,81,cs),
(417,122,o),
(410,164,o),
(394,207,cs),
(363,292,o),
(313,340,o),
(261,340,cs),
(239,340,o),
(216,330,o),
(194,310,cs),
(150,269,o),
(120,197,o),
(120,129,cs),
(120,51,o),
(168,0,o),
(245,0,cs),
(292,0,o),
(340,20,o),
(379,57,c),
(380,49,l),
(343,-65,o),
(270,-125,o),
(170,-125,cs),
(125,-125,o),
(84,-119,o),
(48,-106,c),
(34,-139,l),
(70,-170,o),
(150,-203,o),
(193,-203,cs)
);
},
{
closed = 1;
nodes = (
(198,82,o),
(158,109,o),
(158,157,cs),
(158,170,o),
(163,185,o),
(171,200,cs),
(189,232,o),
(218,255,o),
(246,255,cs),
(260,255,o),
(274,250,o),
(288,240,cs),
(322,217,o),
(354,167,o),
(370,104,c),
(323,85,o),
(302,82,o),
(269,82,cs)
);
}
);
width = 468;
},
{
anchors = (
{
name = bottom;
pos = (195,-245);
},
{
name = top.far;
pos = (269,570);
},
{
name = top.near;
pos = (269,379);
}
);
background = {
anchors = (
{
name = top;
pos = (245,454);
},
{
name = top.dot;
pos = (245,384);
}
);
};
layerId = "26E2967D-790C-4793-AF2A-2D0AD74EDC69";
shapes = (
{
closed = 1;
nodes = (
(240,-195,o),
(282,-183,o),
(321,-157,cs),
(398,-106,o),
(445,-12,o),
(445,89,cs),
(445,131,o),
(437,174,o),
(421,219,cs),
(388,309,o),
(333,366,o),
(276,366,cs),
(252,366,o),
(228,355,o),
(206,333,cs),
(160,290,o),
(130,213,o),
(130,138,cs),
(130,50,o),
(177,0,o),
(260,0,cs),
(306,0,o),
(353,25,o),
(392,65,c),
(393,58,l),
(363,-31,o),
(281,-86,o),
(177,-86,cs),
(139,-86,o),
(103,-81,o),
(67,-72,c),
(51,-114,l),
(101,-156,o),
(170,-195,o),
(195,-195,cs)
);
},
{
closed = 1;
nodes = (
(219,110,o),
(184,131,o),
(184,171,cs),
(184,180,o),
(185,189,o),
(188,198,cs),
(199,226,o),
(226,246,o),
(259,246,cs),
(275,246,o),
(290,240,o),
(305,230,cs),
(336,209,o),
(363,164,o),
(375,127,c),
(342,116,o),
(310,110,o),
(280,110,cs)
);
}
);
width = 497;
}
);
unicode = (1608,65261);
},
{
glyphname = "waw-ar.fina";
layers = (
{
anchors = (
{
name = bottom;
pos = (193,-252);
},
{
name = top.far;
pos = (256,537);
},
{
name = top.near;
pos = (256,346);
}
);
layerId = master01;
shapes = (
{
closed = 1;
nodes = (
(224,-203,o),
(255,-195,o),
(284,-178,cs),
(342,-144,o),
(387,-76,o),
(407,0,c),
(477,0,ls),
(483,0,o),
(485,3,o),
(485,8,cs),
(485,68,ls),
(485,73,o),
(483,76,o),
(477,76,cs),
(417,76,l),
(417,123,o),
(411,165,o),
(396,209,cs),
(366,295,o),
(316,348,o),
(261,348,cs),
(239,348,o),
(216,338,o),
(194,318,cs),
(150,278,o),
(120,205,o),
(120,137,cs),
(120,68,o),
(144,37,o),
(215,18,cs),
(247,9,o),
(296,4,o),
(361,1,c),
(317,-86,o),
(253,-125,o),
(170,-125,cs),
(125,-125,o),
(84,-119,o),
(48,-106,c),
(34,-139,l),
(70,-170,o),
(150,-203,o),
(193,-203,cs)
);
},
{
closed = 1;
nodes = (
(324,80,o),
(285,81,o),
(255,86,cs),
(195,97,o),
(158,119,o),
(158,166,cs),
(158,178,o),
(162,192,o),
(171,208,cs),
(188,239,o),
(218,263,o),
(246,263,cs),
(303,263,o),
(361,181,o),
(377,77,c)
);
}
);
width = 468;
},
{
anchors = (
{
name = bottom;
pos = (195,-245);
},
{
name = top.far;
pos = (269,580);
},
{
name = top.near;
pos = (269,399);
}
);
layerId = "26E2967D-790C-4793-AF2A-2D0AD74EDC69";
shapes = (
{
closed = 1;
nodes = (
(228,-195,o),
(259,-188,o),
(288,-175,cs),
(356,-145,o),
(411,-79,o),
(435,9,c),
(497,9,ls),
(502,9,o),
(505,12,o),
(505,17,cs),
(505,119,ls),
(505,125,o),
(502,127,o),
(497,127,cs),
(443,127,l),
(439,174,o),
(428,217,o),
(414,254,cs),
(382,333,o),
(331,387,o),
(276,387,cs),
(253,387,o),
(230,376,o),
(207,354,cs),
(161,310,o),
(131,232,o),
(131,159,cs),
(131,83,o),
(168,40,o),
(246,23,cs),
(271,18,o),
(313,14,o),
(370,10,c),
(333,-48,o),
(261,-86,o),
(177,-86,cs),
(139,-86,o),
(103,-81,o),
(67,-72,c),
(51,-114,l),
(101,-156,o),
(170,-195,o),
(195,-195,cs)
);
},
{
closed = 1;
nodes = (
(328,130,o),
(297,132,o),
(282,134,cs),
(216,143,o),
(184,165,o),
(184,202,cs),
(184,213,o),
(187,224,o),
(193,234,cs),
(206,253,o),
(228,268,o),
(254,268,cs),
(305,268,o),
(350,218,o),
(378,128,c)
);
}
);
width = 488;
}
);
unicode = 65262;
},
{
glyphname = "wawDotcenter-ar";
layers = (
{
anchors = (
{
name = bottom;
pos = (193,-278);
},
{
name = top.far;
pos = (256,477);
},
{
name = top.near;
pos = (256,346);
}
);
background = {
shapes = (
{
pos = (-25,49);
ref = "dotcenter-ar";
scale = (0.9,0.9);
}
);
};
layerId = master01;
shapes = (
{
closed = 1;
nodes = (
(201,-237,o),
(222,-233,o),
(243,-223,cs),
(284,-204,o),
(319,-170,o),
(348,-127,cs),
(363,-106,o),
(375,-83,o),
(385,-60,cs),
(406,-13,o),
(417,37,o),
(417,81,cs),
(417,99,o),
(416,118,o),
(412,138,cs),
(406,178,o),
(392,217,o),
(374,252,cs),
(365,269,o),
(354,284,o),
(343,297,cs),
(319,323,o),
(292,340,o),
(261,340,cs),
(226,340,o),
(191,314,o),
(164,274,cs),
(138,235,o),
(120,182,o),
(120,129,cs),
(120,53,o),
(168,0,o),
(245,0,cs),
(303,0,o),
(345,26,o),
(379,57,c),
(380,49,l),
(364,-2,o),
(335,-54,o),
(297,-93,cs),
(258,-132,o),
(211,-159,o),
(155,-159,cs),
(110,-159,o),
(70,-153,o),
(34,-141,c),
(20,-173,l),
(51,-203,o),
(135,-237,o),
(178,-237,cs)
);
},
{
closed = 1;
nodes = (
(198,82,o),
(158,108,o),
(158,157,cs),
(158,196,o),
(201,255,o),
(246,255,cs),
(270,255,o),
(295,239,o),
(318,213,cs),
(340,186,o),
(359,149,o),
(370,105,c),
(337,88,o),
(307,82,o),
(269,82,cs)
);
},
{
pos = (-25,49);
ref = "dotcenter-ar";
scale = (0.9,0.9);
}
);
width = 468;
},
{
anchors = (
{
name = bottom;
pos = (194,-295);
},
{
name = top.far;
pos = (278,520);
},
{
name = top.near;
pos = (278,379);
}
);
background = {
shapes = (
{
pos = (-30,68);
ref = "dotcenter-ar";
scale = (0.8,0.8);
}
);
};
layerId = "26E2967D-790C-4793-AF2A-2D0AD74EDC69";
shapes = (
{
closed = 1;
nodes = (
(219,-245,o),
(242,-241,o),
(264,-232,cs),
(308,-214,o),
(346,-183,o),
(378,-141,cs),
(394,-120,o),
(407,-97,o),
(418,-72,cs),
(441,-23,o),
(454,33,o),
(454,89,cs),
(454,108,o),
(452,128,o),
(448,148,cs),
(441,190,o),
(427,232,o),
(406,269,cs),
(396,288,o),
(385,305,o),
(373,319,cs),
(347,347,o),
(318,366,o),
(284,366,cs),
(247,366,o),
(210,338,o),
(183,296,cs),
(156,253,o),
(138,196,o),
(138,138,cs),
(138,50,o),
(185,0,o),
(268,0,cs),
(323,0,o),
(366,32,o),
(400,65,c),
(401,58,l),
(382,-4,o),
(347,-52,o),
(307,-85,cs),
(266,-118,o),
(220,-135,o),
(176,-135,cs),
(147,-135,o),
(110,-133,o),
(67,-122,c),
(51,-164,l),
(88,-194,o),
(164,-245,o),
(195,-245,cs)
);
},
{
closed = 1;
nodes = (
(226,110,o),
(192,133,o),
(192,171,cs),
(192,211,o),
(223,246,o),
(267,246,cs),
(293,246,o),
(316,231,o),
(336,209,cs),
(356,187,o),
(372,157,o),
(383,127,c),
(347,114,o),
(314,110,o),
(288,110,cs)
);
},
{
pos = (-30,68);
ref = "dotcenter-ar";
scale = (0.8,0.8);
}
);
width = 506;
}
);
unicode = 2219;
},
{
glyphname = "wawDotcenter-ar.fina";
layers = (
{
anchors = (
{
name = bottom;
pos = (193,-278);
},
{
name = top.far;
pos = (256,487);
},
{
name = top.near;
pos = (256,356);
}
);
layerId = master01;
shapes = (
{
closed = 1;
nodes = (
(232,-237,o),
(282,-207,o),
(322,-162,cs),
(361,-117,o),
(391,-58,o),
(406,0,c),
(477,0,l),
(483,0,o),
(485,3,o),
(485,8,cs),
(485,68,ls),
(485,72,o),
(483,76,o),
(477,76,cs),
(417,76,l),
(417,100,o),
(416,119,o),
(412,141,cs),
(403,198,o),
(380,263,o),
(344,305,cs),
(320,331,o),
(292,348,o),
(261,348,cs),
(226,348,o),
(191,322,o),
(164,282,cs),
(138,243,o),
(120,191,o),
(120,137,cs),
(120,62,o),
(161,25,o),
(245,12,cs),
(282,6,o),
(322,3,o),
(361,1,c),
(341,-41,o),
(313,-81,o),
(278,-111,cs),
(243,-140,o),
(202,-159,o),
(155,-159,cs),
(110,-159,o),
(70,-153,o),
(34,-141,c),
(20,-173,l),
(51,-203,o),
(135,-237,o),
(178,-237,cs)
);
},
{
closed = 1;
nodes = (
(333,78,o),
(290,80,o),
(267,84,cs),
(196,97,o),
(158,119,o),
(158,166,cs),
(158,205,o),
(201,263,o),
(246,263,cs),
(274,263,o),
(303,242,o),
(327,208,cs),
(351,175,o),
(369,129,o),
(376,77,c)
);
},
{
closed = 1;
nodes = (
(164,-101,o),
(183,-80,o),
(198,-59,c),
(174,-37,o),
(155,-18,o),
(140,-1,c),
(128,-15,o),
(107,-37,o),
(78,-66,c),
(95,-84,o),
(116,-104,o),
(141,-123,c)
);
}
);
width = 468;
},
{
anchors = (
{
name = bottom;
pos = (223,-295);
},
{
name = top.far;
pos = (283,540);
},
{
name = top.near;
pos = (283,399);
}
);
layerId = "26E2967D-790C-4793-AF2A-2D0AD74EDC69";
shapes = (
{
closed = 1;
nodes = (
(251,-245,o),
(305,-214,o),
(349,-167,cs),
(394,-120,o),
(428,-56,o),
(444,9,c),
(506,9,ls),
(512,9,o),
(514,12,o),
(514,17,cs),
(514,119,ls),
(514,124,o),
(511,127,o),
(506,127,cs),
(453,127,l),
(451,148,o),
(447,169,o),
(443,189,cs),
(429,245,o),
(404,308,o),
(366,347,cs),
(343,371,o),
(316,387,o),
(286,387,cs),
(249,387,o),
(213,358,o),
(186,316,cs),
(158,273,o),
(140,216,o),
(140,159,cs),
(140,75,o),
(187,32,o),
(270,21,cs),
(305,15,o),
(343,12,o),
(382,10,c),
(361,-30,o),
(331,-67,o),
(296,-93,cs),
(260,-119,o),
(219,-136,o),
(176,-136,cs),
(147,-136,o),
(110,-133,o),
(67,-122,c),
(51,-164,l),
(88,-194,o),
(164,-245,o),
(195,-245,cs)
);
},
{
closed = 1;
nodes = (
(348,129,o),
(313,131,o),
(292,134,cs),
(223,143,o),
(193,168,o),
(193,202,cs),
(193,234,o),
(223,268,o),
(263,268,cs),
(287,268,o),
(308,257,o),
(326,240,cs),
(355,212,o),
(375,169,o),
(387,128,c)
);
},
{
closed = 1;
nodes = (
(153,-85,o),
(172,-63,o),
(188,-42,c),
(164,-21,o),
(144,-1,o),
(129,15,c),
(117,1,o),
(97,-20,o),
(67,-49,c),
(85,-68,o),
(106,-87,o),
(130,-106,c)
);
}
);
width = 468;
}
);
},
{
glyphname = "wawStraight-ar";
layers = (
{
anchors = (
{
name = bottom;
pos = (377,-251);
},
{
name = top.far;
pos = (256,537);
},
{
name = top.near;
pos = (256,346);
}
);
layerId = master01;
shapes = (
{
closed = 1;
nodes = (
(417,0,l),
(477,0,ls),
(483,0,o),
(485,3,o),
(485,8,cs),
(485,68,ls),
(485,73,o),
(483,76,o),
(477,76,cs),
(417,76,l),
(416,123,o),
(411,165,o),
(396,209,cs),
(366,295,o),
(316,348,o),
(261,348,cs),
(239,348,o),
(216,338,o),
(194,318,cs),
(150,278,o),
(120,205,o),
(120,137,cs),
(120,68,o),
(144,37,o),
(215,18,cs),
(247,9,o),
(309,4,o),
(374,1,c),
(363,-214,l),
(430,-225,l)
);
},
{
closed = 1;
nodes = (
(324,80,o),
(285,81,o),
(255,86,cs),
(195,97,o),
(158,119,o),
(158,166,cs),
(158,178,o),
(162,192,o),
(171,208,cs),
(188,239,o),
(218,263,o),
(246,263,cs),
(303,263,o),
(361,181,o),
(377,77,c)
);
}
);
width = 468;
},
{
anchors = (
{
name = bottom;
pos = (414,-257);
},
{
name = top.far;
pos = (269,580);
},
{
name = top.near;
pos = (269,399);
}
);
layerId = "26E2967D-790C-4793-AF2A-2D0AD74EDC69";
shapes = (
{
closed = 1;
nodes = (
(443,9,l),
(497,9,ls),
(502,9,o),
(505,12,o),
(505,17,cs),
(505,119,ls),
(505,125,o),
(502,127,o),
(497,127,cs),
(443,127,l),
(437,174,o),
(428,217,o),
(414,254,cs),
(382,333,o),
(331,387,o),
(276,387,cs),
(253,387,o),
(230,376,o),
(207,354,cs),
(161,310,o),
(131,232,o),
(131,159,cs),
(131,83,o),
(168,40,o),
(246,23,cs),
(271,18,o),
(321,14,o),
(378,10,c),
(373,-215,l),
(463,-230,l)
);
},
{
closed = 1;
nodes = (
(328,130,o),
(297,132,o),
(282,134,cs),
(216,143,o),
(184,165,o),
(184,202,cs),
(184,213,o),
(187,224,o),
(193,234,cs),
(206,253,o),
(228,268,o),
(254,268,cs),
(305,268,o),
(350,218,o),
(378,128,c)
);
}
);
width = 488;
}
);
unicode = 2225;
},
{
glyphname = "kirghizoe-ar";
layers = (
{
anchors = (
{
name = bottom;
pos = (193,-252);
},
{
name = top.far;
pos = (256,537);
},
{
name = top.near;
pos = (256,346);
}
);
layerId = master01;
shapes = (
{
closed = 1;
nodes = (
(232,-203,o),
(269,-190,o),
(303,-165,cs),
(371,-114,o),
(417,-14,o),
(417,81,cs),
(417,122,o),
(410,164,o),
(394,207,cs),
(363,292,o),
(313,340,o),
(261,340,cs),
(239,340,o),
(216,330,o),
(194,310,cs),
(150,269,o),
(120,197,o),
(120,129,cs),
(120,51,o),
(168,0,o),
(245,0,cs),
(292,0,o),
(340,20,o),
(379,57,c),
(380,49,l),
(366,5,o),
(346,-32,o),
(320,-61,c),
(305,-58,o),
(285,-52,o),
(263,-43,cs),
(238,-33,o),
(219,-28,o),
(204,-28,cs),
(184,-28,o),
(174,-32,o),
(140,-59,c),
(156,-84,l),
(175,-76,o),
(191,-71,o),
(203,-71,cs),
(223,-71,o),
(238,-76,o),
(282,-93,c),
(250,-114,o),
(212,-125,o),
(170,-125,cs),
(125,-125,o),
(84,-119,o),
(48,-106,c),
(34,-139,l),
(70,-170,o),
(150,-203,o),
(193,-203,cs)
);
},
{
closed = 1;
nodes = (
(198,82,o),
(158,109,o),
(158,157,cs),
(158,170,o),
(163,185,o),
(171,200,cs),
(189,232,o),
(218,255,o),
(246,255,cs),
(295,255,o),
(347,192,o),
(370,104,c),
(323,85,o),
(302,82,o),
(269,82,cs)
);
}
);
width = 468;
},
{
anchors = (
{
name = bottom;
pos = (196,-295);
},
{
name = top.far;
pos = (280,570);
},
{
name = top.near;
pos = (280,379);
}
);
layerId = "26E2967D-790C-4793-AF2A-2D0AD74EDC69";
shapes = (
{
closed = 1;
nodes = (
(240,-255,o),
(282,-239,o),
(322,-207,cs),
(401,-143,o),
(454,-24,o),
(454,89,cs),
(454,131,o),
(446,175,o),
(429,220,cs),
(396,310,o),
(341,366,o),
(285,366,cs),
(260,366,o),
(237,355,o),
(214,334,cs),
(169,291,o),
(139,213,o),
(139,138,cs),
(139,50,o),
(186,0,o),
(269,0,cs),
(315,0,o),
(361,25,o),
(400,65,c),
(401,58,l),
(386,9,o),
(362,-33,o),
(329,-68,c),
(299,-59,o),
(274,-51,o),
(254,-45,cs),
(229,-38,o),
(210,-35,o),
(200,-35,cs),
(177,-35,o),
(164,-45,o),
(137,-64,c),
(152,-99,l),
(172,-90,o),
(187,-86,o),
(199,-86,cs),
(220,-86,o),
(249,-93,o),
(286,-106,c),
(253,-130,o),
(214,-145,o),
(177,-145,cs),
(139,-145,o),
(103,-140,o),
(67,-131,c),
(51,-173,l),
(101,-216,o),
(170,-255,o),
(195,-255,cs)
);
},
{
closed = 1;
nodes = (
(228,110,o),
(192,131,o),
(192,171,cs),
(192,187,o),
(197,202,o),
(206,213,cs),
(219,233,o),
(241,246,o),
(267,246,cs),
(313,246,o),
(355,201,o),
(383,127,c),
(350,116,o),
(319,110,o),
(288,110,cs)
);
}
);
width = 506;
}
);
unicode = (1733,64480);
},
{
glyphname = "kirghizoe-ar.fina";
layers = (
{
anchors = (
{
name = bottom;
pos = (193,-252);
},
{
name = top.far;
pos = (256,537);
},
{
name = top.near;
pos = (256,346);
}
);
layerId = master01;
shapes = (
{
closed = 1;
nodes = (
(224,-203,o),
(255,-195,o),
(284,-178,cs),
(342,-144,o),
(387,-76,o),
(407,0,c),
(477,0,ls),
(483,0,o),
(485,3,o),
(485,8,cs),
(485,68,ls),
(485,73,o),
(483,76,o),
(477,76,cs),
(417,76,l),
(417,123,o),
(411,165,o),
(396,209,cs),
(366,295,o),
(316,348,o),
(261,348,cs),
(239,348,o),
(216,338,o),
(194,318,cs),
(150,278,o),
(120,205,o),
(120,137,cs),
(120,68,o),
(144,37,o),
(215,18,cs),
(247,9,o),
(296,4,o),
(361,1,c),
(348,-24,o),
(335,-44,o),
(320,-61,c),
(305,-58,o),
(285,-52,o),
(263,-43,cs),
(238,-33,o),
(219,-28,o),
(204,-28,cs),
(184,-28,o),
(174,-32,o),
(140,-59,c),
(156,-84,l),
(175,-76,o),
(191,-71,o),
(203,-71,cs),
(223,-71,o),
(238,-76,o),
(282,-93,c),
(250,-114,o),
(212,-125,o),
(170,-125,cs),
(125,-125,o),
(84,-119,o),
(48,-106,c),
(34,-139,l),
(70,-170,o),
(150,-203,o),
(193,-203,cs)
);
},
{
closed = 1;
nodes = (
(324,80,o),
(285,81,o),
(267,84,cs),
(196,97,o),
(158,119,o),
(158,166,cs),
(158,178,o),
(162,192,o),
(171,208,cs),
(188,239,o),
(218,263,o),
(246,263,cs),
(303,263,o),
(361,181,o),
(377,77,c)
);
}
);
width = 468;
},
{
anchors = (
{
name = bottom;
pos = (196,-295);
},
{
name = top.far;
pos = (280,570);
},
{
name = top.near;
pos = (280,379);
}
);
layerId = "26E2967D-790C-4793-AF2A-2D0AD74EDC69";
shapes = (
{
closed = 1;
nodes = (
(233,-255,o),
(268,-244,o),
(302,-221,cs),
(371,-177,o),
(424,-90,o),
(445,9,c),
(505,9,ls),
(510,9,o),
(513,12,o),
(513,17,cs),
(513,119,ls),
(513,125,o),
(510,127,o),
(505,127,cs),
(452,127,l),
(448,174,o),
(437,218,o),
(421,256,cs),
(390,334,o),
(339,387,o),
(285,387,cs),
(261,387,o),
(238,376,o),
(216,354,cs),
(170,310,o),
(140,232,o),
(140,159,cs),
(140,87,o),
(162,52,o),
(231,29,cs),
(262,19,o),
(312,13,o),
(382,10,c),
(369,-15,o),
(354,-39,o),
(336,-60,c),
(331,-58,o),
(303,-49,o),
(274,-40,cs),
(248,-33,o),
(221,-26,o),
(208,-26,cs),
(189,-26,o),
(179,-29,o),
(145,-56,c),
(161,-90,l),
(181,-81,o),
(197,-77,o),
(208,-77,cs),
(230,-77,o),
(249,-83,o),
(297,-98,c),
(259,-129,o),
(219,-145,o),
(177,-145,cs),
(139,-145,o),
(103,-140,o),
(67,-131,c),
(51,-173,l),
(101,-216,o),
(170,-255,o),
(195,-255,cs)
);
},
{
closed = 1;
nodes = (
(326,130,o),
(285,134,o),
(262,139,cs),
(218,150,o),
(192,171,o),
(192,202,cs),
(192,211,o),
(195,220,o),
(199,228,cs),
(210,250,o),
(235,268,o),
(263,268,cs),
(313,268,o),
(358,220,o),
(386,128,c)
);
}
);
width = 497;
}
);
unicode = 64481;
},
{
glyphname = "alefMaksura-ar";
layers = (
{
anchors = (
{
name = bottom;
pos = (274,-315);
},
{
name = bottom.dot;
pos = (274,-268);
},
{
name = top.far;
pos = (204,234);
},
{
name = top.near;
pos = (148,74);
}
);
layerId = master01;
shapes = (
{
closed = 1;
nodes = (
(293,-262,o),
(342,-251,o),
(394,-229,cs),
(499,-185,o),
(583,-108,o),
(583,-47,cs),
(583,-16,o),
(575,5,o),
(553,21,cs),
(533,34,o),
(500,42,o),
(452,49,cs),
(398,57,o),
(361,69,o),
(342,87,c),
(347,112,o),
(360,137,o),
(380,164,cs),
(421,216,o),
(481,258,o),
(516,258,cs),
(532,258,o),
(539,256,o),
(548,243,c),
(584,253,l),
(572,307,o),
(552,340,o),
(507,340,cs),
(481,340,o),
(452,326,o),
(419,297,cs),
(354,240,o),
(306,152,o),
(306,91,cs),
(306,61,o),
(312,37,o),
(325,18,cs),
(351,-20,o),
(394,-33,o),
(495,-41,cs),
(513,-43,o),
(530,-45,o),
(547,-48,c),
(537,-70,o),
(516,-91,o),
(484,-111,cs),
(421,-151,o),
(322,-179,o),
(251,-179,cs),
(164,-179,o),
(113,-122,o),
(113,-24,cs),
(113,-6,o),
(117,18,o),
(124,47,c),
(87,56,l),
(71,-10,o),
(68,-35,o),
(68,-74,cs),
(68,-194,o),
(135,-262,o),
(249,-262,cs)
);
}
);
width = 618;
},
{
anchors = (
{
name = bottom;
pos = (288,-311);
},
{
name = bottom.dot;
pos = (288,-256);
},
{
name = top.far;
pos = (214,277);
},
{
name = top.near;
pos = (148,104);
}
);
layerId = "26E2967D-790C-4793-AF2A-2D0AD74EDC69";
shapes = (
{
closed = 1;
nodes = (
(304,-252,o),
(357,-240,o),
(410,-215,cs),
(518,-165,o),
(597,-80,o),
(597,-19,cs),
(597,11,o),
(583,48,o),
(563,63,cs),
(543,79,o),
(518,87,o),
(472,93,cs),
(420,99,o),
(380,107,o),
(354,118,c),
(365,145,o),
(380,170,o),
(400,192,cs),
(441,238,o),
(490,266,o),
(526,266,cs),
(538,266,o),
(548,260,o),
(558,247,c),
(602,256,l),
(589,341,o),
(560,385,o),
(514,385,cs),
(485,385,o),
(453,371,o),
(420,344,cs),
(353,288,o),
(303,194,o),
(303,119,cs),
(303,85,o),
(311,58,o),
(327,36,cs),
(355,-1,o),
(411,-22,o),
(500,-27,cs),
(514,-28,o),
(530,-28,o),
(546,-28,c),
(519,-49,o),
(489,-67,o),
(458,-83,cs),
(393,-115,o),
(322,-134,o),
(263,-134,cs),
(170,-134,o),
(123,-86,o),
(123,7,cs),
(123,30,o),
(128,57,o),
(137,87,c),
(93,98,l),
(76,35,o),
(68,-13,o),
(68,-47,cs),
(68,-180,o),
(132,-252,o),
(251,-252,cs)
);
}
);
width = 636;
}
);
unicode = (1609,65263);
},
{
glyphname = "alefMaksura-ar.fina";
layers = (
{
anchors = (
{
name = bottom;
pos = (294,-315);
},
{
name = bottom.dot;
pos = (294,-268);
},
{
name = top.far;
pos = (324,148);
},
{
name = top.near;
pos = (335,152);
}
);
layerId = master01;
shapes = (
{
closed = 1;
nodes = (
(338,-261,o),
(395,-252,o),
(453,-235,cs),
(570,-200,o),
(651,-141,o),
(651,-90,cs),
(651,-64,o),
(648,-43,o),
(628,-31,cs),
(598,-15,o),
(568,1,o),
(539,18,c),
(583,7,o),
(647,0,o),
(693,0,cs),
(700,0,o),
(704,3,o),
(704,10,cs),
(704,65,ls),
(704,72,o),
(700,76,o),
(693,76,cs),
(607,76,o),
(521,83,o),
(474,93,c),
(461,93,o),
(438,43,o),
(438,25,cs),
(438,20,o),
(446,12,o),
(461,0,cs),
(487,-19,o),
(533,-46,o),
(616,-90,c),
(592,-112,o),
(565,-127,o),
(536,-139,cs),
(476,-164,o),
(407,-178,o),
(286,-178,cs),
(179,-178,o),
(113,-121,o),
(113,-23,cs),
(113,-5,o),
(117,19,o),
(124,48,c),
(87,57,l),
(71,-9,o),
(68,-34,o),
(68,-73,cs),
(68,-193,o),
(146,-261,o),
(283,-261,cs)
);
}
);
width = 687;
},
{
anchors = (
{
name = bottom;
pos = (308,-311);
},
{
name = bottom.dot;
pos = (308,-256);
},
{
name = top.far;
pos = (325,144);
},
{
name = top.near;
pos = (317,159);
}
);
layerId = "26E2967D-790C-4793-AF2A-2D0AD74EDC69";
shapes = (
{
closed = 1;
nodes = (
(340,-252,o),
(397,-243,o),
(457,-225,cs),
(577,-189,o),
(660,-131,o),
(660,-81,cs),
(660,-63,o),
(657,-41,o),
(648,-31,cs),
(641,-21,o),
(625,-13,o),
(543,26,c),
(583,16,o),
(653,9,o),
(696,9,cs),
(703,9,o),
(707,12,o),
(707,19,cs),
(707,117,ls),
(707,124,o),
(703,127,o),
(696,127,cs),
(611,127,o),
(539,133,o),
(479,144,c),
(470,144,o),
(426,60,o),
(426,34,cs),
(426,28,o),
(434,19,o),
(452,5,cs),
(487,-22,o),
(564,-65,o),
(609,-83,c),
(582,-94,o),
(548,-103,o),
(513,-111,cs),
(445,-125,o),
(367,-134,o),
(297,-134,cs),
(178,-134,o),
(123,-85,o),
(123,7,cs),
(123,30,o),
(128,57,o),
(137,87,c),
(93,98,l),
(76,35,o),
(68,-13,o),
(68,-47,cs),
(68,-181,o),
(144,-252,o),
(286,-252,cs)
);
}
);
width = 690;
}
);
unicode = 65264;
},
{
glyphname = "yehTail-ar";
layers = (
{
anchors = (
{
name = bottom;
pos = (384,-310);
},
{
name = top.far;
pos = (370,314);
},
{
name = top.near;
pos = (370,314);
}
);
layerId = master01;
shapes = (
{
closed = 1;
nodes = (
(429,-262,o),
(477,-251,o),
(529,-229,cs),
(634,-185,o),
(718,-108,o),
(718,-47,cs),
(718,-15,o),
(710,6,o),
(687,21,cs),
(667,34,o),
(635,42,o),
(587,49,cs),
(533,57,o),
(496,69,o),
(477,87,c),
(483,112,o),
(495,137,o),
(516,164,cs),
(556,216,o),
(616,258,o),
(651,258,cs),
(668,258,o),
(674,256,o),
(684,243,c),
(719,253,l),
(707,307,o),
(687,340,o),
(642,340,cs),
(616,340,o),
(587,326,o),
(554,297,cs),
(489,240,o),
(441,152,o),
(441,91,cs),
(441,61,o),
(447,37,o),
(460,18,cs),
(486,-20,o),
(530,-33,o),
(630,-41,cs),
(648,-43,o),
(666,-45,o),
(683,-48,c),
(672,-70,o),
(651,-91,o),
(619,-111,cs),
(557,-151,o),
(458,-179,o),
(387,-179,cs),
(299,-179,o),
(248,-122,o),
(248,-24,cs),
(248,4,o),
(256,38,o),
(268,76,c),
(235,92,l),
(172,60,o),
(93,19,o),
(80,4,cs),
(71,-7,o),
(70,-13,o),
(68,-30,cs),
(68,-41,o),
(71,-51,o),
(77,-61,c),
(122,-37,o),
(166,-13,o),
(210,11,c),
(205,-14,o),
(203,-42,o),
(203,-74,cs),
(203,-194,o),
(270,-262,o),
(384,-262,cs)
);
}
);
width = 753;
},
{
anchors = (
{
name = bottom;
pos = (409,-310);
},
{
name = top.far;
pos = (355,297);
},
{
name = top.near;
pos = (355,297);
}
);
layerId = "26E2967D-790C-4793-AF2A-2D0AD74EDC69";
shapes = (
{
closed = 1;
nodes = (
(445,-252,o),
(498,-240,o),
(552,-215,cs),
(659,-165,o),
(738,-80,o),
(738,-19,cs),
(738,11,o),
(724,48,o),
(704,63,cs),
(684,79,o),
(660,87,o),
(613,93,cs),
(561,99,o),
(521,107,o),
(495,118,c),
(506,145,o),
(521,170,o),
(542,192,cs),
(582,238,o),
(631,266,o),
(667,266,cs),
(679,266,o),
(689,260,o),
(699,247,c),
(743,256,l),
(730,341,o),
(701,385,o),
(655,385,cs),
(626,385,o),
(594,371,o),
(561,344,cs),
(494,288,o),
(444,194,o),
(444,119,cs),
(444,86,o),
(451,60,o),
(467,38,cs),
(494,0,o),
(548,-21,o),
(637,-27,cs),
(652,-28,o),
(669,-28,o),
(687,-28,c),
(665,-45,o),
(641,-61,o),
(615,-74,cs),
(545,-112,o),
(468,-134,o),
(404,-134,cs),
(313,-134,o),
(268,-89,o),
(268,0,cs),
(268,25,o),
(276,62,o),
(286,90,c),
(246,110,l),
(191,83,o),
(96,25,o),
(86,13,cs),
(75,2,o),
(69,-16,o),
(69,-35,cs),
(69,-54,o),
(73,-71,o),
(83,-86,c),
(138,-56,o),
(180,-34,o),
(210,-21,c),
(209,-29,o),
(209,-38,o),
(209,-47,cs),
(209,-180,o),
(273,-252,o),
(393,-252,cs)
);
}
);
width = 777;
}
);
unicode = 1741;
},
{
glyphname = "yehTail-ar.fina";
layers = (
{
anchors = (
{
name = bottom;
pos = (418,-311);
},
{
name = top.far;
pos = (459,234);
},
{
name = top.near;
pos = (459,234);
}
);
layerId = master01;
shapes = (
{
closed = 1;
nodes = (
(473,-261,o),
(530,-252,o),
(588,-235,cs),
(706,-200,o),
(787,-142,o),
(787,-90,cs),
(787,-67,o),
(784,-48,o),
(769,-36,cs),
(763,-31,o),
(734,-15,o),
(674,17,c),
(718,6,o),
(783,0,o),
(828,0,cs),
(836,0,o),
(839,3,o),
(839,9,cs),
(839,64,ls),
(839,72,o),
(836,76,o),
(828,76,cs),
(742,76,o),
(656,83,o),
(609,92,c),
(604,92,o),
(598,86,o),
(592,77,cs),
(582,62,o),
(573,37,o),
(573,25,cs),
(573,20,o),
(581,12,o),
(596,0,cs),
(621,-20,o),
(668,-46,o),
(751,-91,c),
(727,-113,o),
(700,-126,o),
(671,-138,cs),
(611,-163,o),
(542,-178,o),
(421,-178,cs),
(314,-178,o),
(248,-122,o),
(248,-24,cs),
(248,-9,o),
(255,24,o),
(268,76,c),
(235,93,l),
(174,62,o),
(93,20,o),
(80,4,cs),
(67,-13,o),
(63,-38,o),
(77,-61,c),
(122,-37,o),
(166,-13,o),
(210,11,c),
(205,-13,o),
(203,-41,o),
(203,-73,cs),
(203,-193,o),
(282,-261,o),
(418,-261,cs)
);
}
);
width = 822;
},
{
anchors = (
{
name = bottom;
pos = (451,-331);
},
{
name = top.far;
pos = (468,278);
},
{
name = top.near;
pos = (468,278);
}
);
layerId = "26E2967D-790C-4793-AF2A-2D0AD74EDC69";
shapes = (
{
closed = 1;
nodes = (
(484,-272,o),
(542,-262,o),
(603,-241,cs),
(724,-200,o),
(803,-136,o),
(803,-81,cs),
(803,-56,o),
(800,-42,o),
(792,-31,cs),
(780,-16,o),
(745,-1,o),
(686,26,c),
(726,16,o),
(795,9,o),
(839,9,cs),
(846,9,o),
(850,12,o),
(850,19,cs),
(850,117,ls),
(850,124,o),
(846,127,o),
(839,127,cs),
(754,127,o),
(682,133,o),
(621,144,c),
(618,144,o),
(612,135,o),
(603,119,cs),
(583,85,o),
(568,50,o),
(568,34,cs),
(568,28,o),
(577,19,o),
(594,5,cs),
(629,-22,o),
(706,-65,o),
(752,-83,c),
(726,-100,o),
(690,-114,o),
(650,-125,cs),
(587,-143,o),
(512,-153,o),
(439,-153,cs),
(327,-153,o),
(268,-107,o),
(268,-20,cs),
(268,5,o),
(276,43,o),
(286,71,c),
(246,91,l),
(191,63,o),
(96,5,o),
(86,-6,cs),
(64,-29,o),
(63,-74,o),
(83,-105,c),
(138,-76,o),
(180,-54,o),
(210,-40,c),
(209,-49,o),
(209,-58,o),
(209,-66,cs),
(209,-197,o),
(285,-272,o),
(428,-272,cs)
);
}
);
width = 833;
}
);
},
{
glyphname = "yehbarree-ar";
layers = (
{
anchors = (
{
name = bottom;
pos = (428,-100);
},
{
name = top.far;
pos = (243,457);
},
{
name = top.near;
pos = (242,326);
}
);
layerId = master01;
shapes = (
{
closed = 1;
nodes = (
(516,0,o),
(666,18,o),
(720,45,cs),
(744,57,o),
(755,71,o),
(755,89,cs),
(755,100,o),
(751,111,o),
(741,122,c),
(647,94,o),
(521,76,o),
(419,76,cs),
(280,76,o),
(189,88,o),
(114,118,c),
(146,140,o),
(167,153,o),
(195,165,cs),
(218,175,o),
(247,185,o),
(292,198,cs),
(334,211,o),
(359,238,o),
(379,297,c),
(348,314,l),
(335,289,o),
(317,268,o),
(271,253,cs),
(221,236,o),
(192,226,o),
(183,222,cs),
(149,206,o),
(121,187,o),
(101,166,cs),
(88,153,o),
(68,80,o),
(68,52,cs),
(68,45,o),
(84,37,o),
(116,29,cs),
(187,11,o),
(312,0,o),
(406,0,cs)
);
}
);
width = 773;
},
{
anchors = (
{
name = bottom;
pos = (445,-110);
},
{
name = top.far;
pos = (254,484);
},
{
name = top.near;
pos = (254,343);
}
);
layerId = "26E2967D-790C-4793-AF2A-2D0AD74EDC69";
shapes = (
{
closed = 1;
nodes = (
(497,0,o),
(680,21,o),
(729,46,cs),
(756,60,o),
(773,84,o),
(773,112,cs),
(773,132,o),
(766,149,o),
(753,165,c),
(659,137,o),
(533,119,o),
(431,119,cs),
(304,119,o),
(225,128,o),
(144,161,c),
(165,170,o),
(193,180,o),
(227,190,cs),
(257,200,o),
(284,210,o),
(305,219,cs),
(350,239,o),
(383,279,o),
(402,338,c),
(359,357,l),
(346,329,o),
(318,307,o),
(256,289,cs),
(233,282,o),
(216,276,o),
(205,271,cs),
(165,253,o),
(136,235,o),
(117,214,cs),
(104,202,o),
(68,83,o),
(68,59,cs),
(68,50,o),
(85,42,o),
(119,32,cs),
(192,12,o),
(316,0,o),
(418,0,cs)
);
}
);
width = 808;
}
);
unicode = (1746,64430);
},
{
glyphname = "yehbarree-ar.fina";
layers = (
{
anchors = (
{
name = bottom;
pos = (334,-253);
},
{
name = top.far;
pos = (228,238);
},
{
name = top.near;
pos = (227,107);
}
);
layerId = master01;
shapes = (
{
closed = 1;
nodes = (
(393,-204,o),
(466,-200,o),
(519,-191,cs),
(554,-185,o),
(582,-166,o),
(582,-139,cs),
(582,-127,o),
(577,-116,o),
(567,-104,c),
(480,-120,o),
(394,-128,o),
(307,-128,cs),
(223,-128,o),
(147,-118,o),
(79,-99,c),
(116,-74,o),
(157,-55,o),
(200,-40,cs),
(286,-10,o),
(436,0,o),
(571,0,cs),
(578,0,o),
(582,3,o),
(582,10,cs),
(582,65,ls),
(582,72,o),
(578,76,o),
(571,76,cs),
(304,76,o),
(160,38,o),
(56,-61,cs),
(49,-67,o),
(31,-128,o),
(31,-144,cs),
(31,-151,o),
(45,-160,o),
(72,-170,cs),
(126,-190,o),
(214,-204,o),
(300,-204,cs)
);
}
);
width = 560;
},
{
anchors = (
{
name = bottom;
pos = (324,-244);
},
{
name = top.far;
pos = (222,297);
},
{
name = top.near;
pos = (222,156);
}
);
layerId = "26E2967D-790C-4793-AF2A-2D0AD74EDC69";
shapes = (
{
closed = 1;
nodes = (
(387,-195,o),
(490,-190,o),
(537,-182,cs),
(576,-175,o),
(600,-146,o),
(600,-110,cs),
(600,-95,o),
(596,-82,o),
(586,-70,c),
(504,-86,o),
(417,-93,o),
(326,-93,cs),
(246,-93,o),
(173,-84,o),
(108,-64,c),
(150,-49,o),
(188,-38,o),
(221,-28,cs),
(324,3,o),
(448,9,o),
(589,9,cs),
(596,9,o),
(600,12,o),
(600,19,cs),
(600,115,ls),
(600,123,o),
(596,127,o),
(589,127,cs),
(369,127,o),
(167,86,o),
(75,-6,cs),
(66,-15,o),
(41,-120,o),
(41,-135,cs),
(41,-142,o),
(56,-151,o),
(84,-161,cs),
(142,-182,o),
(233,-195,o),
(319,-195,cs)
);
}
);
width = 566;
}
);
unicode = 64431;
},
{
glyphname = "yehRohingya-ar";
layers = (
{
anchors = (
{
name = bottom;
pos = (357,-236);
}
);
layerId = master01;
shapes = (
{
closed = 1;
nodes = (
(163,-158,l),
(144,-135,o),
(127,-109,o),
(127,-76,cs),
(127,-37,o),
(155,-9,o),
(217,0,cs),
(283,9,o),
(329,21,o),
(372,40,c),
(430,11,o),
(504,0,o),
(577,0,cs),
(582,0,o),
(585,3,o),
(585,8,cs),
(585,68,ls),
(585,72,o),
(583,76,o),
(577,76,cs),
(532,76,o),
(491,80,o),
(454,87,c),
(493,121,o),
(512,165,o),
(512,211,cs),
(512,254,o),
(500,299,o),
(481,333,cs),
(462,367,o),
(436,391,o),
(408,391,cs),
(341,391,o),
(283,348,o),
(250,287,cs),
(239,269,o),
(231,206,o),
(231,183,cs),
(231,149,o),
(250,115,o),
(275,90,c),
(249,84,o),
(222,79,o),
(194,76,cs),
(125,66,o),
(63,34,o),
(63,-41,cs),
(63,-87,o),
(98,-142,o),
(131,-175,c)
);
},
{
closed = 1;
nodes = (
(328,135,o),
(296,159,o),
(269,192,c),
(298,249,o),
(358,306,o),
(398,306,cs),
(422,306,o),
(469,230,o),
(473,181,c),
(442,154,o),
(406,133,o),
(365,117,c)
);
},
{
pos = (174,-10);
ref = "twodotshorizontalbelow-ar";
}
);
width = 568;
},
{
anchors = (
{
name = bottom;
pos = (373,-237);
}
);
layerId = "26E2967D-790C-4793-AF2A-2D0AD74EDC69";
shapes = (
{
closed = 1;
nodes = (
(166,-149,l),
(147,-126,o),
(130,-100,o),
(130,-67,cs),
(130,-28,o),
(158,0,o),
(220,9,cs),
(272,16,o),
(326,28,o),
(371,44,c),
(421,23,o),
(491,9,o),
(590,9,cs),
(596,9,o),
(599,12,o),
(599,17,cs),
(599,119,ls),
(599,124,o),
(596,127,o),
(590,127,cs),
(559,127,o),
(520,128,o),
(498,129,c),
(516,153,o),
(527,180,o),
(527,204,cs),
(527,247,o),
(513,296,o),
(491,334,cs),
(470,372,o),
(441,400,o),
(411,400,cs),
(344,400,o),
(277,339,o),
(244,279,cs),
(233,259,o),
(226,199,o),
(226,174,cs),
(226,157,o),
(232,141,o),
(243,125,c),
(217,121,o),
(200,118,o),
(187,114,cs),
(104,92,o),
(59,41,o),
(59,-37,cs),
(59,-83,o),
(94,-138,o),
(127,-171,c)
);
},
{
closed = 1;
nodes = (
(338,136,o),
(305,155,o),
(280,184,c),
(321,243,o),
(361,277,o),
(400,277,cs),
(424,277,o),
(458,219,o),
(471,173,c),
(445,150,o),
(409,134,o),
(374,124,c)
);
},
{
pos = (190,9);
ref = "twodotshorizontalbelow-ar";
}
);
width = 582;
}
);
unicode = 2220;
},
{
glyphname = "kashidaFina-ar";
layers = (
{
anchors = (
{
name = bottom;
pos = (110,-362);
},
{
name = top.far;
pos = (103,90);
},
{
name = top.near;
pos = (103,90);
}
);
layerId = master01;
shapes = (
{
closed = 1;
nodes = (
(349,-170,o),
(296,-181,o),
(251,-181,cs),
(164,-181,o),
(113,-124,o),
(113,-26,cs),
(113,-8,o),
(117,16,o),
(124,45,c),
(87,54,l),
(71,-12,o),
(68,-37,o),
(68,-76,cs),
(68,-196,o),
(135,-264,o),
(249,-264,cs),
(297,-264,o),
(333,-252,o),
(378,-228,c),
(364,-156,l)
);
}
);
width = 345;
},
{
anchors = (
{
name = bottom;
pos = (113,-363);
},
{
name = top.far;
pos = (103,149);
},
{
name = top.near;
pos = (103,149);
}
);
layerId = "26E2967D-790C-4793-AF2A-2D0AD74EDC69";
shapes = (
{
closed = 1;
nodes = (
(346,-128,o),
(310,-135,o),
(254,-135,cs),
(165,-135,o),
(123,-89,o),
(123,6,cs),
(123,29,o),
(128,56,o),
(137,86,c),
(93,97,l),
(76,34,o),
(68,-14,o),
(68,-48,cs),
(68,-181,o),
(132,-253,o),
(251,-253,cs),
(306,-253,o),
(357,-243,o),
(403,-221,c),
(385,-109,l)
);
}
);
width = 378;
}
);
unicode = 65139;
},
{
glyphname = "kashida-ar";
layers = (
{
anchors = (
{
name = bottom;
pos = (99,-100);
},
{
name = top.far;
pos = (99,352);
},
{
name = top.near;
pos = (99,352);
}
);
layerId = master01;
shapes = (
{
closed = 1;
nodes = (
(210,0,ls),
(216,0,o),
(219,3,o),
(219,8,cs),
(219,68,ls),
(219,73,o),
(216,76,o),
(210,76,cs),
(0,76,ls),
(-6,76,o),
(-8,73,o),
(-8,68,cs),
(-8,8,ls),
(-8,3,o),
(-6,0,o),
(0,0,cs)
);
}
);
width = 210;
},
{
anchors = (
{
name = bottom;
pos = (99,-135);
},
{
name = top.far;
pos = (99,361);
},
{
name = top.near;
pos = (99,361);
}
);
layerId = "26E2967D-790C-4793-AF2A-2D0AD74EDC69";
shapes = (
{
closed = 1;
nodes = (
(215,9,ls),
(221,9,o),
(224,12,o),
(224,17,cs),
(224,119,ls),
(224,125,o),
(221,127,o),
(215,127,cs),
(0,127,ls),
(-6,127,o),
(-8,125,o),
(-8,119,cs),
(-8,17,ls),
(-8,12,o),
(-6,9,o),
(0,9,cs)
);
}
);
width = 210;
}
);
unicode = 1600;
},
{
glyphname = "wawSmall-ar";
layers = (
{
anchors = (
{
name = bottom;
pos = (93,-94);
},
{
name = top.far;
pos = (101,440);
},
{
name = top.near;
pos = (98,446);
}
);
layerId = master01;
shapes = (
{
closed = 1;
nodes = (
(133,-26,o),
(176,25,o),
(176,86,cs),
(176,143,o),
(144,189,o),
(102,189,cs),
(66,189,o),
(37,151,o),
(37,104,cs),
(37,71,o),
(59,51,o),
(96,51,cs),
(117,51,o),
(141,57,o),
(141,57,c),
(141,74,l),
(127,33,o),
(105,13,o),
(72,13,cs),
(54,13,o),
(40,17,o),
(21,24,c),
(11,3,l),
(22,-10,o),
(61,-26,o),
(81,-26,cs)
);
},
{
closed = 1;
nodes = (
(82,91,o),
(72,98,o),
(72,115,cs),
(72,128,o),
(86,147,o),
(96,147,cs),
(113,147,o),
(127,130,o),
(137,97,c),
(127,93,o),
(118,91,o),
(105,91,cs)
);
}
);
width = 205;
},
{
anchors = (
{
name = bottom;
pos = (93,-85);
},
{
name = top.far;
pos = (101,449);
},
{
name = top.near;
pos = (102,447);
}
);
layerId = "26E2967D-790C-4793-AF2A-2D0AD74EDC69";
shapes = (
{
closed = 1;
nodes = (
(136,-12,o),
(181,41,o),
(181,105,cs),
(181,164,o),
(147,213,o),
(102,213,cs),
(63,213,o),
(32,173,o),
(32,123,cs),
(32,87,o),
(57,64,o),
(96,64,cs),
(117,64,o),
(137,66,o),
(136,66,c),
(136,94,l),
(123,55,o),
(102,37,o),
(72,37,cs),
(54,37,o),
(39,41,o),
(18,50,c),
(5,22,l),
(12,6,o),
(57,-12,o),
(81,-12,cs)
);
},
{
closed = 1;
nodes = (
(85,115,o),
(77,121,o),
(77,134,cs),
(77,145,o),
(89,161,o),
(96,161,cs),
(109,161,o),
(122,147,o),
(131,119,c),
(123,116,o),
(115,115,o),
(105,115,cs)
);
}
);
width = 205;
}
);
unicode = 1765;
},
{
glyphname = "yehSmall-ar";
layers = (
{
anchors = (
{
name = bottom;
pos = (170,-94);
},
{
name = top.far;
pos = (173,440);
},
{
name = top.near;
pos = (163,448);
}
);
layerId = master01;
shapes = (
{
closed = 1;
nodes = (
(194,0,o),
(219,2,o),
(244,6,cs),
(280,12,o),
(303,19,o),
(303,33,cs),
(303,37,o),
(301,42,o),
(297,46,c),
(264,36,o),
(212,29,o),
(175,29,cs),
(124,29,o),
(86,34,o),
(61,44,c),
(83,59,o),
(84,61,o),
(127,74,cs),
(146,79,o),
(154,93,o),
(161,112,c),
(149,119,l),
(144,108,o),
(134,100,o),
(120,95,cs),
(86,83,l),
(74,78,o),
(64,70,o),
(55,62,c),
(50,59,o),
(43,29,o),
(43,20,cs),
(43,15,o),
(57,11,o),
(84,7,cs),
(112,2,o),
(140,0,o),
(170,0,cs)
);
}
);
width = 344;
},
{
anchors = (
{
name = bottom;
pos = (170,-85);
},
{
name = top.far;
pos = (173,449);
},
{
name = top.near;
pos = (175,452);
}
);
layerId = "26E2967D-790C-4793-AF2A-2D0AD74EDC69";
shapes = (
{
closed = 1;
nodes = (
(194,9,o),
(219,11,o),
(244,15,cs),
(280,20,o),
(303,27,o),
(303,42,cs),
(303,46,o),
(301,51,o),
(297,55,c),
(264,45,o),
(212,38,o),
(175,38,cs),
(124,38,o),
(86,43,o),
(61,53,c),
(83,68,o),
(84,69,o),
(127,83,cs),
(146,88,o),
(154,102,o),
(161,121,c),
(149,127,l),
(144,116,o),
(134,109,o),
(120,104,cs),
(86,92,l),
(74,86,o),
(64,79,o),
(55,71,c),
(50,68,o),
(43,38,o),
(43,29,cs),
(43,24,o),
(57,20,o),
(84,15,cs),
(112,11,o),
(140,9,o),
(170,9,cs)
);
}
);
width = 344;
}
);
unicode = 1766;
},
{
category = Letter;
glyphname = "lam_alef-ar";
layers = (
{
anchors = (
{
name = bottom;
pos = (152,-100);
},
{
name = top.far;
pos = (69,587);
},
{
name = top.near;
pos = (64,592);
}
);
layerId = master01;
shapes = (
{
closed = 1;
nodes = (
(274,0,o),
(373,6,o),
(436,17,cs),
(445,19,o),
(466,63,o),
(466,84,cs),
(466,105,o),
(417,191,o),
(391,233,c),
(416,281,o),
(429,331,o),
(429,382,c),
(423,525,l),
(422,546,l),
(449,569,l),
(435,607,o),
(422,647,o),
(413,688,c),
(368,680,o),
(346,659,o),
(346,625,cs),
(346,619,o),
(350,592,o),
(357,547,cs),
(372,451,o),
(379,390,o),
(379,362,cs),
(379,332,o),
(373,306,o),
(360,276,c),
(327,315,o),
(295,350,o),
(264,379,cs),
(203,439,o),
(124,505,o),
(69,543,c),
(40,528,o),
(35,508,o),
(35,488,cs),
(35,458,o),
(49,434,o),
(83,402,c),
(120,404,l),
(192,363,o),
(271,297,o),
(331,228,c),
(291,176,o),
(259,145,o),
(170,76,c),
(149,76,l),
(144,76,o),
(134,29,o),
(134,11,cs),
(134,4,o),
(135,0,o),
(137,0,cs)
);
},
{
closed = 1;
nodes = (
(296,113,o),
(335,150,o),
(363,189,c),
(391,154,o),
(412,122,o),
(427,96,c),
(367,86,o),
(307,80,o),
(249,78,c)
);
}
);
userData = {
com.typemytype.robofont.guides = (
{
isGlobal = 0;
magnetic = 5;
name = caret.1;
x = 530;
y = 0;
}
);
};
width = 518;
},
{
anchors = (
{
name = bottom;
pos = (152,-110);
},
{
name = top.far;
pos = (61,624);
},
{
name = top.near;
pos = (64,622);
}
);
layerId = "26E2967D-790C-4793-AF2A-2D0AD74EDC69";
shapes = (
{
closed = 1;
nodes = (
(286,0,o),
(391,6,o),
(456,17,cs),
(465,19,o),
(496,96,o),
(496,119,cs),
(496,140,o),
(416,249,o),
(406,260,c),
(437,317,o),
(453,376,o),
(453,436,c),
(450,531,l),
(449,549,l),
(482,574,l),
(466,613,o),
(453,654,o),
(442,697,c),
(381,697,o),
(336,662,o),
(336,608,cs),
(336,599,o),
(340,574,o),
(347,533,cs),
(361,452,o),
(368,403,o),
(368,387,cs),
(368,363,o),
(365,340,o),
(359,319,c),
(331,351,o),
(298,385,o),
(264,418,cs),
(201,480,o),
(135,538,o),
(89,569,c),
(53,548,o),
(34,520,o),
(34,484,cs),
(34,444,o),
(54,414,o),
(93,395,c),
(130,397,l),
(209,349,o),
(274,299,o),
(326,247,c),
(300,206,o),
(256,161,o),
(194,110,c),
(153,110,l),
(146,110,o),
(138,35,o),
(138,8,cs),
(138,3,o),
(139,0,o),
(140,0,cs)
);
},
{
closed = 1;
nodes = (
(312,140,o),
(341,169,o),
(368,203,c),
(389,178,o),
(409,154,o),
(430,130,c),
(382,122,o),
(338,117,o),
(278,114,c)
);
}
);
userData = {
com.typemytype.robofont.guides = (
{
isGlobal = 0;
magnetic = 5;
name = caret.1;
x = 559;
y = 0;
}
);
};
width = 546;
}
);
subCategory = Other;
unicode = 65275;
},
